<?xml version="1.0" encoding="utf-8" standalone="no"?>
<!DOCTYPE svg PUBLIC "-//W3C//DTD SVG 1.1//EN"
  "http://www.w3.org/Graphics/SVG/1.1/DTD/svg11.dtd">
<!-- Created with matplotlib (http://matplotlib.org/) -->
<svg height="432pt" version="1.1" viewBox="0 0 576 432" width="576pt" xmlns="http://www.w3.org/2000/svg" xmlns:xlink="http://www.w3.org/1999/xlink">
 <defs>
  <style type="text/css">
*{stroke-linecap:butt;stroke-linejoin:round;stroke-miterlimit:100000;}
  </style>
 </defs>
 <g id="figure_1">
  <g id="patch_1">
   <path d="M 0 432 
L 576 432 
L 576 0 
L 0 0 
z
" style="fill:#ffffff;"/>
  </g>
  <g id="axes_1">
   <g id="patch_2">
    <path d="M 72 388.8 
L 518.4 388.8 
L 518.4 43.2 
L 72 43.2 
z
" style="fill:#ffffff;"/>
   </g>
   <g id="PolyCollection_1">
    <defs>
     <path d="M 75.215366 -43.2 
L 75.215366 -43.2 
L 78.430732 -43.2 
L 81.646098 -43.2 
L 84.861465 -43.2 
L 88.076831 -43.2 
L 91.292197 -43.2 
L 94.507563 -43.2 
L 97.722929 -43.2 
L 100.938295 -43.2 
L 104.153661 -43.2 
L 107.369028 -43.2 
L 110.584394 -43.2 
L 113.79976 -43.2 
L 117.015126 -43.2 
L 120.230492 -43.2 
L 123.445858 -43.2 
L 126.661224 -43.2 
L 129.876591 -43.2 
L 133.091957 -43.2 
L 136.307323 -43.2 
L 139.522689 -43.2 
L 142.738055 -43.2 
L 145.953421 -92.870662 
L 149.168788 -165.347806 
L 152.384154 -200.910257 
L 155.59952 -221.819489 
L 158.814886 -228.224346 
L 162.030252 -217.7922 
L 165.245618 -200.504997 
L 168.460984 -177.05508 
L 171.676351 -153.750332 
L 174.891717 -126.077213 
L 178.107083 -105.499751 
L 181.322449 -83.238787 
L 184.537815 -66.75638 
L 187.753181 -58.866353 
L 190.968547 -58.082043 
L 194.183914 -59.167607 
L 197.39928 -64.860579 
L 200.614646 -73.165069 
L 203.830012 -82.584153 
L 207.045378 -88.556597 
L 210.260744 -98.735281 
L 213.47611 -105.169929 
L 216.691477 -111.292311 
L 219.906843 -120.478137 
L 223.122209 -124.939439 
L 226.337575 -128.579921 
L 229.552941 -131.124774 
L 232.768307 -132.057259 
L 235.983673 -131.764341 
L 239.19904 -132.012322 
L 242.414406 -130.767487 
L 245.629772 -127.51108 
L 248.845138 -121.706816 
L 252.060504 -115.756858 
L 255.27587 -110.536921 
L 258.491236 -107.443772 
L 261.706603 -104.248253 
L 264.921969 -102.571456 
L 268.137335 -102.351421 
L 271.352701 -104.851206 
L 274.568067 -108.907352 
L 277.783433 -109.058483 
L 280.9988 -110.450151 
L 284.214166 -113.106847 
L 287.429532 -114.6127 
L 290.644898 -117.332126 
L 293.860264 -118.758752 
L 297.07563 -120.016637 
L 300.290996 -120.653828 
L 303.506363 -121.322322 
L 306.721729 -121.981548 
L 309.937095 -122.656381 
L 313.152461 -122.237805 
L 316.367827 -121.836768 
L 319.583193 -120.90508 
L 322.798559 -118.918267 
L 326.013926 -117.428591 
L 329.229292 -116.306104 
L 332.444658 -114.044008 
L 335.660024 -113.458995 
L 338.87539 -113.865752 
L 342.090756 -114.936395 
L 345.306122 -115.769842 
L 348.521489 -116.681043 
L 351.736855 -116.610314 
L 354.952221 -116.868827 
L 358.167587 -117.583257 
L 361.382953 -117.098011 
L 364.598319 -118.149634 
L 367.813685 -119.002341 
L 371.029052 -119.425576 
L 374.244418 -119.387363 
L 377.459784 -119.341262 
L 380.67515 -119.707036 
L 383.890516 -119.248514 
L 387.105882 -118.8276 
L 390.321248 -118.087799 
L 393.536615 -117.910161 
L 396.751981 -118.318948 
L 399.967347 -118.076844 
L 403.182713 -117.941303 
L 406.398079 -117.704778 
L 409.613445 -117.329263 
L 412.828812 -118.086431 
L 416.044178 -117.777325 
L 419.259544 -118.43018 
L 422.47491 -117.964144 
L 425.690276 -118.044727 
L 428.905642 -117.992215 
L 432.121008 -118.48123 
L 435.336375 -118.025971 
L 438.551741 -117.971039 
L 441.767107 -117.449242 
L 444.982473 -117.295102 
L 448.197839 -116.937194 
L 451.413205 -117.578332 
L 454.628571 -117.708323 
L 454.628571 -124.008902 
L 454.628571 -124.008902 
L 451.413205 -123.539646 
L 448.197839 -123.1797 
L 444.982473 -123.016114 
L 441.767107 -123.557957 
L 438.551741 -123.5549 
L 435.336375 -123.543384 
L 432.121008 -123.673466 
L 428.905642 -123.492784 
L 425.690276 -123.769363 
L 422.47491 -123.415079 
L 419.259544 -123.208964 
L 416.044178 -123.941012 
L 412.828812 -123.533463 
L 409.613445 -123.073302 
L 406.398079 -122.685291 
L 403.182713 -123.534992 
L 399.967347 -123.772528 
L 396.751981 -123.917165 
L 393.536615 -123.95903 
L 390.321248 -124.424291 
L 387.105882 -124.415991 
L 383.890516 -124.7114 
L 380.67515 -124.645744 
L 377.459784 -124.285314 
L 374.244418 -124.61627 
L 371.029052 -124.360799 
L 367.813685 -124.322179 
L 364.598319 -123.216133 
L 361.382953 -122.660245 
L 358.167587 -122.571254 
L 354.952221 -122.471756 
L 351.736855 -122.585331 
L 348.521489 -122.152355 
L 345.306122 -121.932922 
L 342.090756 -122.526151 
L 338.87539 -122.89488 
L 335.660024 -123.393488 
L 332.444658 -123.665492 
L 329.229292 -123.663561 
L 326.013926 -124.263241 
L 322.798559 -126.004053 
L 319.583193 -127.362491 
L 316.367827 -128.58129 
L 313.152461 -128.700839 
L 309.937095 -128.510303 
L 306.721729 -129.108427 
L 303.506363 -130.022537 
L 300.290996 -130.511321 
L 297.07563 -130.752836 
L 293.860264 -128.158302 
L 290.644898 -124.959694 
L 287.429532 -121.487276 
L 284.214166 -118.85361 
L 280.9988 -117.599716 
L 277.783433 -116.641318 
L 274.568067 -115.955335 
L 271.352701 -115.677285 
L 268.137335 -115.501791 
L 264.921969 -118.373613 
L 261.706603 -119.942097 
L 258.491236 -122.812301 
L 255.27587 -125.172132 
L 252.060504 -129.211508 
L 248.845138 -135.671812 
L 245.629772 -139.085075 
L 242.414406 -142.242787 
L 239.19904 -143.502472 
L 235.983673 -146.939442 
L 232.768307 -150.053383 
L 229.552941 -150.371363 
L 226.337575 -148.624932 
L 223.122209 -142.70778 
L 219.906843 -135.96768 
L 216.691477 -126.226235 
L 213.47611 -117.273847 
L 210.260744 -106.773097 
L 207.045378 -97.096347 
L 203.830012 -92.968143 
L 200.614646 -89.095467 
L 197.39928 -86.69202 
L 194.183914 -87.729333 
L 190.968547 -91.235387 
L 187.753181 -94.740078 
L 184.537815 -105.858353 
L 181.322449 -120.756963 
L 178.107083 -140.529335 
L 174.891717 -160.809926 
L 171.676351 -186.112163 
L 168.460984 -215.604793 
L 165.245618 -245.009889 
L 162.030252 -266.681091 
L 158.814886 -277.017274 
L 155.59952 -273.49155 
L 152.384154 -247.869419 
L 149.168788 -203.527804 
L 145.953421 -140.660306 
L 142.738055 -99.681832 
L 139.522689 -43.2 
L 136.307323 -43.2 
L 133.091957 -43.2 
L 129.876591 -43.2 
L 126.661224 -43.2 
L 123.445858 -43.2 
L 120.230492 -43.2 
L 117.015126 -43.2 
L 113.79976 -43.2 
L 110.584394 -43.2 
L 107.369028 -43.2 
L 104.153661 -43.2 
L 100.938295 -43.2 
L 97.722929 -43.2 
L 94.507563 -43.2 
L 91.292197 -43.2 
L 88.076831 -43.2 
L 84.861465 -43.2 
L 81.646098 -43.2 
L 78.430732 -43.2 
L 75.215366 -43.2 
z
" id="m7a9e91a343" style="stroke:#ffffff;stroke-opacity:0.5;"/>
    </defs>
    <g clip-path="url(#p2b386d653f)">
     <use style="fill:#0000ff;fill-opacity:0.5;stroke:#ffffff;stroke-opacity:0.5;" x="0.0" xlink:href="#m7a9e91a343" y="432.0"/>
    </g>
   </g>
   <g id="line2d_1">
    <path clip-path="url(#p2b386d653f)" d="M 75.215366 388.8 
L 78.430732 388.8 
L 81.646098 388.8 
L 84.861465 388.8 
L 88.076831 388.8 
L 91.292197 388.8 
L 94.507563 388.8 
L 97.722929 388.8 
L 100.938295 388.8 
L 104.153661 388.8 
L 107.369028 388.8 
L 110.584394 388.8 
L 113.79976 388.8 
L 117.015126 388.8 
L 120.230492 388.8 
L 123.445858 388.8 
L 126.661224 388.8 
L 129.876591 388.8 
L 133.091957 388.8 
L 136.307323 388.8 
L 139.522689 388.8 
L 142.738055 354.272213 
L 145.953421 312.114443 
L 149.168788 252.25525 
L 152.384154 209.012914 
L 155.59952 182.730261 
L 158.814886 175.517556 
L 162.030252 186.372648 
L 165.245618 208.784259 
L 168.460984 238.466402 
L 171.676351 266.982067 
L 174.891717 290.748322 
L 178.107083 309.938156 
L 181.322449 327.424733 
L 184.537815 341.200603 
L 187.753181 349.138799 
L 190.968547 353.154424 
L 194.183914 356.213557 
L 197.39928 354.980003 
L 200.614646 351.39447 
L 203.830012 345.513686 
L 207.045378 339.357402 
L 210.260744 330.3181 
L 213.47611 323.317362 
L 216.691477 315.595126 
L 219.906843 306.542409 
L 223.122209 299.458213 
L 226.337575 294.28499 
L 229.552941 291.693483 
L 232.768307 291.019364 
L 235.983673 291.600852 
L 239.19904 293.19364 
L 242.414406 295.635356 
L 245.629772 300.348014 
L 248.845138 304.689626 
L 252.060504 309.47016 
L 255.27587 313.50113 
L 258.491236 316.645528 
L 261.706603 319.373447 
L 264.921969 320.885487 
L 268.137335 321.63945 
L 271.352701 321.3106 
L 274.568067 320.784017 
L 277.783433 319.913403 
L 280.9988 317.952946 
L 284.214166 315.915165 
L 287.429532 313.666578 
L 290.644898 311.021633 
L 293.860264 309.435614 
L 297.07563 307.667638 
L 300.290996 307.346494 
L 303.506363 306.421492 
L 306.721729 306.404561 
L 309.937095 306.470546 
L 313.152461 307.174108 
L 316.367827 307.969378 
L 319.583193 309.232539 
L 322.798559 310.787319 
L 326.013926 312.032404 
L 329.229292 312.867048 
L 332.444658 313.748718 
L 335.660024 314.363949 
L 338.87539 314.428298 
L 342.090756 314.273276 
L 345.306122 314.409837 
L 348.521489 313.815688 
L 351.736855 313.294815 
L 354.952221 312.718323 
L 358.167587 312.421151 
L 361.382953 312.332367 
L 364.598319 311.21741 
L 367.813685 310.356123 
L 371.029052 310.202748 
L 374.244418 310.298374 
L 377.459784 310.342784 
L 380.67515 310.448218 
L 383.890516 310.728518 
L 387.105882 311.145203 
L 390.321248 311.674635 
L 393.536615 312.298316 
L 396.751981 312.355989 
L 399.967347 312.046093 
L 403.182713 312.082884 
L 406.398079 312.372489 
L 409.613445 312.833473 
L 412.828812 312.613303 
L 416.044178 312.516603 
L 419.259544 312.252543 
L 422.47491 312.175748 
L 425.690276 312.128598 
L 428.905642 312.249055 
L 432.121008 312.013834 
L 435.336375 311.913055 
L 438.551741 311.942246 
L 441.767107 312.092912 
L 444.982473 312.046841 
L 448.197839 311.993646 
L 451.413205 311.783997 
L 454.628571 311.628047 
" style="fill:none;stroke:#0000ff;stroke-linecap:square;"/>
   </g>
   <g id="line2d_2">
    <path clip-path="url(#p2b386d653f)" d="M 75.215366 388.8 
L 78.430732 388.8 
L 81.646098 388.8 
L 84.861465 388.8 
L 88.076831 388.8 
L 91.292197 388.8 
L 94.507563 388.8 
L 97.722929 388.8 
L 100.938295 388.8 
L 104.153661 388.8 
L 107.369028 388.8 
L 110.584394 388.8 
L 113.79976 388.8 
L 117.015126 388.8 
L 120.230492 388.8 
L 123.445858 388.8 
L 126.661224 388.8 
L 129.876591 388.8 
L 133.091957 388.8 
L 136.307323 388.8 
L 139.522689 388.8 
L 142.738055 388.8 
L 145.953421 388.8 
L 149.168788 386.731373 
L 152.384154 239.729388 
L 155.59952 159.101081 
L 158.814886 130.317558 
L 162.030252 167.173155 
L 165.245618 208.101127 
L 168.460984 246.414451 
L 171.676351 277.405646 
L 174.891717 300.836986 
L 178.107083 318.297334 
L 181.322449 332.47074 
L 184.537815 344.142829 
L 187.753181 353.03059 
L 190.968547 358.609314 
L 194.183914 360.462799 
L 197.39928 358.614417 
L 200.614646 353.628591 
L 203.830012 346.457374 
L 207.045378 338.167732 
L 210.260744 329.708559 
L 213.47611 321.792577 
L 216.691477 314.881431 
L 219.906843 309.101181 
L 223.122209 304.523439 
L 226.337575 301.291358 
L 229.552941 299.435849 
L 232.768307 298.891763 
L 235.983673 299.51673 
L 239.19904 301.111238 
L 242.414406 303.438984 
L 245.629772 306.246634 
L 248.845138 309.282105 
L 252.060504 312.310569 
L 255.27587 315.128059 
L 258.491236 317.600734 
L 261.706603 319.607188 
L 264.921969 321.048798 
L 268.137335 321.879642 
L 271.352701 322.106739 
L 274.568067 321.784326 
L 277.783433 321.003432 
L 280.9988 319.878823 
L 284.214166 318.535574 
L 287.429532 317.097088 
L 290.644898 315.675711 
L 293.860264 314.365741 
L 297.07563 313.233521 
L 300.290996 312.332933 
L 303.506363 311.699245 
L 306.721729 311.345746 
L 309.937095 311.26533 
L 313.152461 311.433241 
L 316.367827 311.81069 
L 319.583193 312.348992 
L 322.798559 312.993908 
L 326.013926 313.689884 
L 329.229292 314.383914 
L 332.444658 315.029152 
L 335.660024 315.588683 
L 338.87539 316.032817 
L 342.090756 316.342278 
L 345.306122 316.509156 
L 348.521489 316.536409 
L 351.736855 316.43658 
L 354.952221 316.22988 
L 358.167587 315.941889 
L 361.382953 315.601104 
L 364.598319 315.236583 
L 367.813685 314.875841 
L 371.029052 314.542972 
L 374.244418 314.257242 
L 377.459784 314.033402 
L 380.67515 313.880587 
L 383.890516 313.802193 
L 387.105882 313.796219 
L 390.321248 313.855937 
L 393.536615 313.970814 
L 396.751981 314.127596 
L 399.967347 314.311476 
L 403.182713 314.507242 
L 406.398079 314.700348 
L 409.613445 314.877912 
L 412.828812 315.029397 
L 416.044178 315.146852 
L 419.259544 315.225397 
L 422.47491 315.263287 
L 425.690276 315.261748 
L 428.905642 315.224607 
L 432.121008 315.157788 
L 435.336375 315.068691 
L 438.551741 314.965543 
L 441.767107 314.856746 
L 444.982473 314.750288 
L 448.197839 314.653203 
L 451.413205 314.571227 
L 454.628571 314.508582 
" style="fill:none;stroke:#000000;stroke-linecap:square;"/>
   </g>
   <g id="line2d_3">
    <path clip-path="url(#p2b386d653f)" d="M 74.061132 388.8 
L 142.078494 388.8 
L 144.139626 357.156562 
L 146.200758 231.494648 
L 148.261891 145.283542 
L 150.323023 82.370587 
L 152.384155 66.469008 
L 154.445287 60.009005 
L 156.506419 61.188074 
L 158.567551 92.213099 
L 160.628684 127.10746 
L 162.689816 157.418731 
L 164.750948 190.881589 
L 166.81208 214.876502 
L 170.934345 257.552169 
L 175.056609 296.224924 
L 177.117741 304.77231 
L 179.178873 330.30902 
L 181.240005 338.662437 
L 183.301138 345.870339 
L 185.36227 357.579685 
L 187.423402 367.476087 
L 189.484534 369.24045 
L 191.545666 378.825354 
L 193.606798 376.882641 
L 195.667931 377.240179 
L 197.729063 373.704489 
L 199.790195 367.882622 
L 201.851327 365.977656 
L 203.912459 359.497865 
L 205.973592 360.651231 
L 208.034724 341.773679 
L 210.095856 339.005431 
L 212.156988 332.139582 
L 214.21812 327.354436 
L 216.279252 315.832155 
L 218.340385 305.926154 
L 220.401517 301.716185 
L 224.523781 287.552823 
L 226.584913 283.32417 
L 228.646045 281.102226 
L 230.707178 277.494302 
L 232.76831 279.763298 
L 234.829442 276.282861 
L 236.890574 279.91364 
L 238.951706 285.084143 
L 241.012839 288.573597 
L 243.073971 289.472816 
L 245.135103 294.500007 
L 247.196235 294.650982 
L 249.257367 304.067793 
L 251.318499 310.242288 
L 253.379632 306.679246 
L 255.440764 309.214737 
L 257.501896 314.728011 
L 259.563028 316.982627 
L 261.62416 316.085093 
L 263.685292 321.95461 
L 265.746425 319.97406 
L 267.807557 323.81021 
L 269.868689 322.649518 
L 271.929821 323.195944 
L 273.990953 322.941742 
L 276.052086 321.87188 
L 278.113218 321.845292 
L 280.17435 318.182921 
L 282.235482 316.822236 
L 284.296614 319.897449 
L 288.418879 311.56814 
L 290.480011 314.201585 
L 292.541143 309.267364 
L 294.602275 309.331534 
L 296.663407 307.730725 
L 298.724539 305.903295 
L 300.785672 306.349629 
L 302.846804 307.972059 
L 304.907936 302.726726 
L 306.969068 303.667153 
L 309.0302 306.350233 
L 311.091333 303.984252 
L 313.152465 305.545915 
L 315.213597 304.196933 
L 317.274729 307.741883 
L 319.335861 305.426062 
L 321.396993 307.095458 
L 323.458126 306.469307 
L 325.519258 310.374302 
L 327.58039 309.781723 
L 329.641522 309.393113 
L 331.702654 312.150276 
L 333.763787 313.010045 
L 335.824919 312.46582 
L 337.886051 311.662376 
L 339.947183 314.28791 
L 342.008315 314.435132 
L 344.069447 311.404472 
L 346.13058 313.85471 
L 348.191712 315.976796 
L 350.252844 313.285815 
L 352.313976 314.003303 
L 354.375108 316.050639 
L 356.43624 312.061422 
L 358.497373 313.520444 
L 360.558505 309.578104 
L 362.619637 313.12453 
L 364.680769 314.442776 
L 366.741901 309.580956 
L 368.803034 310.6542 
L 370.864166 312.166623 
L 372.925298 309.625811 
L 374.98643 310.46064 
L 377.047562 311.077815 
L 379.108694 311.298664 
L 381.169827 310.71865 
L 383.230959 311.009717 
L 385.292091 308.93167 
L 387.353223 310.643798 
L 389.414355 309.187665 
L 391.475487 309.493622 
L 393.53662 308.506202 
L 395.597752 310.034158 
L 397.658884 309.529632 
L 399.720016 310.500055 
L 401.781148 310.974946 
L 403.842281 310.275112 
L 407.964545 311.165125 
L 410.025677 312.919778 
L 412.086809 312.318871 
L 414.147941 313.092611 
L 416.209074 310.569035 
L 418.270206 311.711842 
L 420.331338 312.292365 
L 424.453602 311.961322 
L 426.514734 311.164888 
L 428.575867 311.229643 
L 430.636999 310.602586 
L 432.698131 311.726071 
L 434.759263 311.297521 
L 436.820395 312.3835 
L 440.94266 311.702569 
L 443.003792 312.547616 
L 445.064924 312.514064 
L 447.126056 312.201465 
L 449.187188 314.144136 
L 451.248321 312.542846 
L 453.309453 313.333937 
L 455.370585 315.252612 
L 455.370585 315.252612 
" style="fill:none;stroke:#008000;stroke-linecap:square;"/>
   </g>
   <g id="line2d_4">
    <path clip-path="url(#p2b386d653f)" d="M 75.215366 314.742857 
L 78.430732 314.742857 
L 81.646098 314.742857 
L 84.861465 314.742857 
L 88.076831 314.742857 
L 91.292197 314.742857 
L 94.507563 314.742857 
L 97.722929 314.742857 
L 100.938295 314.742857 
L 104.153661 314.742857 
L 107.369028 314.742857 
L 110.584394 314.742857 
L 113.79976 314.742857 
L 117.015126 314.742857 
L 120.230492 314.742857 
L 123.445858 314.742857 
L 126.661224 314.742857 
L 129.876591 314.742857 
L 133.091957 314.742857 
L 136.307323 314.742857 
L 139.522689 314.742857 
L 142.738055 314.742857 
L 145.953421 314.742857 
L 149.168788 314.742857 
L 152.384154 314.742857 
L 155.59952 314.742857 
L 158.814886 314.742857 
L 162.030252 314.742857 
L 165.245618 314.742857 
L 168.460984 314.742857 
L 171.676351 314.742857 
L 174.891717 314.742857 
L 178.107083 314.742857 
L 181.322449 314.742857 
L 184.537815 314.742857 
L 187.753181 314.742857 
L 190.968547 314.742857 
L 194.183914 314.742857 
L 197.39928 314.742857 
L 200.614646 314.742857 
L 203.830012 314.742857 
L 207.045378 314.742857 
L 210.260744 314.742857 
L 213.47611 314.742857 
L 216.691477 314.742857 
L 219.906843 314.742857 
L 223.122209 314.742857 
L 226.337575 314.742857 
L 229.552941 314.742857 
L 232.768307 314.742857 
L 235.983673 314.742857 
L 239.19904 314.742857 
L 242.414406 314.742857 
L 245.629772 314.742857 
L 248.845138 314.742857 
L 252.060504 314.742857 
L 255.27587 314.742857 
L 258.491236 314.742857 
L 261.706603 314.742857 
L 264.921969 314.742857 
L 268.137335 314.742857 
L 271.352701 314.742857 
L 274.568067 314.742857 
L 277.783433 314.742857 
L 280.9988 314.742857 
L 284.214166 314.742857 
L 287.429532 314.742857 
L 290.644898 314.742857 
L 293.860264 314.742857 
L 297.07563 314.742857 
L 300.290996 314.742857 
L 303.506363 314.742857 
L 306.721729 314.742857 
L 309.937095 314.742857 
L 313.152461 314.742857 
L 316.367827 314.742857 
L 319.583193 314.742857 
L 322.798559 314.742857 
L 326.013926 314.742857 
L 329.229292 314.742857 
L 332.444658 314.742857 
L 335.660024 314.742857 
L 338.87539 314.742857 
L 342.090756 314.742857 
L 345.306122 314.742857 
L 348.521489 314.742857 
L 351.736855 314.742857 
L 354.952221 314.742857 
L 358.167587 314.742857 
L 361.382953 314.742857 
L 364.598319 314.742857 
L 367.813685 314.742857 
L 371.029052 314.742857 
L 374.244418 314.742857 
L 377.459784 314.742857 
L 380.67515 314.742857 
L 383.890516 314.742857 
L 387.105882 314.742857 
L 390.321248 314.742857 
L 393.536615 314.742857 
L 396.751981 314.742857 
L 399.967347 314.742857 
L 403.182713 314.742857 
L 406.398079 314.742857 
L 409.613445 314.742857 
L 412.828812 314.742857 
L 416.044178 314.742857 
L 419.259544 314.742857 
L 422.47491 314.742857 
L 425.690276 314.742857 
L 428.905642 314.742857 
L 432.121008 314.742857 
L 435.336375 314.742857 
L 438.551741 314.742857 
L 441.767107 314.742857 
L 444.982473 314.742857 
L 448.197839 314.742857 
L 451.413205 314.742857 
L 454.628571 314.742857 
" style="fill:none;stroke:#000000;stroke-dasharray:6.000000,6.000000;stroke-dashoffset:0.0;"/>
   </g>
   <g id="patch_3">
    <path d="M 72 43.2 
L 518.4 43.2 
" style="fill:none;stroke:#000000;stroke-linecap:square;stroke-linejoin:miter;"/>
   </g>
   <g id="patch_4">
    <path d="M 518.4 388.8 
L 518.4 43.2 
" style="fill:none;stroke:#000000;stroke-linecap:square;stroke-linejoin:miter;"/>
   </g>
   <g id="patch_5">
    <path d="M 72 388.8 
L 518.4 388.8 
" style="fill:none;stroke:#000000;stroke-linecap:square;stroke-linejoin:miter;"/>
   </g>
   <g id="patch_6">
    <path d="M 72 388.8 
L 72 43.2 
" style="fill:none;stroke:#000000;stroke-linecap:square;stroke-linejoin:miter;"/>
   </g>
   <g id="matplotlib.axis_1">
    <g id="xtick_1">
     <g id="line2d_5">
      <defs>
       <path d="M 0 0 
L 0 -4 
" id="m77f471c77a" style="stroke:#000000;stroke-width:0.5;"/>
      </defs>
      <g>
       <use style="stroke:#000000;stroke-width:0.5;" x="72.0" xlink:href="#m77f471c77a" y="388.8"/>
      </g>
     </g>
     <g id="line2d_6">
      <defs>
       <path d="M 0 0 
L 0 4 
" id="m8ec9113079" style="stroke:#000000;stroke-width:0.5;"/>
      </defs>
      <g>
       <use style="stroke:#000000;stroke-width:0.5;" x="72.0" xlink:href="#m8ec9113079" y="43.2"/>
      </g>
     </g>
     <g id="text_1">
      <!-- 0 -->
      <defs>
       <path d="M 31.78125 66.40625 
Q 24.171875 66.40625 20.328125 58.90625 
Q 16.5 51.421875 16.5 36.375 
Q 16.5 21.390625 20.328125 13.890625 
Q 24.171875 6.390625 31.78125 6.390625 
Q 39.453125 6.390625 43.28125 13.890625 
Q 47.125 21.390625 47.125 36.375 
Q 47.125 51.421875 43.28125 58.90625 
Q 39.453125 66.40625 31.78125 66.40625 
M 31.78125 74.21875 
Q 44.046875 74.21875 50.515625 64.515625 
Q 56.984375 54.828125 56.984375 36.375 
Q 56.984375 17.96875 50.515625 8.265625 
Q 44.046875 -1.421875 31.78125 -1.421875 
Q 19.53125 -1.421875 13.0625 8.265625 
Q 6.59375 17.96875 6.59375 36.375 
Q 6.59375 54.828125 13.0625 64.515625 
Q 19.53125 74.21875 31.78125 74.21875 
" id="BitstreamVeraSans-Roman-30"/>
      </defs>
      <g transform="translate(68.1825 401.918125)scale(0.12 -0.12)">
       <use xlink:href="#BitstreamVeraSans-Roman-30"/>
      </g>
     </g>
    </g>
    <g id="xtick_2">
     <g id="line2d_7">
      <g>
       <use style="stroke:#000000;stroke-width:0.5;" x="135.771428571" xlink:href="#m77f471c77a" y="388.8"/>
      </g>
     </g>
     <g id="line2d_8">
      <g>
       <use style="stroke:#000000;stroke-width:0.5;" x="135.771428571" xlink:href="#m8ec9113079" y="43.2"/>
      </g>
     </g>
     <g id="text_2">
      <!-- 10 -->
      <defs>
       <path d="M 12.40625 8.296875 
L 28.515625 8.296875 
L 28.515625 63.921875 
L 10.984375 60.40625 
L 10.984375 69.390625 
L 28.421875 72.90625 
L 38.28125 72.90625 
L 38.28125 8.296875 
L 54.390625 8.296875 
L 54.390625 0 
L 12.40625 0 
z
" id="BitstreamVeraSans-Roman-31"/>
      </defs>
      <g transform="translate(128.136428571 401.918125)scale(0.12 -0.12)">
       <use xlink:href="#BitstreamVeraSans-Roman-31"/>
       <use x="63.623046875" xlink:href="#BitstreamVeraSans-Roman-30"/>
      </g>
     </g>
    </g>
    <g id="xtick_3">
     <g id="line2d_9">
      <g>
       <use style="stroke:#000000;stroke-width:0.5;" x="199.542857143" xlink:href="#m77f471c77a" y="388.8"/>
      </g>
     </g>
     <g id="line2d_10">
      <g>
       <use style="stroke:#000000;stroke-width:0.5;" x="199.542857143" xlink:href="#m8ec9113079" y="43.2"/>
      </g>
     </g>
     <g id="text_3">
      <!-- 20 -->
      <defs>
       <path d="M 19.1875 8.296875 
L 53.609375 8.296875 
L 53.609375 0 
L 7.328125 0 
L 7.328125 8.296875 
Q 12.9375 14.109375 22.625 23.890625 
Q 32.328125 33.6875 34.8125 36.53125 
Q 39.546875 41.84375 41.421875 45.53125 
Q 43.3125 49.21875 43.3125 52.78125 
Q 43.3125 58.59375 39.234375 62.25 
Q 35.15625 65.921875 28.609375 65.921875 
Q 23.96875 65.921875 18.8125 64.3125 
Q 13.671875 62.703125 7.8125 59.421875 
L 7.8125 69.390625 
Q 13.765625 71.78125 18.9375 73 
Q 24.125 74.21875 28.421875 74.21875 
Q 39.75 74.21875 46.484375 68.546875 
Q 53.21875 62.890625 53.21875 53.421875 
Q 53.21875 48.921875 51.53125 44.890625 
Q 49.859375 40.875 45.40625 35.40625 
Q 44.1875 33.984375 37.640625 27.21875 
Q 31.109375 20.453125 19.1875 8.296875 
" id="BitstreamVeraSans-Roman-32"/>
      </defs>
      <g transform="translate(191.907857143 401.918125)scale(0.12 -0.12)">
       <use xlink:href="#BitstreamVeraSans-Roman-32"/>
       <use x="63.623046875" xlink:href="#BitstreamVeraSans-Roman-30"/>
      </g>
     </g>
    </g>
    <g id="xtick_4">
     <g id="line2d_11">
      <g>
       <use style="stroke:#000000;stroke-width:0.5;" x="263.314285714" xlink:href="#m77f471c77a" y="388.8"/>
      </g>
     </g>
     <g id="line2d_12">
      <g>
       <use style="stroke:#000000;stroke-width:0.5;" x="263.314285714" xlink:href="#m8ec9113079" y="43.2"/>
      </g>
     </g>
     <g id="text_4">
      <!-- 30 -->
      <defs>
       <path d="M 40.578125 39.3125 
Q 47.65625 37.796875 51.625 33 
Q 55.609375 28.21875 55.609375 21.1875 
Q 55.609375 10.40625 48.1875 4.484375 
Q 40.765625 -1.421875 27.09375 -1.421875 
Q 22.515625 -1.421875 17.65625 -0.515625 
Q 12.796875 0.390625 7.625 2.203125 
L 7.625 11.71875 
Q 11.71875 9.328125 16.59375 8.109375 
Q 21.484375 6.890625 26.8125 6.890625 
Q 36.078125 6.890625 40.9375 10.546875 
Q 45.796875 14.203125 45.796875 21.1875 
Q 45.796875 27.640625 41.28125 31.265625 
Q 36.765625 34.90625 28.71875 34.90625 
L 20.21875 34.90625 
L 20.21875 43.015625 
L 29.109375 43.015625 
Q 36.375 43.015625 40.234375 45.921875 
Q 44.09375 48.828125 44.09375 54.296875 
Q 44.09375 59.90625 40.109375 62.90625 
Q 36.140625 65.921875 28.71875 65.921875 
Q 24.65625 65.921875 20.015625 65.03125 
Q 15.375 64.15625 9.8125 62.3125 
L 9.8125 71.09375 
Q 15.4375 72.65625 20.34375 73.4375 
Q 25.25 74.21875 29.59375 74.21875 
Q 40.828125 74.21875 47.359375 69.109375 
Q 53.90625 64.015625 53.90625 55.328125 
Q 53.90625 49.265625 50.4375 45.09375 
Q 46.96875 40.921875 40.578125 39.3125 
" id="BitstreamVeraSans-Roman-33"/>
      </defs>
      <g transform="translate(255.679285714 401.918125)scale(0.12 -0.12)">
       <use xlink:href="#BitstreamVeraSans-Roman-33"/>
       <use x="63.623046875" xlink:href="#BitstreamVeraSans-Roman-30"/>
      </g>
     </g>
    </g>
    <g id="xtick_5">
     <g id="line2d_13">
      <g>
       <use style="stroke:#000000;stroke-width:0.5;" x="327.085714286" xlink:href="#m77f471c77a" y="388.8"/>
      </g>
     </g>
     <g id="line2d_14">
      <g>
       <use style="stroke:#000000;stroke-width:0.5;" x="327.085714286" xlink:href="#m8ec9113079" y="43.2"/>
      </g>
     </g>
     <g id="text_5">
      <!-- 40 -->
      <defs>
       <path d="M 37.796875 64.3125 
L 12.890625 25.390625 
L 37.796875 25.390625 
z
M 35.203125 72.90625 
L 47.609375 72.90625 
L 47.609375 25.390625 
L 58.015625 25.390625 
L 58.015625 17.1875 
L 47.609375 17.1875 
L 47.609375 0 
L 37.796875 0 
L 37.796875 17.1875 
L 4.890625 17.1875 
L 4.890625 26.703125 
z
" id="BitstreamVeraSans-Roman-34"/>
      </defs>
      <g transform="translate(319.450714286 401.918125)scale(0.12 -0.12)">
       <use xlink:href="#BitstreamVeraSans-Roman-34"/>
       <use x="63.623046875" xlink:href="#BitstreamVeraSans-Roman-30"/>
      </g>
     </g>
    </g>
    <g id="xtick_6">
     <g id="line2d_15">
      <g>
       <use style="stroke:#000000;stroke-width:0.5;" x="390.857142857" xlink:href="#m77f471c77a" y="388.8"/>
      </g>
     </g>
     <g id="line2d_16">
      <g>
       <use style="stroke:#000000;stroke-width:0.5;" x="390.857142857" xlink:href="#m8ec9113079" y="43.2"/>
      </g>
     </g>
     <g id="text_6">
      <!-- 50 -->
      <defs>
       <path d="M 10.796875 72.90625 
L 49.515625 72.90625 
L 49.515625 64.59375 
L 19.828125 64.59375 
L 19.828125 46.734375 
Q 21.96875 47.46875 24.109375 47.828125 
Q 26.265625 48.1875 28.421875 48.1875 
Q 40.625 48.1875 47.75 41.5 
Q 54.890625 34.8125 54.890625 23.390625 
Q 54.890625 11.625 47.5625 5.09375 
Q 40.234375 -1.421875 26.90625 -1.421875 
Q 22.3125 -1.421875 17.546875 -0.640625 
Q 12.796875 0.140625 7.71875 1.703125 
L 7.71875 11.625 
Q 12.109375 9.234375 16.796875 8.0625 
Q 21.484375 6.890625 26.703125 6.890625 
Q 35.15625 6.890625 40.078125 11.328125 
Q 45.015625 15.765625 45.015625 23.390625 
Q 45.015625 31 40.078125 35.4375 
Q 35.15625 39.890625 26.703125 39.890625 
Q 22.75 39.890625 18.8125 39.015625 
Q 14.890625 38.140625 10.796875 36.28125 
z
" id="BitstreamVeraSans-Roman-35"/>
      </defs>
      <g transform="translate(383.222142857 401.918125)scale(0.12 -0.12)">
       <use xlink:href="#BitstreamVeraSans-Roman-35"/>
       <use x="63.623046875" xlink:href="#BitstreamVeraSans-Roman-30"/>
      </g>
     </g>
    </g>
    <g id="xtick_7">
     <g id="line2d_17">
      <g>
       <use style="stroke:#000000;stroke-width:0.5;" x="454.628571429" xlink:href="#m77f471c77a" y="388.8"/>
      </g>
     </g>
     <g id="line2d_18">
      <g>
       <use style="stroke:#000000;stroke-width:0.5;" x="454.628571429" xlink:href="#m8ec9113079" y="43.2"/>
      </g>
     </g>
     <g id="text_7">
      <!-- 60 -->
      <defs>
       <path d="M 33.015625 40.375 
Q 26.375 40.375 22.484375 35.828125 
Q 18.609375 31.296875 18.609375 23.390625 
Q 18.609375 15.53125 22.484375 10.953125 
Q 26.375 6.390625 33.015625 6.390625 
Q 39.65625 6.390625 43.53125 10.953125 
Q 47.40625 15.53125 47.40625 23.390625 
Q 47.40625 31.296875 43.53125 35.828125 
Q 39.65625 40.375 33.015625 40.375 
M 52.59375 71.296875 
L 52.59375 62.3125 
Q 48.875 64.0625 45.09375 64.984375 
Q 41.3125 65.921875 37.59375 65.921875 
Q 27.828125 65.921875 22.671875 59.328125 
Q 17.53125 52.734375 16.796875 39.40625 
Q 19.671875 43.65625 24.015625 45.921875 
Q 28.375 48.1875 33.59375 48.1875 
Q 44.578125 48.1875 50.953125 41.515625 
Q 57.328125 34.859375 57.328125 23.390625 
Q 57.328125 12.15625 50.6875 5.359375 
Q 44.046875 -1.421875 33.015625 -1.421875 
Q 20.359375 -1.421875 13.671875 8.265625 
Q 6.984375 17.96875 6.984375 36.375 
Q 6.984375 53.65625 15.1875 63.9375 
Q 23.390625 74.21875 37.203125 74.21875 
Q 40.921875 74.21875 44.703125 73.484375 
Q 48.484375 72.75 52.59375 71.296875 
" id="BitstreamVeraSans-Roman-36"/>
      </defs>
      <g transform="translate(446.993571429 401.918125)scale(0.12 -0.12)">
       <use xlink:href="#BitstreamVeraSans-Roman-36"/>
       <use x="63.623046875" xlink:href="#BitstreamVeraSans-Roman-30"/>
      </g>
     </g>
    </g>
    <g id="xtick_8">
     <g id="line2d_19">
      <g>
       <use style="stroke:#000000;stroke-width:0.5;" x="518.4" xlink:href="#m77f471c77a" y="388.8"/>
      </g>
     </g>
     <g id="line2d_20">
      <g>
       <use style="stroke:#000000;stroke-width:0.5;" x="518.4" xlink:href="#m8ec9113079" y="43.2"/>
      </g>
     </g>
     <g id="text_8">
      <!-- 70 -->
      <defs>
       <path d="M 8.203125 72.90625 
L 55.078125 72.90625 
L 55.078125 68.703125 
L 28.609375 0 
L 18.3125 0 
L 43.21875 64.59375 
L 8.203125 64.59375 
z
" id="BitstreamVeraSans-Roman-37"/>
      </defs>
      <g transform="translate(510.765 401.918125)scale(0.12 -0.12)">
       <use xlink:href="#BitstreamVeraSans-Roman-37"/>
       <use x="63.623046875" xlink:href="#BitstreamVeraSans-Roman-30"/>
      </g>
     </g>
    </g>
    <g id="text_9">
     <!-- Radius (nm) -->
     <defs>
      <path id="BitstreamVeraSans-Roman-20"/>
      <path d="M 54.890625 33.015625 
L 54.890625 0 
L 45.90625 0 
L 45.90625 32.71875 
Q 45.90625 40.484375 42.875 44.328125 
Q 39.84375 48.1875 33.796875 48.1875 
Q 26.515625 48.1875 22.3125 43.546875 
Q 18.109375 38.921875 18.109375 30.90625 
L 18.109375 0 
L 9.078125 0 
L 9.078125 54.6875 
L 18.109375 54.6875 
L 18.109375 46.1875 
Q 21.34375 51.125 25.703125 53.5625 
Q 30.078125 56 35.796875 56 
Q 45.21875 56 50.046875 50.171875 
Q 54.890625 44.34375 54.890625 33.015625 
" id="BitstreamVeraSans-Roman-6e"/>
      <path d="M 31 75.875 
Q 24.46875 64.65625 21.28125 53.65625 
Q 18.109375 42.671875 18.109375 31.390625 
Q 18.109375 20.125 21.3125 9.0625 
Q 24.515625 -2 31 -13.1875 
L 23.1875 -13.1875 
Q 15.875 -1.703125 12.234375 9.375 
Q 8.59375 20.453125 8.59375 31.390625 
Q 8.59375 42.28125 12.203125 53.3125 
Q 15.828125 64.359375 23.1875 75.875 
z
" id="BitstreamVeraSans-Roman-28"/>
      <path d="M 8.015625 75.875 
L 15.828125 75.875 
Q 23.140625 64.359375 26.78125 53.3125 
Q 30.421875 42.28125 30.421875 31.390625 
Q 30.421875 20.453125 26.78125 9.375 
Q 23.140625 -1.703125 15.828125 -13.1875 
L 8.015625 -13.1875 
Q 14.5 -2 17.703125 9.0625 
Q 20.90625 20.125 20.90625 31.390625 
Q 20.90625 42.671875 17.703125 53.65625 
Q 14.5 64.65625 8.015625 75.875 
" id="BitstreamVeraSans-Roman-29"/>
      <path d="M 44.390625 34.1875 
Q 47.5625 33.109375 50.5625 29.59375 
Q 53.5625 26.078125 56.59375 19.921875 
L 66.609375 0 
L 56 0 
L 46.6875 18.703125 
Q 43.0625 26.03125 39.671875 28.421875 
Q 36.28125 30.8125 30.421875 30.8125 
L 19.671875 30.8125 
L 19.671875 0 
L 9.8125 0 
L 9.8125 72.90625 
L 32.078125 72.90625 
Q 44.578125 72.90625 50.734375 67.671875 
Q 56.890625 62.453125 56.890625 51.90625 
Q 56.890625 45.015625 53.6875 40.46875 
Q 50.484375 35.9375 44.390625 34.1875 
M 19.671875 64.796875 
L 19.671875 38.921875 
L 32.078125 38.921875 
Q 39.203125 38.921875 42.84375 42.21875 
Q 46.484375 45.515625 46.484375 51.90625 
Q 46.484375 58.296875 42.84375 61.546875 
Q 39.203125 64.796875 32.078125 64.796875 
z
" id="BitstreamVeraSans-Roman-52"/>
      <path d="M 9.421875 54.6875 
L 18.40625 54.6875 
L 18.40625 0 
L 9.421875 0 
z
M 9.421875 75.984375 
L 18.40625 75.984375 
L 18.40625 64.59375 
L 9.421875 64.59375 
z
" id="BitstreamVeraSans-Roman-69"/>
      <path d="M 52 44.1875 
Q 55.375 50.25 60.0625 53.125 
Q 64.75 56 71.09375 56 
Q 79.640625 56 84.28125 50.015625 
Q 88.921875 44.046875 88.921875 33.015625 
L 88.921875 0 
L 79.890625 0 
L 79.890625 32.71875 
Q 79.890625 40.578125 77.09375 44.375 
Q 74.3125 48.1875 68.609375 48.1875 
Q 61.625 48.1875 57.5625 43.546875 
Q 53.515625 38.921875 53.515625 30.90625 
L 53.515625 0 
L 44.484375 0 
L 44.484375 32.71875 
Q 44.484375 40.625 41.703125 44.40625 
Q 38.921875 48.1875 33.109375 48.1875 
Q 26.21875 48.1875 22.15625 43.53125 
Q 18.109375 38.875 18.109375 30.90625 
L 18.109375 0 
L 9.078125 0 
L 9.078125 54.6875 
L 18.109375 54.6875 
L 18.109375 46.1875 
Q 21.1875 51.21875 25.484375 53.609375 
Q 29.78125 56 35.6875 56 
Q 41.65625 56 45.828125 52.96875 
Q 50 49.953125 52 44.1875 
" id="BitstreamVeraSans-Roman-6d"/>
      <path d="M 45.40625 46.390625 
L 45.40625 75.984375 
L 54.390625 75.984375 
L 54.390625 0 
L 45.40625 0 
L 45.40625 8.203125 
Q 42.578125 3.328125 38.25 0.953125 
Q 33.9375 -1.421875 27.875 -1.421875 
Q 17.96875 -1.421875 11.734375 6.484375 
Q 5.515625 14.40625 5.515625 27.296875 
Q 5.515625 40.1875 11.734375 48.09375 
Q 17.96875 56 27.875 56 
Q 33.9375 56 38.25 53.625 
Q 42.578125 51.265625 45.40625 46.390625 
M 14.796875 27.296875 
Q 14.796875 17.390625 18.875 11.75 
Q 22.953125 6.109375 30.078125 6.109375 
Q 37.203125 6.109375 41.296875 11.75 
Q 45.40625 17.390625 45.40625 27.296875 
Q 45.40625 37.203125 41.296875 42.84375 
Q 37.203125 48.484375 30.078125 48.484375 
Q 22.953125 48.484375 18.875 42.84375 
Q 14.796875 37.203125 14.796875 27.296875 
" id="BitstreamVeraSans-Roman-64"/>
      <path d="M 8.5 21.578125 
L 8.5 54.6875 
L 17.484375 54.6875 
L 17.484375 21.921875 
Q 17.484375 14.15625 20.5 10.265625 
Q 23.53125 6.390625 29.59375 6.390625 
Q 36.859375 6.390625 41.078125 11.03125 
Q 45.3125 15.671875 45.3125 23.6875 
L 45.3125 54.6875 
L 54.296875 54.6875 
L 54.296875 0 
L 45.3125 0 
L 45.3125 8.40625 
Q 42.046875 3.421875 37.71875 1 
Q 33.40625 -1.421875 27.6875 -1.421875 
Q 18.265625 -1.421875 13.375 4.4375 
Q 8.5 10.296875 8.5 21.578125 
" id="BitstreamVeraSans-Roman-75"/>
      <path d="M 34.28125 27.484375 
Q 23.390625 27.484375 19.1875 25 
Q 14.984375 22.515625 14.984375 16.5 
Q 14.984375 11.71875 18.140625 8.90625 
Q 21.296875 6.109375 26.703125 6.109375 
Q 34.1875 6.109375 38.703125 11.40625 
Q 43.21875 16.703125 43.21875 25.484375 
L 43.21875 27.484375 
z
M 52.203125 31.203125 
L 52.203125 0 
L 43.21875 0 
L 43.21875 8.296875 
Q 40.140625 3.328125 35.546875 0.953125 
Q 30.953125 -1.421875 24.3125 -1.421875 
Q 15.921875 -1.421875 10.953125 3.296875 
Q 6 8.015625 6 15.921875 
Q 6 25.140625 12.171875 29.828125 
Q 18.359375 34.515625 30.609375 34.515625 
L 43.21875 34.515625 
L 43.21875 35.40625 
Q 43.21875 41.609375 39.140625 45 
Q 35.0625 48.390625 27.6875 48.390625 
Q 23 48.390625 18.546875 47.265625 
Q 14.109375 46.140625 10.015625 43.890625 
L 10.015625 52.203125 
Q 14.9375 54.109375 19.578125 55.046875 
Q 24.21875 56 28.609375 56 
Q 40.484375 56 46.34375 49.84375 
Q 52.203125 43.703125 52.203125 31.203125 
" id="BitstreamVeraSans-Roman-61"/>
      <path d="M 44.28125 53.078125 
L 44.28125 44.578125 
Q 40.484375 46.53125 36.375 47.5 
Q 32.28125 48.484375 27.875 48.484375 
Q 21.1875 48.484375 17.84375 46.4375 
Q 14.5 44.390625 14.5 40.28125 
Q 14.5 37.15625 16.890625 35.375 
Q 19.28125 33.59375 26.515625 31.984375 
L 29.59375 31.296875 
Q 39.15625 29.25 43.1875 25.515625 
Q 47.21875 21.78125 47.21875 15.09375 
Q 47.21875 7.46875 41.1875 3.015625 
Q 35.15625 -1.421875 24.609375 -1.421875 
Q 20.21875 -1.421875 15.453125 -0.5625 
Q 10.6875 0.296875 5.421875 2 
L 5.421875 11.28125 
Q 10.40625 8.6875 15.234375 7.390625 
Q 20.0625 6.109375 24.8125 6.109375 
Q 31.15625 6.109375 34.5625 8.28125 
Q 37.984375 10.453125 37.984375 14.40625 
Q 37.984375 18.0625 35.515625 20.015625 
Q 33.0625 21.96875 24.703125 23.78125 
L 21.578125 24.515625 
Q 13.234375 26.265625 9.515625 29.90625 
Q 5.8125 33.546875 5.8125 39.890625 
Q 5.8125 47.609375 11.28125 51.796875 
Q 16.75 56 26.8125 56 
Q 31.78125 56 36.171875 55.265625 
Q 40.578125 54.546875 44.28125 53.078125 
" id="BitstreamVeraSans-Roman-73"/>
     </defs>
     <g transform="translate(258.71625 418.531875)scale(0.12 -0.12)">
      <use xlink:href="#BitstreamVeraSans-Roman-52"/>
      <use x="69.451171875" xlink:href="#BitstreamVeraSans-Roman-61"/>
      <use x="130.73046875" xlink:href="#BitstreamVeraSans-Roman-64"/>
      <use x="194.20703125" xlink:href="#BitstreamVeraSans-Roman-69"/>
      <use x="221.990234375" xlink:href="#BitstreamVeraSans-Roman-75"/>
      <use x="285.369140625" xlink:href="#BitstreamVeraSans-Roman-73"/>
      <use x="337.46875" xlink:href="#BitstreamVeraSans-Roman-20"/>
      <use x="369.255859375" xlink:href="#BitstreamVeraSans-Roman-28"/>
      <use x="408.26953125" xlink:href="#BitstreamVeraSans-Roman-6e"/>
      <use x="471.6484375" xlink:href="#BitstreamVeraSans-Roman-6d"/>
      <use x="569.060546875" xlink:href="#BitstreamVeraSans-Roman-29"/>
     </g>
    </g>
   </g>
   <g id="matplotlib.axis_2">
    <g id="ytick_1">
     <g id="line2d_21">
      <defs>
       <path d="M 0 0 
L 4 0 
" id="mca43adbd96" style="stroke:#000000;stroke-width:0.5;"/>
      </defs>
      <g>
       <use style="stroke:#000000;stroke-width:0.5;" x="72.0" xlink:href="#mca43adbd96" y="364.114285714"/>
      </g>
     </g>
     <g id="line2d_22">
      <defs>
       <path d="M 0 0 
L -4 0 
" id="m1b71f32fd2" style="stroke:#000000;stroke-width:0.5;"/>
      </defs>
      <g>
       <use style="stroke:#000000;stroke-width:0.5;" x="518.4" xlink:href="#m1b71f32fd2" y="364.114285714"/>
      </g>
     </g>
     <g id="text_10">
      <!-- −0.2 -->
      <defs>
       <path d="M 10.59375 35.5 
L 73.1875 35.5 
L 73.1875 27.203125 
L 10.59375 27.203125 
z
" id="BitstreamVeraSans-Roman-2212"/>
       <path d="M 10.6875 12.40625 
L 21 12.40625 
L 21 0 
L 10.6875 0 
z
" id="BitstreamVeraSans-Roman-2e"/>
      </defs>
      <g transform="translate(38.860625 367.425535714)scale(0.12 -0.12)">
       <use xlink:href="#BitstreamVeraSans-Roman-2212"/>
       <use x="83.7890625" xlink:href="#BitstreamVeraSans-Roman-30"/>
       <use x="147.412109375" xlink:href="#BitstreamVeraSans-Roman-2e"/>
       <use x="179.19921875" xlink:href="#BitstreamVeraSans-Roman-32"/>
      </g>
     </g>
    </g>
    <g id="ytick_2">
     <g id="line2d_23">
      <g>
       <use style="stroke:#000000;stroke-width:0.5;" x="72.0" xlink:href="#mca43adbd96" y="314.742857143"/>
      </g>
     </g>
     <g id="line2d_24">
      <g>
       <use style="stroke:#000000;stroke-width:0.5;" x="518.4" xlink:href="#m1b71f32fd2" y="314.742857143"/>
      </g>
     </g>
     <g id="text_11">
      <!-- 0.0 -->
      <g transform="translate(48.91625 318.054107143)scale(0.12 -0.12)">
       <use xlink:href="#BitstreamVeraSans-Roman-30"/>
       <use x="63.623046875" xlink:href="#BitstreamVeraSans-Roman-2e"/>
       <use x="95.41015625" xlink:href="#BitstreamVeraSans-Roman-30"/>
      </g>
     </g>
    </g>
    <g id="ytick_3">
     <g id="line2d_25">
      <g>
       <use style="stroke:#000000;stroke-width:0.5;" x="72.0" xlink:href="#mca43adbd96" y="265.371428571"/>
      </g>
     </g>
     <g id="line2d_26">
      <g>
       <use style="stroke:#000000;stroke-width:0.5;" x="518.4" xlink:href="#m1b71f32fd2" y="265.371428571"/>
      </g>
     </g>
     <g id="text_12">
      <!-- 0.2 -->
      <g transform="translate(48.91625 268.682678571)scale(0.12 -0.12)">
       <use xlink:href="#BitstreamVeraSans-Roman-30"/>
       <use x="63.623046875" xlink:href="#BitstreamVeraSans-Roman-2e"/>
       <use x="95.41015625" xlink:href="#BitstreamVeraSans-Roman-32"/>
      </g>
     </g>
    </g>
    <g id="ytick_4">
     <g id="line2d_27">
      <g>
       <use style="stroke:#000000;stroke-width:0.5;" x="72.0" xlink:href="#mca43adbd96" y="216.0"/>
      </g>
     </g>
     <g id="line2d_28">
      <g>
       <use style="stroke:#000000;stroke-width:0.5;" x="518.4" xlink:href="#m1b71f32fd2" y="216.0"/>
      </g>
     </g>
     <g id="text_13">
      <!-- 0.4 -->
      <g transform="translate(48.91625 219.31125)scale(0.12 -0.12)">
       <use xlink:href="#BitstreamVeraSans-Roman-30"/>
       <use x="63.623046875" xlink:href="#BitstreamVeraSans-Roman-2e"/>
       <use x="95.41015625" xlink:href="#BitstreamVeraSans-Roman-34"/>
      </g>
     </g>
    </g>
    <g id="ytick_5">
     <g id="line2d_29">
      <g>
       <use style="stroke:#000000;stroke-width:0.5;" x="72.0" xlink:href="#mca43adbd96" y="166.628571429"/>
      </g>
     </g>
     <g id="line2d_30">
      <g>
       <use style="stroke:#000000;stroke-width:0.5;" x="518.4" xlink:href="#m1b71f32fd2" y="166.628571429"/>
      </g>
     </g>
     <g id="text_14">
      <!-- 0.6 -->
      <g transform="translate(48.91625 169.939821429)scale(0.12 -0.12)">
       <use xlink:href="#BitstreamVeraSans-Roman-30"/>
       <use x="63.623046875" xlink:href="#BitstreamVeraSans-Roman-2e"/>
       <use x="95.41015625" xlink:href="#BitstreamVeraSans-Roman-36"/>
      </g>
     </g>
    </g>
    <g id="ytick_6">
     <g id="line2d_31">
      <g>
       <use style="stroke:#000000;stroke-width:0.5;" x="72.0" xlink:href="#mca43adbd96" y="117.257142857"/>
      </g>
     </g>
     <g id="line2d_32">
      <g>
       <use style="stroke:#000000;stroke-width:0.5;" x="518.4" xlink:href="#m1b71f32fd2" y="117.257142857"/>
      </g>
     </g>
     <g id="text_15">
      <!-- 0.8 -->
      <defs>
       <path d="M 31.78125 34.625 
Q 24.75 34.625 20.71875 30.859375 
Q 16.703125 27.09375 16.703125 20.515625 
Q 16.703125 13.921875 20.71875 10.15625 
Q 24.75 6.390625 31.78125 6.390625 
Q 38.8125 6.390625 42.859375 10.171875 
Q 46.921875 13.96875 46.921875 20.515625 
Q 46.921875 27.09375 42.890625 30.859375 
Q 38.875 34.625 31.78125 34.625 
M 21.921875 38.8125 
Q 15.578125 40.375 12.03125 44.71875 
Q 8.5 49.078125 8.5 55.328125 
Q 8.5 64.0625 14.71875 69.140625 
Q 20.953125 74.21875 31.78125 74.21875 
Q 42.671875 74.21875 48.875 69.140625 
Q 55.078125 64.0625 55.078125 55.328125 
Q 55.078125 49.078125 51.53125 44.71875 
Q 48 40.375 41.703125 38.8125 
Q 48.828125 37.15625 52.796875 32.3125 
Q 56.78125 27.484375 56.78125 20.515625 
Q 56.78125 9.90625 50.3125 4.234375 
Q 43.84375 -1.421875 31.78125 -1.421875 
Q 19.734375 -1.421875 13.25 4.234375 
Q 6.78125 9.90625 6.78125 20.515625 
Q 6.78125 27.484375 10.78125 32.3125 
Q 14.796875 37.15625 21.921875 38.8125 
M 18.3125 54.390625 
Q 18.3125 48.734375 21.84375 45.5625 
Q 25.390625 42.390625 31.78125 42.390625 
Q 38.140625 42.390625 41.71875 45.5625 
Q 45.3125 48.734375 45.3125 54.390625 
Q 45.3125 60.0625 41.71875 63.234375 
Q 38.140625 66.40625 31.78125 66.40625 
Q 25.390625 66.40625 21.84375 63.234375 
Q 18.3125 60.0625 18.3125 54.390625 
" id="BitstreamVeraSans-Roman-38"/>
      </defs>
      <g transform="translate(48.91625 120.568392857)scale(0.12 -0.12)">
       <use xlink:href="#BitstreamVeraSans-Roman-30"/>
       <use x="63.623046875" xlink:href="#BitstreamVeraSans-Roman-2e"/>
       <use x="95.41015625" xlink:href="#BitstreamVeraSans-Roman-38"/>
      </g>
     </g>
    </g>
    <g id="ytick_7">
     <g id="line2d_33">
      <g>
       <use style="stroke:#000000;stroke-width:0.5;" x="72.0" xlink:href="#mca43adbd96" y="67.8857142857"/>
      </g>
     </g>
     <g id="line2d_34">
      <g>
       <use style="stroke:#000000;stroke-width:0.5;" x="518.4" xlink:href="#m1b71f32fd2" y="67.8857142857"/>
      </g>
     </g>
     <g id="text_16">
      <!-- 1.0 -->
      <g transform="translate(48.91625 71.1969642857)scale(0.12 -0.12)">
       <use xlink:href="#BitstreamVeraSans-Roman-31"/>
       <use x="63.623046875" xlink:href="#BitstreamVeraSans-Roman-2e"/>
       <use x="95.41015625" xlink:href="#BitstreamVeraSans-Roman-30"/>
      </g>
     </g>
    </g>
    <g id="text_17">
     <!-- NRLD -->
     <defs>
      <path d="M 9.8125 72.90625 
L 23.09375 72.90625 
L 55.421875 11.921875 
L 55.421875 72.90625 
L 64.984375 72.90625 
L 64.984375 0 
L 51.703125 0 
L 19.390625 60.984375 
L 19.390625 0 
L 9.8125 0 
z
" id="BitstreamVeraSans-Roman-4e"/>
      <path d="M 19.671875 64.796875 
L 19.671875 8.109375 
L 31.59375 8.109375 
Q 46.6875 8.109375 53.6875 14.9375 
Q 60.6875 21.78125 60.6875 36.53125 
Q 60.6875 51.171875 53.6875 57.984375 
Q 46.6875 64.796875 31.59375 64.796875 
z
M 9.8125 72.90625 
L 30.078125 72.90625 
Q 51.265625 72.90625 61.171875 64.09375 
Q 71.09375 55.28125 71.09375 36.53125 
Q 71.09375 17.671875 61.125 8.828125 
Q 51.171875 0 30.078125 0 
L 9.8125 0 
z
" id="BitstreamVeraSans-Roman-44"/>
      <path d="M 9.8125 72.90625 
L 19.671875 72.90625 
L 19.671875 8.296875 
L 55.171875 8.296875 
L 55.171875 0 
L 9.8125 0 
z
" id="BitstreamVeraSans-Roman-4c"/>
     </defs>
     <g transform="translate(31.365 232.6209375)rotate(-90.0)scale(0.12 -0.12)">
      <use xlink:href="#BitstreamVeraSans-Roman-4e"/>
      <use x="74.8046875" xlink:href="#BitstreamVeraSans-Roman-52"/>
      <use x="144.287109375" xlink:href="#BitstreamVeraSans-Roman-4c"/>
      <use x="200.0" xlink:href="#BitstreamVeraSans-Roman-44"/>
     </g>
    </g>
   </g>
   <g id="text_18">
    <!-- Morsali model - Global fitting -->
    <defs>
     <path d="M 9.8125 72.90625 
L 24.515625 72.90625 
L 43.109375 23.296875 
L 61.8125 72.90625 
L 76.515625 72.90625 
L 76.515625 0 
L 66.890625 0 
L 66.890625 64.015625 
L 48.09375 14.015625 
L 38.1875 14.015625 
L 19.390625 64.015625 
L 19.390625 0 
L 9.8125 0 
z
" id="BitstreamVeraSans-Roman-4d"/>
     <path d="M 30.609375 48.390625 
Q 23.390625 48.390625 19.1875 42.75 
Q 14.984375 37.109375 14.984375 27.296875 
Q 14.984375 17.484375 19.15625 11.84375 
Q 23.34375 6.203125 30.609375 6.203125 
Q 37.796875 6.203125 41.984375 11.859375 
Q 46.1875 17.53125 46.1875 27.296875 
Q 46.1875 37.015625 41.984375 42.703125 
Q 37.796875 48.390625 30.609375 48.390625 
M 30.609375 56 
Q 42.328125 56 49.015625 48.375 
Q 55.71875 40.765625 55.71875 27.296875 
Q 55.71875 13.875 49.015625 6.21875 
Q 42.328125 -1.421875 30.609375 -1.421875 
Q 18.84375 -1.421875 12.171875 6.21875 
Q 5.515625 13.875 5.515625 27.296875 
Q 5.515625 40.765625 12.171875 48.375 
Q 18.84375 56 30.609375 56 
" id="BitstreamVeraSans-Roman-6f"/>
     <path d="M 9.421875 75.984375 
L 18.40625 75.984375 
L 18.40625 0 
L 9.421875 0 
z
" id="BitstreamVeraSans-Roman-6c"/>
     <path d="M 59.515625 10.40625 
L 59.515625 29.984375 
L 43.40625 29.984375 
L 43.40625 38.09375 
L 69.28125 38.09375 
L 69.28125 6.78125 
Q 63.578125 2.734375 56.6875 0.65625 
Q 49.8125 -1.421875 42 -1.421875 
Q 24.90625 -1.421875 15.25 8.5625 
Q 5.609375 18.5625 5.609375 36.375 
Q 5.609375 54.25 15.25 64.234375 
Q 24.90625 74.21875 42 74.21875 
Q 49.125 74.21875 55.546875 72.453125 
Q 61.96875 70.703125 67.390625 67.28125 
L 67.390625 56.78125 
Q 61.921875 61.421875 55.765625 63.765625 
Q 49.609375 66.109375 42.828125 66.109375 
Q 29.4375 66.109375 22.71875 58.640625 
Q 16.015625 51.171875 16.015625 36.375 
Q 16.015625 21.625 22.71875 14.15625 
Q 29.4375 6.6875 42.828125 6.6875 
Q 48.046875 6.6875 52.140625 7.59375 
Q 56.25 8.5 59.515625 10.40625 
" id="BitstreamVeraSans-Roman-47"/>
     <path d="M 4.890625 31.390625 
L 31.203125 31.390625 
L 31.203125 23.390625 
L 4.890625 23.390625 
z
" id="BitstreamVeraSans-Roman-2d"/>
     <path d="M 56.203125 29.59375 
L 56.203125 25.203125 
L 14.890625 25.203125 
Q 15.484375 15.921875 20.484375 11.0625 
Q 25.484375 6.203125 34.421875 6.203125 
Q 39.59375 6.203125 44.453125 7.46875 
Q 49.3125 8.734375 54.109375 11.28125 
L 54.109375 2.78125 
Q 49.265625 0.734375 44.1875 -0.34375 
Q 39.109375 -1.421875 33.890625 -1.421875 
Q 20.796875 -1.421875 13.15625 6.1875 
Q 5.515625 13.8125 5.515625 26.8125 
Q 5.515625 40.234375 12.765625 48.109375 
Q 20.015625 56 32.328125 56 
Q 43.359375 56 49.78125 48.890625 
Q 56.203125 41.796875 56.203125 29.59375 
M 47.21875 32.234375 
Q 47.125 39.59375 43.09375 43.984375 
Q 39.0625 48.390625 32.421875 48.390625 
Q 24.90625 48.390625 20.390625 44.140625 
Q 15.875 39.890625 15.1875 32.171875 
z
" id="BitstreamVeraSans-Roman-65"/>
     <path d="M 18.3125 70.21875 
L 18.3125 54.6875 
L 36.8125 54.6875 
L 36.8125 47.703125 
L 18.3125 47.703125 
L 18.3125 18.015625 
Q 18.3125 11.328125 20.140625 9.421875 
Q 21.96875 7.515625 27.59375 7.515625 
L 36.8125 7.515625 
L 36.8125 0 
L 27.59375 0 
Q 17.1875 0 13.234375 3.875 
Q 9.28125 7.765625 9.28125 18.015625 
L 9.28125 47.703125 
L 2.6875 47.703125 
L 2.6875 54.6875 
L 9.28125 54.6875 
L 9.28125 70.21875 
z
" id="BitstreamVeraSans-Roman-74"/>
     <path d="M 37.109375 75.984375 
L 37.109375 68.5 
L 28.515625 68.5 
Q 23.6875 68.5 21.796875 66.546875 
Q 19.921875 64.59375 19.921875 59.515625 
L 19.921875 54.6875 
L 34.71875 54.6875 
L 34.71875 47.703125 
L 19.921875 47.703125 
L 19.921875 0 
L 10.890625 0 
L 10.890625 47.703125 
L 2.296875 47.703125 
L 2.296875 54.6875 
L 10.890625 54.6875 
L 10.890625 58.5 
Q 10.890625 67.625 15.140625 71.796875 
Q 19.390625 75.984375 28.609375 75.984375 
z
" id="BitstreamVeraSans-Roman-66"/>
     <path d="M 41.109375 46.296875 
Q 39.59375 47.171875 37.8125 47.578125 
Q 36.03125 48 33.890625 48 
Q 26.265625 48 22.1875 43.046875 
Q 18.109375 38.09375 18.109375 28.8125 
L 18.109375 0 
L 9.078125 0 
L 9.078125 54.6875 
L 18.109375 54.6875 
L 18.109375 46.1875 
Q 20.953125 51.171875 25.484375 53.578125 
Q 30.03125 56 36.53125 56 
Q 37.453125 56 38.578125 55.875 
Q 39.703125 55.765625 41.0625 55.515625 
z
" id="BitstreamVeraSans-Roman-72"/>
     <path d="M 45.40625 27.984375 
Q 45.40625 37.75 41.375 43.109375 
Q 37.359375 48.484375 30.078125 48.484375 
Q 22.859375 48.484375 18.828125 43.109375 
Q 14.796875 37.75 14.796875 27.984375 
Q 14.796875 18.265625 18.828125 12.890625 
Q 22.859375 7.515625 30.078125 7.515625 
Q 37.359375 7.515625 41.375 12.890625 
Q 45.40625 18.265625 45.40625 27.984375 
M 54.390625 6.78125 
Q 54.390625 -7.171875 48.1875 -13.984375 
Q 42 -20.796875 29.203125 -20.796875 
Q 24.46875 -20.796875 20.265625 -20.09375 
Q 16.0625 -19.390625 12.109375 -17.921875 
L 12.109375 -9.1875 
Q 16.0625 -11.328125 19.921875 -12.34375 
Q 23.78125 -13.375 27.78125 -13.375 
Q 36.625 -13.375 41.015625 -8.765625 
Q 45.40625 -4.15625 45.40625 5.171875 
L 45.40625 9.625 
Q 42.625 4.78125 38.28125 2.390625 
Q 33.9375 0 27.875 0 
Q 17.828125 0 11.671875 7.65625 
Q 5.515625 15.328125 5.515625 27.984375 
Q 5.515625 40.671875 11.671875 48.328125 
Q 17.828125 56 27.875 56 
Q 33.9375 56 38.28125 53.609375 
Q 42.625 51.21875 45.40625 46.390625 
L 45.40625 54.6875 
L 54.390625 54.6875 
z
" id="BitstreamVeraSans-Roman-67"/>
     <path d="M 48.6875 27.296875 
Q 48.6875 37.203125 44.609375 42.84375 
Q 40.53125 48.484375 33.40625 48.484375 
Q 26.265625 48.484375 22.1875 42.84375 
Q 18.109375 37.203125 18.109375 27.296875 
Q 18.109375 17.390625 22.1875 11.75 
Q 26.265625 6.109375 33.40625 6.109375 
Q 40.53125 6.109375 44.609375 11.75 
Q 48.6875 17.390625 48.6875 27.296875 
M 18.109375 46.390625 
Q 20.953125 51.265625 25.265625 53.625 
Q 29.59375 56 35.59375 56 
Q 45.5625 56 51.78125 48.09375 
Q 58.015625 40.1875 58.015625 27.296875 
Q 58.015625 14.40625 51.78125 6.484375 
Q 45.5625 -1.421875 35.59375 -1.421875 
Q 29.59375 -1.421875 25.265625 0.953125 
Q 20.953125 3.328125 18.109375 8.203125 
L 18.109375 0 
L 9.078125 0 
L 9.078125 75.984375 
L 18.109375 75.984375 
z
" id="BitstreamVeraSans-Roman-62"/>
    </defs>
    <g transform="translate(191.005875 38.2)scale(0.144 -0.144)">
     <use xlink:href="#BitstreamVeraSans-Roman-4d"/>
     <use x="86.279296875" xlink:href="#BitstreamVeraSans-Roman-6f"/>
     <use x="147.4609375" xlink:href="#BitstreamVeraSans-Roman-72"/>
     <use x="188.57421875" xlink:href="#BitstreamVeraSans-Roman-73"/>
     <use x="240.673828125" xlink:href="#BitstreamVeraSans-Roman-61"/>
     <use x="301.953125" xlink:href="#BitstreamVeraSans-Roman-6c"/>
     <use x="329.736328125" xlink:href="#BitstreamVeraSans-Roman-69"/>
     <use x="357.51953125" xlink:href="#BitstreamVeraSans-Roman-20"/>
     <use x="389.306640625" xlink:href="#BitstreamVeraSans-Roman-6d"/>
     <use x="486.71875" xlink:href="#BitstreamVeraSans-Roman-6f"/>
     <use x="547.900390625" xlink:href="#BitstreamVeraSans-Roman-64"/>
     <use x="611.376953125" xlink:href="#BitstreamVeraSans-Roman-65"/>
     <use x="672.900390625" xlink:href="#BitstreamVeraSans-Roman-6c"/>
     <use x="700.68359375" xlink:href="#BitstreamVeraSans-Roman-20"/>
     <use x="732.470703125" xlink:href="#BitstreamVeraSans-Roman-2d"/>
     <use x="768.5546875" xlink:href="#BitstreamVeraSans-Roman-20"/>
     <use x="800.341796875" xlink:href="#BitstreamVeraSans-Roman-47"/>
     <use x="877.83203125" xlink:href="#BitstreamVeraSans-Roman-6c"/>
     <use x="905.615234375" xlink:href="#BitstreamVeraSans-Roman-6f"/>
     <use x="966.796875" xlink:href="#BitstreamVeraSans-Roman-62"/>
     <use x="1030.2734375" xlink:href="#BitstreamVeraSans-Roman-61"/>
     <use x="1091.55273438" xlink:href="#BitstreamVeraSans-Roman-6c"/>
     <use x="1119.3359375" xlink:href="#BitstreamVeraSans-Roman-20"/>
     <use x="1151.12304688" xlink:href="#BitstreamVeraSans-Roman-66"/>
     <use x="1186.328125" xlink:href="#BitstreamVeraSans-Roman-69"/>
     <use x="1214.11132812" xlink:href="#BitstreamVeraSans-Roman-74"/>
     <use x="1253.3203125" xlink:href="#BitstreamVeraSans-Roman-74"/>
     <use x="1292.52929688" xlink:href="#BitstreamVeraSans-Roman-69"/>
     <use x="1320.3125" xlink:href="#BitstreamVeraSans-Roman-6e"/>
     <use x="1383.69140625" xlink:href="#BitstreamVeraSans-Roman-67"/>
    </g>
   </g>
  </g>
 </g>
 <defs>
  <clipPath id="p2b386d653f">
   <rect height="345.6" width="446.4" x="72.0" y="43.2"/>
  </clipPath>
 </defs>
</svg>
