<?xml version="1.0" encoding="utf-8" standalone="no"?>
<!DOCTYPE svg PUBLIC "-//W3C//DTD SVG 1.1//EN"
  "http://www.w3.org/Graphics/SVG/1.1/DTD/svg11.dtd">
<!-- Created with matplotlib (http://matplotlib.org/) -->
<svg height="432pt" version="1.1" viewBox="0 0 576 432" width="576pt" xmlns="http://www.w3.org/2000/svg" xmlns:xlink="http://www.w3.org/1999/xlink">
 <defs>
  <style type="text/css">
*{stroke-linecap:butt;stroke-linejoin:round;stroke-miterlimit:100000;}
  </style>
 </defs>
 <g id="figure_1">
  <g id="patch_1">
   <path d="M 0 432 
L 576 432 
L 576 0 
L 0 0 
z
" style="fill:#ffffff;"/>
  </g>
  <g id="axes_1">
   <g id="patch_2">
    <path d="M 72 388.8 
L 518.4 388.8 
L 518.4 43.2 
L 72 43.2 
z
" style="fill:#ffffff;"/>
   </g>
   <g id="PolyCollection_1">
    <defs>
     <path d="M 75.215366 -43.2 
L 75.215366 -43.2 
L 78.430732 -43.2 
L 81.646098 -43.2 
L 84.861465 -43.2 
L 88.076831 -43.2 
L 91.292197 -43.2 
L 94.507563 -43.2 
L 97.722929 -43.2 
L 100.938295 -43.2 
L 104.153661 -43.2 
L 107.369028 -43.2 
L 110.584394 -43.2 
L 113.79976 -43.2 
L 117.015126 -43.2 
L 120.230492 -43.2 
L 123.445858 -43.2 
L 126.661224 -43.2 
L 129.876591 -43.2 
L 133.091957 -43.2 
L 136.307323 -43.2 
L 139.522689 -43.2 
L 142.738055 -108.414208 
L 145.953421 -144.174553 
L 149.168788 -186.452887 
L 152.384154 -207.19765 
L 155.59952 -219.394702 
L 158.814886 -223.130869 
L 162.030252 -217.04545 
L 165.245618 -206.961248 
L 168.460984 -193.28213 
L 171.676351 -179.687694 
L 174.891717 -163.545041 
L 178.107083 -151.541522 
L 181.322449 -138.555959 
L 184.537815 -128.941222 
L 187.753181 -124.338706 
L 190.968547 -123.881192 
L 194.183914 -124.514438 
L 197.39928 -127.835338 
L 200.614646 -132.679624 
L 203.830012 -138.174089 
L 207.045378 -141.658015 
L 210.260744 -147.595581 
L 213.47611 -151.349125 
L 216.691477 -154.920515 
L 219.906843 -160.278913 
L 223.122209 -162.881339 
L 226.337575 -165.004954 
L 229.552941 -166.489451 
L 232.768307 -167.033401 
L 235.983673 -166.862532 
L 239.19904 -167.007188 
L 242.414406 -166.281034 
L 245.629772 -164.381463 
L 248.845138 -160.995643 
L 252.060504 -157.524834 
L 255.27587 -154.47987 
L 258.491236 -152.675534 
L 261.706603 -150.811481 
L 264.921969 -149.833349 
L 268.137335 -149.704996 
L 271.352701 -151.163204 
L 274.568067 -153.529289 
L 277.783433 -153.617449 
L 280.9988 -154.429255 
L 284.214166 -155.978994 
L 287.429532 -156.857408 
L 290.644898 -158.44374 
L 293.860264 -159.275939 
L 297.07563 -160.009705 
L 300.290996 -160.3814 
L 303.506363 -160.771355 
L 306.721729 -161.155903 
L 309.937095 -161.549555 
L 313.152461 -161.305386 
L 316.367827 -161.071448 
L 319.583193 -160.527963 
L 322.798559 -159.368989 
L 326.013926 -158.500011 
L 329.229292 -157.845227 
L 332.444658 -156.525671 
L 335.660024 -156.184414 
L 338.87539 -156.421688 
L 342.090756 -157.04623 
L 345.306122 -157.532408 
L 348.521489 -158.063942 
L 351.736855 -158.022683 
L 354.952221 -158.173482 
L 358.167587 -158.590233 
L 361.382953 -158.307173 
L 364.598319 -158.92062 
L 367.813685 -159.418032 
L 371.029052 -159.664919 
L 374.244418 -159.642629 
L 377.459784 -159.615736 
L 380.67515 -159.829104 
L 383.890516 -159.561633 
L 387.105882 -159.3161 
L 390.321248 -158.88455 
L 393.536615 -158.780927 
L 396.751981 -159.019386 
L 399.967347 -158.878159 
L 403.182713 -158.799093 
L 406.398079 -158.661121 
L 409.613445 -158.44207 
L 412.828812 -158.883751 
L 416.044178 -158.70344 
L 419.259544 -159.084271 
L 422.47491 -158.812417 
L 425.690276 -158.859424 
L 428.905642 -158.828792 
L 432.121008 -159.114051 
L 435.336375 -158.848483 
L 438.551741 -158.816439 
L 441.767107 -158.512058 
L 444.982473 -158.422143 
L 448.197839 -158.213363 
L 451.413205 -158.58736 
L 454.628571 -158.663188 
L 454.628571 -162.338526 
L 454.628571 -162.338526 
L 451.413205 -162.064793 
L 448.197839 -161.854825 
L 444.982473 -161.7594 
L 441.767107 -162.075475 
L 438.551741 -162.073691 
L 435.336375 -162.066974 
L 432.121008 -162.142855 
L 428.905642 -162.037458 
L 425.690276 -162.198795 
L 422.47491 -161.99213 
L 419.259544 -161.871896 
L 416.044178 -162.298924 
L 412.828812 -162.061187 
L 409.613445 -161.79276 
L 406.398079 -161.56642 
L 403.182713 -162.062079 
L 399.967347 -162.200641 
L 396.751981 -162.285013 
L 393.536615 -162.309434 
L 390.321248 -162.580836 
L 387.105882 -162.575995 
L 383.890516 -162.748317 
L 380.67515 -162.710018 
L 377.459784 -162.499767 
L 374.244418 -162.692824 
L 371.029052 -162.5438 
L 367.813685 -162.521271 
L 364.598319 -161.876078 
L 361.382953 -161.55181 
L 358.167587 -161.499898 
L 354.952221 -161.441858 
L 351.736855 -161.508109 
L 348.521489 -161.255541 
L 345.306122 -161.127538 
L 342.090756 -161.473588 
L 338.87539 -161.68868 
L 335.660024 -161.979535 
L 332.444658 -162.138204 
L 329.229292 -162.137077 
L 326.013926 -162.486891 
L 322.798559 -163.502364 
L 319.583193 -164.294786 
L 316.367827 -165.005752 
L 313.152461 -165.075489 
L 309.937095 -164.964343 
L 306.721729 -165.313249 
L 303.506363 -165.84648 
L 300.290996 -166.131604 
L 297.07563 -166.272488 
L 293.860264 -164.759009 
L 290.644898 -162.893155 
L 287.429532 -160.867578 
L 284.214166 -159.331273 
L 280.9988 -158.599834 
L 277.783433 -158.040769 
L 274.568067 -157.640612 
L 271.352701 -157.478416 
L 268.137335 -157.376044 
L 264.921969 -159.051274 
L 261.706603 -159.966223 
L 258.491236 -161.640509 
L 255.27587 -163.017077 
L 252.060504 -165.37338 
L 248.845138 -169.14189 
L 245.629772 -171.13296 
L 242.414406 -172.974959 
L 239.19904 -173.709775 
L 235.983673 -175.714674 
L 232.768307 -177.53114 
L 229.552941 -177.716629 
L 226.337575 -176.697877 
L 223.122209 -173.246205 
L 219.906843 -169.31448 
L 216.691477 -163.63197 
L 213.47611 -158.409744 
L 210.260744 -152.284307 
L 207.045378 -146.639536 
L 203.830012 -144.231417 
L 200.614646 -141.972356 
L 197.39928 -140.570345 
L 194.183914 -141.175444 
L 190.968547 -143.220642 
L 187.753181 -145.265045 
L 184.537815 -151.750706 
L 181.322449 -160.441562 
L 178.107083 -171.975446 
L 174.891717 -183.80579 
L 171.676351 -198.565429 
L 168.460984 -215.769463 
L 165.245618 -232.922436 
L 162.030252 -245.56397 
L 158.814886 -251.59341 
L 155.59952 -249.536738 
L 152.384154 -234.590494 
L 149.168788 -208.724552 
L 145.953421 -172.051845 
L 142.738055 -148.147735 
L 139.522689 -114.792297 
L 136.307323 -78.347883 
L 133.091957 -43.2 
L 129.876591 -43.2 
L 126.661224 -43.2 
L 123.445858 -43.2 
L 120.230492 -43.2 
L 117.015126 -43.2 
L 113.79976 -43.2 
L 110.584394 -43.2 
L 107.369028 -43.2 
L 104.153661 -43.2 
L 100.938295 -43.2 
L 97.722929 -43.2 
L 94.507563 -43.2 
L 91.292197 -43.2 
L 88.076831 -43.2 
L 84.861465 -43.2 
L 81.646098 -43.2 
L 78.430732 -43.2 
L 75.215366 -43.2 
z
" id="mf80cc461ee" style="stroke:#ffffff;stroke-opacity:0.5;"/>
    </defs>
    <g clip-path="url(#p0f659a448c)">
     <use style="fill:#0000ff;fill-opacity:0.5;stroke:#ffffff;stroke-opacity:0.5;" x="0.0" xlink:href="#mf80cc461ee" y="432.0"/>
    </g>
   </g>
   <g id="line2d_1">
    <path clip-path="url(#p0f659a448c)" d="M 75.215366 388.8 
L 78.430732 388.8 
L 81.646098 388.8 
L 84.861465 388.8 
L 88.076831 388.8 
L 91.292197 388.8 
L 94.507563 388.8 
L 97.722929 388.8 
L 100.938295 388.8 
L 104.153661 388.8 
L 107.369028 388.8 
L 110.584394 388.8 
L 113.79976 388.8 
L 117.015126 388.8 
L 120.230492 388.8 
L 123.445858 388.8 
L 126.661224 388.8 
L 129.876591 388.8 
L 133.091957 388.8 
L 136.307323 388.8 
L 139.522689 342.227292 
L 142.738055 296.658791 
L 145.953421 272.066758 
L 149.168788 237.148896 
L 152.384154 211.9242 
L 155.59952 196.592652 
L 158.814886 192.385241 
L 162.030252 198.717378 
L 165.245618 211.790818 
L 168.460984 229.105401 
L 171.676351 245.739539 
L 174.891717 259.603188 
L 178.107083 270.797258 
L 181.322449 280.997761 
L 184.537815 289.033685 
L 187.753181 293.664299 
L 190.968547 296.006747 
L 194.183914 297.791242 
L 197.39928 297.071668 
L 200.614646 294.980107 
L 203.830012 291.54965 
L 207.045378 287.958485 
L 210.260744 282.685558 
L 213.47611 278.601795 
L 216.691477 274.097157 
L 219.906843 268.816405 
L 223.122209 264.683958 
L 226.337575 261.666244 
L 229.552941 260.154532 
L 232.768307 259.761296 
L 235.983673 260.100497 
L 239.19904 261.029624 
L 242.414406 262.453957 
L 245.629772 265.203008 
L 248.845138 267.735615 
L 252.060504 270.52426 
L 255.27587 272.875659 
L 258.491236 274.709891 
L 261.706603 276.301177 
L 264.921969 277.183201 
L 268.137335 277.623013 
L 271.352701 277.431183 
L 274.568067 277.12401 
L 277.783433 276.616152 
L 280.9988 275.472552 
L 284.214166 274.283846 
L 287.429532 272.972171 
L 290.644898 271.429286 
L 293.860264 270.504108 
L 297.07563 269.472789 
L 300.290996 269.285455 
L 303.506363 268.74587 
L 306.721729 268.735994 
L 309.937095 268.774485 
L 313.152461 269.184896 
L 316.367827 269.648804 
L 319.583193 270.385648 
L 322.798559 271.292603 
L 326.013926 272.018902 
L 329.229292 272.505778 
L 332.444658 273.020085 
L 335.660024 273.37897 
L 338.87539 273.416507 
L 342.090756 273.326078 
L 345.306122 273.405739 
L 348.521489 273.059151 
L 351.736855 272.755308 
L 354.952221 272.419022 
L 358.167587 272.245671 
L 361.382953 272.193881 
L 364.598319 271.543489 
L 367.813685 271.041072 
L 371.029052 270.951603 
L 374.244418 271.007385 
L 377.459784 271.033291 
L 380.67515 271.094794 
L 383.890516 271.258302 
L 387.105882 271.501369 
L 390.321248 271.810204 
L 393.536615 272.174017 
L 396.751981 272.20766 
L 399.967347 272.026887 
L 403.182713 272.048349 
L 406.398079 272.217285 
L 409.613445 272.486193 
L 412.828812 272.35776 
L 416.044178 272.301352 
L 419.259544 272.147317 
L 422.47491 272.102519 
L 425.690276 272.075016 
L 428.905642 272.145282 
L 432.121008 272.00807 
L 435.336375 271.949282 
L 438.551741 271.96631 
L 441.767107 272.054199 
L 444.982473 272.027324 
L 448.197839 271.996293 
L 451.413205 271.873998 
L 454.628571 271.783028 
" style="fill:none;stroke:#0000ff;stroke-linecap:square;"/>
   </g>
   <g id="line2d_2">
    <path clip-path="url(#p0f659a448c)" d="M 75.215366 388.8 
L 78.430732 388.8 
L 81.646098 388.8 
L 84.861465 388.8 
L 88.076831 388.8 
L 91.292197 388.8 
L 94.507563 388.8 
L 97.722929 388.8 
L 100.938295 388.8 
L 104.153661 388.8 
L 107.369028 388.8 
L 110.584394 388.8 
L 113.79976 388.8 
L 117.015126 388.8 
L 120.230492 388.8 
L 123.445858 388.8 
L 126.661224 388.8 
L 129.876591 388.8 
L 133.091957 388.8 
L 136.307323 388.8 
L 139.522689 388.8 
L 142.738055 388.8 
L 145.953421 388.8 
L 149.168788 315.593301 
L 152.384154 229.842143 
L 155.59952 182.808964 
L 158.814886 166.018576 
L 162.030252 187.517674 
L 165.245618 211.392324 
L 168.460984 233.741763 
L 171.676351 251.81996 
L 174.891717 265.488242 
L 178.107083 275.673445 
L 181.322449 283.941265 
L 184.537815 290.749984 
L 187.753181 295.934511 
L 190.968547 299.188766 
L 194.183914 300.269966 
L 197.39928 299.191743 
L 200.614646 296.283345 
L 203.830012 292.100135 
L 207.045378 287.26451 
L 210.260744 282.329993 
L 213.47611 277.712337 
L 216.691477 273.680835 
L 219.906843 270.309022 
L 223.122209 267.638673 
L 226.337575 265.753292 
L 229.552941 264.670912 
L 232.768307 264.353528 
L 235.983673 264.718093 
L 239.19904 265.648222 
L 242.414406 267.006074 
L 245.629772 268.64387 
L 248.845138 270.414561 
L 252.060504 272.181165 
L 255.27587 273.824701 
L 258.491236 275.267095 
L 261.706603 276.437526 
L 264.921969 277.278466 
L 268.137335 277.763124 
L 271.352701 277.895598 
L 274.568067 277.707524 
L 277.783433 277.252002 
L 280.9988 276.59598 
L 284.214166 275.812418 
L 287.429532 274.973301 
L 290.644898 274.144165 
L 293.860264 273.380015 
L 297.07563 272.719554 
L 300.290996 272.194211 
L 303.506363 271.82456 
L 306.721729 271.618352 
L 309.937095 271.571442 
L 313.152461 271.669391 
L 316.367827 271.889569 
L 319.583193 272.203579 
L 322.798559 272.57978 
L 326.013926 272.985766 
L 329.229292 273.390616 
L 332.444658 273.767005 
L 335.660024 274.093399 
L 338.87539 274.352476 
L 342.090756 274.532996 
L 345.306122 274.630341 
L 348.521489 274.646238 
L 351.736855 274.588005 
L 354.952221 274.46743 
L 358.167587 274.299435 
L 361.382953 274.100644 
L 364.598319 273.888007 
L 367.813685 273.677574 
L 371.029052 273.4834 
L 374.244418 273.316724 
L 377.459784 273.186151 
L 380.67515 273.097009 
L 383.890516 273.051279 
L 387.105882 273.047794 
L 390.321248 273.08263 
L 393.536615 273.149641 
L 396.751981 273.241098 
L 399.967347 273.348361 
L 403.182713 273.462558 
L 406.398079 273.575203 
L 409.613445 273.678782 
L 412.828812 273.767148 
L 416.044178 273.835664 
L 419.259544 273.881482 
L 422.47491 273.903584 
L 425.690276 273.902686 
L 428.905642 273.881021 
L 432.121008 273.842043 
L 435.336375 273.79007 
L 438.551741 273.7299 
L 441.767107 273.666435 
L 444.982473 273.604334 
L 448.197839 273.547702 
L 451.413205 273.499883 
L 454.628571 273.463339 
" style="fill:none;stroke:#000000;stroke-linecap:square;"/>
   </g>
   <g id="line2d_3">
    <path clip-path="url(#p0f659a448c)" d="M 75.215366 273.6 
L 78.430732 273.6 
L 81.646098 273.6 
L 84.861465 273.6 
L 88.076831 273.6 
L 91.292197 273.6 
L 94.507563 273.6 
L 97.722929 273.6 
L 100.938295 273.6 
L 104.153661 273.6 
L 107.369028 273.6 
L 110.584394 273.6 
L 113.79976 273.6 
L 117.015126 273.6 
L 120.230492 273.6 
L 123.445858 273.6 
L 126.661224 273.6 
L 129.876591 273.6 
L 133.091957 273.6 
L 136.307323 273.6 
L 139.522689 273.6 
L 142.738055 273.6 
L 145.953421 273.6 
L 149.168788 273.6 
L 152.384154 273.6 
L 155.59952 273.6 
L 158.814886 273.6 
L 162.030252 273.6 
L 165.245618 273.6 
L 168.460984 273.6 
L 171.676351 273.6 
L 174.891717 273.6 
L 178.107083 273.6 
L 181.322449 273.6 
L 184.537815 273.6 
L 187.753181 273.6 
L 190.968547 273.6 
L 194.183914 273.6 
L 197.39928 273.6 
L 200.614646 273.6 
L 203.830012 273.6 
L 207.045378 273.6 
L 210.260744 273.6 
L 213.47611 273.6 
L 216.691477 273.6 
L 219.906843 273.6 
L 223.122209 273.6 
L 226.337575 273.6 
L 229.552941 273.6 
L 232.768307 273.6 
L 235.983673 273.6 
L 239.19904 273.6 
L 242.414406 273.6 
L 245.629772 273.6 
L 248.845138 273.6 
L 252.060504 273.6 
L 255.27587 273.6 
L 258.491236 273.6 
L 261.706603 273.6 
L 264.921969 273.6 
L 268.137335 273.6 
L 271.352701 273.6 
L 274.568067 273.6 
L 277.783433 273.6 
L 280.9988 273.6 
L 284.214166 273.6 
L 287.429532 273.6 
L 290.644898 273.6 
L 293.860264 273.6 
L 297.07563 273.6 
L 300.290996 273.6 
L 303.506363 273.6 
L 306.721729 273.6 
L 309.937095 273.6 
L 313.152461 273.6 
L 316.367827 273.6 
L 319.583193 273.6 
L 322.798559 273.6 
L 326.013926 273.6 
L 329.229292 273.6 
L 332.444658 273.6 
L 335.660024 273.6 
L 338.87539 273.6 
L 342.090756 273.6 
L 345.306122 273.6 
L 348.521489 273.6 
L 351.736855 273.6 
L 354.952221 273.6 
L 358.167587 273.6 
L 361.382953 273.6 
L 364.598319 273.6 
L 367.813685 273.6 
L 371.029052 273.6 
L 374.244418 273.6 
L 377.459784 273.6 
L 380.67515 273.6 
L 383.890516 273.6 
L 387.105882 273.6 
L 390.321248 273.6 
L 393.536615 273.6 
L 396.751981 273.6 
L 399.967347 273.6 
L 403.182713 273.6 
L 406.398079 273.6 
L 409.613445 273.6 
L 412.828812 273.6 
L 416.044178 273.6 
L 419.259544 273.6 
L 422.47491 273.6 
L 425.690276 273.6 
L 428.905642 273.6 
L 432.121008 273.6 
L 435.336375 273.6 
L 438.551741 273.6 
L 441.767107 273.6 
L 444.982473 273.6 
L 448.197839 273.6 
L 451.413205 273.6 
L 454.628571 273.6 
" style="fill:none;stroke:#000000;stroke-dasharray:6.000000,6.000000;stroke-dashoffset:0.0;"/>
   </g>
   <g id="line2d_4">
    <path clip-path="url(#p0f659a448c)" d="M 74.061132 388.8 
L 142.078494 388.8 
L 144.139626 298.341328 
L 146.200758 225.038545 
L 148.261891 174.748733 
L 150.323023 138.049509 
L 152.384155 128.773588 
L 154.445287 125.005253 
L 156.506419 125.693043 
L 158.567551 143.790974 
L 160.628684 164.146018 
L 162.689816 181.827593 
L 164.750948 201.347594 
L 166.81208 215.344626 
L 170.934345 240.238765 
L 175.056609 262.797873 
L 177.117741 267.783847 
L 179.178873 282.680262 
L 181.240005 287.553088 
L 183.301138 291.757698 
L 185.36227 298.58815 
L 187.423402 304.361051 
L 189.484534 305.390263 
L 191.545666 310.981456 
L 193.606798 309.848207 
L 195.667931 310.056771 
L 197.729063 307.994285 
L 199.790195 304.598196 
L 201.851327 303.486966 
L 203.912459 299.707088 
L 205.973592 300.379885 
L 208.034724 289.36798 
L 210.095856 287.753168 
L 212.156988 283.74809 
L 214.21812 280.956754 
L 216.279252 274.235424 
L 218.340385 268.456923 
L 220.401517 266.001108 
L 224.523781 257.739147 
L 226.584913 255.272433 
L 228.646045 253.976298 
L 230.707178 251.871676 
L 232.76831 253.195257 
L 234.829442 251.165002 
L 236.890574 253.282957 
L 238.951706 256.299083 
L 241.012839 258.334598 
L 243.073971 258.859143 
L 245.135103 261.791671 
L 247.196235 261.87974 
L 249.257367 267.372879 
L 251.318499 270.974668 
L 253.379632 268.896227 
L 255.440764 270.375263 
L 257.501896 273.59134 
L 259.563028 274.906532 
L 261.62416 274.382971 
L 263.685292 277.806856 
L 265.746425 276.651535 
L 267.807557 278.889289 
L 269.868689 278.212219 
L 271.929821 278.530968 
L 273.990953 278.382683 
L 276.052086 277.758597 
L 278.113218 277.743087 
L 280.17435 275.606704 
L 282.235482 274.812971 
L 284.296614 276.606845 
L 288.418879 271.748082 
L 290.480011 273.284258 
L 292.541143 270.405962 
L 294.602275 270.443395 
L 296.663407 269.509589 
L 298.724539 268.443589 
L 300.785672 268.70395 
L 302.846804 269.650368 
L 304.907936 266.59059 
L 306.969068 267.139173 
L 309.0302 268.704302 
L 311.091333 267.324147 
L 313.152465 268.235117 
L 315.213597 267.448211 
L 317.274729 269.516098 
L 319.335861 268.165203 
L 321.396993 269.139017 
L 323.458126 268.773762 
L 325.519258 271.051676 
L 327.58039 270.706005 
L 329.641522 270.479316 
L 331.702654 272.087661 
L 333.763787 272.589193 
L 335.824919 272.271728 
L 337.886051 271.803052 
L 339.947183 273.334614 
L 342.008315 273.420494 
L 344.069447 271.652609 
L 346.13058 273.081914 
L 348.191712 274.319798 
L 350.252844 272.750059 
L 352.313976 273.168593 
L 354.375108 274.362873 
L 356.43624 272.035829 
L 358.497373 272.886926 
L 360.558505 270.587228 
L 362.619637 272.655976 
L 364.680769 273.424953 
L 366.741901 270.588891 
L 368.803034 271.21495 
L 370.864166 272.097197 
L 372.925298 270.615056 
L 374.98643 271.10204 
L 377.047562 271.462059 
L 379.108694 271.590888 
L 381.169827 271.252546 
L 383.230959 271.422335 
L 385.292091 270.210141 
L 387.353223 271.208882 
L 389.414355 270.359471 
L 391.475487 270.537946 
L 393.53662 269.961951 
L 395.597752 270.853259 
L 397.658884 270.558952 
L 399.720016 271.125032 
L 401.781148 271.402052 
L 403.842281 270.993816 
L 407.964545 271.512989 
L 410.025677 272.536537 
L 412.086809 272.186008 
L 414.147941 272.637357 
L 416.209074 271.165271 
L 418.270206 271.831908 
L 420.331338 272.170546 
L 424.453602 271.977438 
L 426.514734 271.512852 
L 428.575867 271.550625 
L 430.636999 271.184842 
L 432.698131 271.840208 
L 434.759263 271.590221 
L 436.820395 272.223708 
L 440.94266 271.826498 
L 443.003792 272.319443 
L 445.064924 272.299871 
L 447.126056 272.117521 
L 449.187188 273.250746 
L 451.248321 272.31666 
L 453.309453 272.77813 
L 455.370585 273.897357 
L 455.370585 273.897357 
" style="fill:none;stroke:#008000;stroke-linecap:square;"/>
   </g>
   <g id="line2d_5">
    <path clip-path="url(#p0f659a448c)" d="M 75.215366 388.8 
L 78.430732 388.8 
L 81.646098 388.8 
L 84.861465 388.8 
L 88.076831 388.8 
L 91.292197 388.8 
L 94.507563 388.8 
L 97.722929 388.8 
L 100.938295 388.8 
L 104.153661 388.8 
L 107.369028 388.8 
L 110.584394 388.8 
L 113.79976 388.8 
L 117.015126 388.8 
L 120.230492 388.8 
L 123.445858 388.8 
L 126.661224 388.8 
L 129.876591 388.8 
L 133.091957 388.8 
L 136.307323 388.8 
L 139.522689 388.8 
L 142.738055 388.8 
L 145.953421 388.8 
L 149.168788 351.17617 
L 152.384154 210.29146 
L 155.59952 113.689792 
L 158.814886 66.057986 
L 162.030252 79.690542 
L 165.245618 122.59196 
L 168.460984 169.611816 
L 171.676351 210.302851 
L 174.891717 241.65102 
L 178.107083 264.756631 
L 181.322449 282.586133 
L 184.537815 299.648276 
L 187.753181 316.558182 
L 190.968547 332.436575 
L 194.183914 345.156973 
L 197.39928 352.022805 
L 200.614646 351.257101 
L 203.830012 343.217738 
L 207.045378 330.189767 
L 210.260744 315.061175 
L 213.47611 300.151008 
L 216.691477 286.824385 
L 219.906843 275.659786 
L 223.122209 266.419851 
L 226.337575 258.587963 
L 229.552941 252.494804 
L 232.768307 248.351497 
L 235.983673 246.228007 
L 239.19904 246.065556 
L 242.414406 247.693032 
L 245.629772 250.846947 
L 248.845138 255.194393 
L 252.060504 260.358112 
L 255.27587 265.9424 
L 258.491236 271.558363 
L 261.706603 276.921933 
L 264.921969 281.957398 
L 268.137335 286.298475 
L 271.352701 289.585629 
L 274.568067 291.555835 
L 277.783433 292.092232 
L 280.9988 291.243731 
L 284.214166 289.207265 
L 287.429532 286.280683 
L 290.644898 282.804301 
L 293.860264 279.10904 
L 297.07563 275.481539 
L 300.290996 272.133042 
L 303.506363 269.137288 
L 306.721729 266.638794 
L 309.937095 264.763104 
L 313.152461 263.587648 
L 316.367827 263.140179 
L 319.583193 263.400388 
L 322.798559 264.304404 
L 326.013926 265.751695 
L 329.229292 267.613798 
L 332.444658 269.744229 
L 335.660024 271.98887 
L 338.87539 274.198659 
L 342.090756 276.275395 
L 345.306122 278.096757 
L 348.521489 279.540317 
L 351.736855 280.513937 
L 354.952221 280.965776 
L 358.167587 280.889392 
L 361.382953 280.322737 
L 364.598319 279.341319 
L 367.813685 278.047237 
L 371.029052 276.556514 
L 374.244418 274.987054 
L 377.459784 273.448724 
L 380.67515 272.020228 
L 383.890516 270.775012 
L 387.105882 269.783098 
L 390.321248 269.09433 
L 393.536615 268.736322 
L 396.751981 268.713932 
L 399.967347 269.010205 
L 403.182713 269.588647 
L 406.398079 270.39662 
L 409.613445 271.369575 
L 412.828812 272.435812 
L 416.044178 273.521453 
L 419.259544 274.561652 
L 422.47491 275.49781 
L 425.690276 276.270283 
L 428.905642 276.832188 
L 432.121008 277.153207 
L 435.336375 277.221841 
L 438.551741 277.045787 
L 441.767107 276.650378 
L 444.982473 276.075387 
L 448.197839 275.370724 
L 451.413205 274.591678 
L 454.628571 273.794314 
" style="fill:none;stroke:#ff0000;stroke-linecap:square;"/>
   </g>
   <g id="patch_3">
    <path d="M 72 43.2 
L 518.4 43.2 
" style="fill:none;stroke:#000000;stroke-linecap:square;stroke-linejoin:miter;"/>
   </g>
   <g id="patch_4">
    <path d="M 518.4 388.8 
L 518.4 43.2 
" style="fill:none;stroke:#000000;stroke-linecap:square;stroke-linejoin:miter;"/>
   </g>
   <g id="patch_5">
    <path d="M 72 388.8 
L 518.4 388.8 
" style="fill:none;stroke:#000000;stroke-linecap:square;stroke-linejoin:miter;"/>
   </g>
   <g id="patch_6">
    <path d="M 72 388.8 
L 72 43.2 
" style="fill:none;stroke:#000000;stroke-linecap:square;stroke-linejoin:miter;"/>
   </g>
   <g id="matplotlib.axis_1">
    <g id="xtick_1">
     <g id="line2d_6">
      <defs>
       <path d="M 0 0 
L 0 -4 
" id="mc544d92f75" style="stroke:#000000;stroke-width:0.5;"/>
      </defs>
      <g>
       <use style="stroke:#000000;stroke-width:0.5;" x="72.0" xlink:href="#mc544d92f75" y="388.8"/>
      </g>
     </g>
     <g id="line2d_7">
      <defs>
       <path d="M 0 0 
L 0 4 
" id="mbad9e10b6d" style="stroke:#000000;stroke-width:0.5;"/>
      </defs>
      <g>
       <use style="stroke:#000000;stroke-width:0.5;" x="72.0" xlink:href="#mbad9e10b6d" y="43.2"/>
      </g>
     </g>
     <g id="text_1">
      <!-- 0 -->
      <defs>
       <path d="M 31.78125 66.40625 
Q 24.171875 66.40625 20.328125 58.90625 
Q 16.5 51.421875 16.5 36.375 
Q 16.5 21.390625 20.328125 13.890625 
Q 24.171875 6.390625 31.78125 6.390625 
Q 39.453125 6.390625 43.28125 13.890625 
Q 47.125 21.390625 47.125 36.375 
Q 47.125 51.421875 43.28125 58.90625 
Q 39.453125 66.40625 31.78125 66.40625 
M 31.78125 74.21875 
Q 44.046875 74.21875 50.515625 64.515625 
Q 56.984375 54.828125 56.984375 36.375 
Q 56.984375 17.96875 50.515625 8.265625 
Q 44.046875 -1.421875 31.78125 -1.421875 
Q 19.53125 -1.421875 13.0625 8.265625 
Q 6.59375 17.96875 6.59375 36.375 
Q 6.59375 54.828125 13.0625 64.515625 
Q 19.53125 74.21875 31.78125 74.21875 
" id="BitstreamVeraSans-Roman-30"/>
      </defs>
      <g transform="translate(68.1825 401.918125)scale(0.12 -0.12)">
       <use xlink:href="#BitstreamVeraSans-Roman-30"/>
      </g>
     </g>
    </g>
    <g id="xtick_2">
     <g id="line2d_8">
      <g>
       <use style="stroke:#000000;stroke-width:0.5;" x="135.771428571" xlink:href="#mc544d92f75" y="388.8"/>
      </g>
     </g>
     <g id="line2d_9">
      <g>
       <use style="stroke:#000000;stroke-width:0.5;" x="135.771428571" xlink:href="#mbad9e10b6d" y="43.2"/>
      </g>
     </g>
     <g id="text_2">
      <!-- 10 -->
      <defs>
       <path d="M 12.40625 8.296875 
L 28.515625 8.296875 
L 28.515625 63.921875 
L 10.984375 60.40625 
L 10.984375 69.390625 
L 28.421875 72.90625 
L 38.28125 72.90625 
L 38.28125 8.296875 
L 54.390625 8.296875 
L 54.390625 0 
L 12.40625 0 
z
" id="BitstreamVeraSans-Roman-31"/>
      </defs>
      <g transform="translate(128.136428571 401.918125)scale(0.12 -0.12)">
       <use xlink:href="#BitstreamVeraSans-Roman-31"/>
       <use x="63.623046875" xlink:href="#BitstreamVeraSans-Roman-30"/>
      </g>
     </g>
    </g>
    <g id="xtick_3">
     <g id="line2d_10">
      <g>
       <use style="stroke:#000000;stroke-width:0.5;" x="199.542857143" xlink:href="#mc544d92f75" y="388.8"/>
      </g>
     </g>
     <g id="line2d_11">
      <g>
       <use style="stroke:#000000;stroke-width:0.5;" x="199.542857143" xlink:href="#mbad9e10b6d" y="43.2"/>
      </g>
     </g>
     <g id="text_3">
      <!-- 20 -->
      <defs>
       <path d="M 19.1875 8.296875 
L 53.609375 8.296875 
L 53.609375 0 
L 7.328125 0 
L 7.328125 8.296875 
Q 12.9375 14.109375 22.625 23.890625 
Q 32.328125 33.6875 34.8125 36.53125 
Q 39.546875 41.84375 41.421875 45.53125 
Q 43.3125 49.21875 43.3125 52.78125 
Q 43.3125 58.59375 39.234375 62.25 
Q 35.15625 65.921875 28.609375 65.921875 
Q 23.96875 65.921875 18.8125 64.3125 
Q 13.671875 62.703125 7.8125 59.421875 
L 7.8125 69.390625 
Q 13.765625 71.78125 18.9375 73 
Q 24.125 74.21875 28.421875 74.21875 
Q 39.75 74.21875 46.484375 68.546875 
Q 53.21875 62.890625 53.21875 53.421875 
Q 53.21875 48.921875 51.53125 44.890625 
Q 49.859375 40.875 45.40625 35.40625 
Q 44.1875 33.984375 37.640625 27.21875 
Q 31.109375 20.453125 19.1875 8.296875 
" id="BitstreamVeraSans-Roman-32"/>
      </defs>
      <g transform="translate(191.907857143 401.918125)scale(0.12 -0.12)">
       <use xlink:href="#BitstreamVeraSans-Roman-32"/>
       <use x="63.623046875" xlink:href="#BitstreamVeraSans-Roman-30"/>
      </g>
     </g>
    </g>
    <g id="xtick_4">
     <g id="line2d_12">
      <g>
       <use style="stroke:#000000;stroke-width:0.5;" x="263.314285714" xlink:href="#mc544d92f75" y="388.8"/>
      </g>
     </g>
     <g id="line2d_13">
      <g>
       <use style="stroke:#000000;stroke-width:0.5;" x="263.314285714" xlink:href="#mbad9e10b6d" y="43.2"/>
      </g>
     </g>
     <g id="text_4">
      <!-- 30 -->
      <defs>
       <path d="M 40.578125 39.3125 
Q 47.65625 37.796875 51.625 33 
Q 55.609375 28.21875 55.609375 21.1875 
Q 55.609375 10.40625 48.1875 4.484375 
Q 40.765625 -1.421875 27.09375 -1.421875 
Q 22.515625 -1.421875 17.65625 -0.515625 
Q 12.796875 0.390625 7.625 2.203125 
L 7.625 11.71875 
Q 11.71875 9.328125 16.59375 8.109375 
Q 21.484375 6.890625 26.8125 6.890625 
Q 36.078125 6.890625 40.9375 10.546875 
Q 45.796875 14.203125 45.796875 21.1875 
Q 45.796875 27.640625 41.28125 31.265625 
Q 36.765625 34.90625 28.71875 34.90625 
L 20.21875 34.90625 
L 20.21875 43.015625 
L 29.109375 43.015625 
Q 36.375 43.015625 40.234375 45.921875 
Q 44.09375 48.828125 44.09375 54.296875 
Q 44.09375 59.90625 40.109375 62.90625 
Q 36.140625 65.921875 28.71875 65.921875 
Q 24.65625 65.921875 20.015625 65.03125 
Q 15.375 64.15625 9.8125 62.3125 
L 9.8125 71.09375 
Q 15.4375 72.65625 20.34375 73.4375 
Q 25.25 74.21875 29.59375 74.21875 
Q 40.828125 74.21875 47.359375 69.109375 
Q 53.90625 64.015625 53.90625 55.328125 
Q 53.90625 49.265625 50.4375 45.09375 
Q 46.96875 40.921875 40.578125 39.3125 
" id="BitstreamVeraSans-Roman-33"/>
      </defs>
      <g transform="translate(255.679285714 401.918125)scale(0.12 -0.12)">
       <use xlink:href="#BitstreamVeraSans-Roman-33"/>
       <use x="63.623046875" xlink:href="#BitstreamVeraSans-Roman-30"/>
      </g>
     </g>
    </g>
    <g id="xtick_5">
     <g id="line2d_14">
      <g>
       <use style="stroke:#000000;stroke-width:0.5;" x="327.085714286" xlink:href="#mc544d92f75" y="388.8"/>
      </g>
     </g>
     <g id="line2d_15">
      <g>
       <use style="stroke:#000000;stroke-width:0.5;" x="327.085714286" xlink:href="#mbad9e10b6d" y="43.2"/>
      </g>
     </g>
     <g id="text_5">
      <!-- 40 -->
      <defs>
       <path d="M 37.796875 64.3125 
L 12.890625 25.390625 
L 37.796875 25.390625 
z
M 35.203125 72.90625 
L 47.609375 72.90625 
L 47.609375 25.390625 
L 58.015625 25.390625 
L 58.015625 17.1875 
L 47.609375 17.1875 
L 47.609375 0 
L 37.796875 0 
L 37.796875 17.1875 
L 4.890625 17.1875 
L 4.890625 26.703125 
z
" id="BitstreamVeraSans-Roman-34"/>
      </defs>
      <g transform="translate(319.450714286 401.918125)scale(0.12 -0.12)">
       <use xlink:href="#BitstreamVeraSans-Roman-34"/>
       <use x="63.623046875" xlink:href="#BitstreamVeraSans-Roman-30"/>
      </g>
     </g>
    </g>
    <g id="xtick_6">
     <g id="line2d_16">
      <g>
       <use style="stroke:#000000;stroke-width:0.5;" x="390.857142857" xlink:href="#mc544d92f75" y="388.8"/>
      </g>
     </g>
     <g id="line2d_17">
      <g>
       <use style="stroke:#000000;stroke-width:0.5;" x="390.857142857" xlink:href="#mbad9e10b6d" y="43.2"/>
      </g>
     </g>
     <g id="text_6">
      <!-- 50 -->
      <defs>
       <path d="M 10.796875 72.90625 
L 49.515625 72.90625 
L 49.515625 64.59375 
L 19.828125 64.59375 
L 19.828125 46.734375 
Q 21.96875 47.46875 24.109375 47.828125 
Q 26.265625 48.1875 28.421875 48.1875 
Q 40.625 48.1875 47.75 41.5 
Q 54.890625 34.8125 54.890625 23.390625 
Q 54.890625 11.625 47.5625 5.09375 
Q 40.234375 -1.421875 26.90625 -1.421875 
Q 22.3125 -1.421875 17.546875 -0.640625 
Q 12.796875 0.140625 7.71875 1.703125 
L 7.71875 11.625 
Q 12.109375 9.234375 16.796875 8.0625 
Q 21.484375 6.890625 26.703125 6.890625 
Q 35.15625 6.890625 40.078125 11.328125 
Q 45.015625 15.765625 45.015625 23.390625 
Q 45.015625 31 40.078125 35.4375 
Q 35.15625 39.890625 26.703125 39.890625 
Q 22.75 39.890625 18.8125 39.015625 
Q 14.890625 38.140625 10.796875 36.28125 
z
" id="BitstreamVeraSans-Roman-35"/>
      </defs>
      <g transform="translate(383.222142857 401.918125)scale(0.12 -0.12)">
       <use xlink:href="#BitstreamVeraSans-Roman-35"/>
       <use x="63.623046875" xlink:href="#BitstreamVeraSans-Roman-30"/>
      </g>
     </g>
    </g>
    <g id="xtick_7">
     <g id="line2d_18">
      <g>
       <use style="stroke:#000000;stroke-width:0.5;" x="454.628571429" xlink:href="#mc544d92f75" y="388.8"/>
      </g>
     </g>
     <g id="line2d_19">
      <g>
       <use style="stroke:#000000;stroke-width:0.5;" x="454.628571429" xlink:href="#mbad9e10b6d" y="43.2"/>
      </g>
     </g>
     <g id="text_7">
      <!-- 60 -->
      <defs>
       <path d="M 33.015625 40.375 
Q 26.375 40.375 22.484375 35.828125 
Q 18.609375 31.296875 18.609375 23.390625 
Q 18.609375 15.53125 22.484375 10.953125 
Q 26.375 6.390625 33.015625 6.390625 
Q 39.65625 6.390625 43.53125 10.953125 
Q 47.40625 15.53125 47.40625 23.390625 
Q 47.40625 31.296875 43.53125 35.828125 
Q 39.65625 40.375 33.015625 40.375 
M 52.59375 71.296875 
L 52.59375 62.3125 
Q 48.875 64.0625 45.09375 64.984375 
Q 41.3125 65.921875 37.59375 65.921875 
Q 27.828125 65.921875 22.671875 59.328125 
Q 17.53125 52.734375 16.796875 39.40625 
Q 19.671875 43.65625 24.015625 45.921875 
Q 28.375 48.1875 33.59375 48.1875 
Q 44.578125 48.1875 50.953125 41.515625 
Q 57.328125 34.859375 57.328125 23.390625 
Q 57.328125 12.15625 50.6875 5.359375 
Q 44.046875 -1.421875 33.015625 -1.421875 
Q 20.359375 -1.421875 13.671875 8.265625 
Q 6.984375 17.96875 6.984375 36.375 
Q 6.984375 53.65625 15.1875 63.9375 
Q 23.390625 74.21875 37.203125 74.21875 
Q 40.921875 74.21875 44.703125 73.484375 
Q 48.484375 72.75 52.59375 71.296875 
" id="BitstreamVeraSans-Roman-36"/>
      </defs>
      <g transform="translate(446.993571429 401.918125)scale(0.12 -0.12)">
       <use xlink:href="#BitstreamVeraSans-Roman-36"/>
       <use x="63.623046875" xlink:href="#BitstreamVeraSans-Roman-30"/>
      </g>
     </g>
    </g>
    <g id="xtick_8">
     <g id="line2d_20">
      <g>
       <use style="stroke:#000000;stroke-width:0.5;" x="518.4" xlink:href="#mc544d92f75" y="388.8"/>
      </g>
     </g>
     <g id="line2d_21">
      <g>
       <use style="stroke:#000000;stroke-width:0.5;" x="518.4" xlink:href="#mbad9e10b6d" y="43.2"/>
      </g>
     </g>
     <g id="text_8">
      <!-- 70 -->
      <defs>
       <path d="M 8.203125 72.90625 
L 55.078125 72.90625 
L 55.078125 68.703125 
L 28.609375 0 
L 18.3125 0 
L 43.21875 64.59375 
L 8.203125 64.59375 
z
" id="BitstreamVeraSans-Roman-37"/>
      </defs>
      <g transform="translate(510.765 401.918125)scale(0.12 -0.12)">
       <use xlink:href="#BitstreamVeraSans-Roman-37"/>
       <use x="63.623046875" xlink:href="#BitstreamVeraSans-Roman-30"/>
      </g>
     </g>
    </g>
    <g id="text_9">
     <!-- Radius (nm) -->
     <defs>
      <path id="BitstreamVeraSans-Roman-20"/>
      <path d="M 54.890625 33.015625 
L 54.890625 0 
L 45.90625 0 
L 45.90625 32.71875 
Q 45.90625 40.484375 42.875 44.328125 
Q 39.84375 48.1875 33.796875 48.1875 
Q 26.515625 48.1875 22.3125 43.546875 
Q 18.109375 38.921875 18.109375 30.90625 
L 18.109375 0 
L 9.078125 0 
L 9.078125 54.6875 
L 18.109375 54.6875 
L 18.109375 46.1875 
Q 21.34375 51.125 25.703125 53.5625 
Q 30.078125 56 35.796875 56 
Q 45.21875 56 50.046875 50.171875 
Q 54.890625 44.34375 54.890625 33.015625 
" id="BitstreamVeraSans-Roman-6e"/>
      <path d="M 31 75.875 
Q 24.46875 64.65625 21.28125 53.65625 
Q 18.109375 42.671875 18.109375 31.390625 
Q 18.109375 20.125 21.3125 9.0625 
Q 24.515625 -2 31 -13.1875 
L 23.1875 -13.1875 
Q 15.875 -1.703125 12.234375 9.375 
Q 8.59375 20.453125 8.59375 31.390625 
Q 8.59375 42.28125 12.203125 53.3125 
Q 15.828125 64.359375 23.1875 75.875 
z
" id="BitstreamVeraSans-Roman-28"/>
      <path d="M 8.015625 75.875 
L 15.828125 75.875 
Q 23.140625 64.359375 26.78125 53.3125 
Q 30.421875 42.28125 30.421875 31.390625 
Q 30.421875 20.453125 26.78125 9.375 
Q 23.140625 -1.703125 15.828125 -13.1875 
L 8.015625 -13.1875 
Q 14.5 -2 17.703125 9.0625 
Q 20.90625 20.125 20.90625 31.390625 
Q 20.90625 42.671875 17.703125 53.65625 
Q 14.5 64.65625 8.015625 75.875 
" id="BitstreamVeraSans-Roman-29"/>
      <path d="M 44.390625 34.1875 
Q 47.5625 33.109375 50.5625 29.59375 
Q 53.5625 26.078125 56.59375 19.921875 
L 66.609375 0 
L 56 0 
L 46.6875 18.703125 
Q 43.0625 26.03125 39.671875 28.421875 
Q 36.28125 30.8125 30.421875 30.8125 
L 19.671875 30.8125 
L 19.671875 0 
L 9.8125 0 
L 9.8125 72.90625 
L 32.078125 72.90625 
Q 44.578125 72.90625 50.734375 67.671875 
Q 56.890625 62.453125 56.890625 51.90625 
Q 56.890625 45.015625 53.6875 40.46875 
Q 50.484375 35.9375 44.390625 34.1875 
M 19.671875 64.796875 
L 19.671875 38.921875 
L 32.078125 38.921875 
Q 39.203125 38.921875 42.84375 42.21875 
Q 46.484375 45.515625 46.484375 51.90625 
Q 46.484375 58.296875 42.84375 61.546875 
Q 39.203125 64.796875 32.078125 64.796875 
z
" id="BitstreamVeraSans-Roman-52"/>
      <path d="M 9.421875 54.6875 
L 18.40625 54.6875 
L 18.40625 0 
L 9.421875 0 
z
M 9.421875 75.984375 
L 18.40625 75.984375 
L 18.40625 64.59375 
L 9.421875 64.59375 
z
" id="BitstreamVeraSans-Roman-69"/>
      <path d="M 52 44.1875 
Q 55.375 50.25 60.0625 53.125 
Q 64.75 56 71.09375 56 
Q 79.640625 56 84.28125 50.015625 
Q 88.921875 44.046875 88.921875 33.015625 
L 88.921875 0 
L 79.890625 0 
L 79.890625 32.71875 
Q 79.890625 40.578125 77.09375 44.375 
Q 74.3125 48.1875 68.609375 48.1875 
Q 61.625 48.1875 57.5625 43.546875 
Q 53.515625 38.921875 53.515625 30.90625 
L 53.515625 0 
L 44.484375 0 
L 44.484375 32.71875 
Q 44.484375 40.625 41.703125 44.40625 
Q 38.921875 48.1875 33.109375 48.1875 
Q 26.21875 48.1875 22.15625 43.53125 
Q 18.109375 38.875 18.109375 30.90625 
L 18.109375 0 
L 9.078125 0 
L 9.078125 54.6875 
L 18.109375 54.6875 
L 18.109375 46.1875 
Q 21.1875 51.21875 25.484375 53.609375 
Q 29.78125 56 35.6875 56 
Q 41.65625 56 45.828125 52.96875 
Q 50 49.953125 52 44.1875 
" id="BitstreamVeraSans-Roman-6d"/>
      <path d="M 45.40625 46.390625 
L 45.40625 75.984375 
L 54.390625 75.984375 
L 54.390625 0 
L 45.40625 0 
L 45.40625 8.203125 
Q 42.578125 3.328125 38.25 0.953125 
Q 33.9375 -1.421875 27.875 -1.421875 
Q 17.96875 -1.421875 11.734375 6.484375 
Q 5.515625 14.40625 5.515625 27.296875 
Q 5.515625 40.1875 11.734375 48.09375 
Q 17.96875 56 27.875 56 
Q 33.9375 56 38.25 53.625 
Q 42.578125 51.265625 45.40625 46.390625 
M 14.796875 27.296875 
Q 14.796875 17.390625 18.875 11.75 
Q 22.953125 6.109375 30.078125 6.109375 
Q 37.203125 6.109375 41.296875 11.75 
Q 45.40625 17.390625 45.40625 27.296875 
Q 45.40625 37.203125 41.296875 42.84375 
Q 37.203125 48.484375 30.078125 48.484375 
Q 22.953125 48.484375 18.875 42.84375 
Q 14.796875 37.203125 14.796875 27.296875 
" id="BitstreamVeraSans-Roman-64"/>
      <path d="M 8.5 21.578125 
L 8.5 54.6875 
L 17.484375 54.6875 
L 17.484375 21.921875 
Q 17.484375 14.15625 20.5 10.265625 
Q 23.53125 6.390625 29.59375 6.390625 
Q 36.859375 6.390625 41.078125 11.03125 
Q 45.3125 15.671875 45.3125 23.6875 
L 45.3125 54.6875 
L 54.296875 54.6875 
L 54.296875 0 
L 45.3125 0 
L 45.3125 8.40625 
Q 42.046875 3.421875 37.71875 1 
Q 33.40625 -1.421875 27.6875 -1.421875 
Q 18.265625 -1.421875 13.375 4.4375 
Q 8.5 10.296875 8.5 21.578125 
" id="BitstreamVeraSans-Roman-75"/>
      <path d="M 34.28125 27.484375 
Q 23.390625 27.484375 19.1875 25 
Q 14.984375 22.515625 14.984375 16.5 
Q 14.984375 11.71875 18.140625 8.90625 
Q 21.296875 6.109375 26.703125 6.109375 
Q 34.1875 6.109375 38.703125 11.40625 
Q 43.21875 16.703125 43.21875 25.484375 
L 43.21875 27.484375 
z
M 52.203125 31.203125 
L 52.203125 0 
L 43.21875 0 
L 43.21875 8.296875 
Q 40.140625 3.328125 35.546875 0.953125 
Q 30.953125 -1.421875 24.3125 -1.421875 
Q 15.921875 -1.421875 10.953125 3.296875 
Q 6 8.015625 6 15.921875 
Q 6 25.140625 12.171875 29.828125 
Q 18.359375 34.515625 30.609375 34.515625 
L 43.21875 34.515625 
L 43.21875 35.40625 
Q 43.21875 41.609375 39.140625 45 
Q 35.0625 48.390625 27.6875 48.390625 
Q 23 48.390625 18.546875 47.265625 
Q 14.109375 46.140625 10.015625 43.890625 
L 10.015625 52.203125 
Q 14.9375 54.109375 19.578125 55.046875 
Q 24.21875 56 28.609375 56 
Q 40.484375 56 46.34375 49.84375 
Q 52.203125 43.703125 52.203125 31.203125 
" id="BitstreamVeraSans-Roman-61"/>
      <path d="M 44.28125 53.078125 
L 44.28125 44.578125 
Q 40.484375 46.53125 36.375 47.5 
Q 32.28125 48.484375 27.875 48.484375 
Q 21.1875 48.484375 17.84375 46.4375 
Q 14.5 44.390625 14.5 40.28125 
Q 14.5 37.15625 16.890625 35.375 
Q 19.28125 33.59375 26.515625 31.984375 
L 29.59375 31.296875 
Q 39.15625 29.25 43.1875 25.515625 
Q 47.21875 21.78125 47.21875 15.09375 
Q 47.21875 7.46875 41.1875 3.015625 
Q 35.15625 -1.421875 24.609375 -1.421875 
Q 20.21875 -1.421875 15.453125 -0.5625 
Q 10.6875 0.296875 5.421875 2 
L 5.421875 11.28125 
Q 10.40625 8.6875 15.234375 7.390625 
Q 20.0625 6.109375 24.8125 6.109375 
Q 31.15625 6.109375 34.5625 8.28125 
Q 37.984375 10.453125 37.984375 14.40625 
Q 37.984375 18.0625 35.515625 20.015625 
Q 33.0625 21.96875 24.703125 23.78125 
L 21.578125 24.515625 
Q 13.234375 26.265625 9.515625 29.90625 
Q 5.8125 33.546875 5.8125 39.890625 
Q 5.8125 47.609375 11.28125 51.796875 
Q 16.75 56 26.8125 56 
Q 31.78125 56 36.171875 55.265625 
Q 40.578125 54.546875 44.28125 53.078125 
" id="BitstreamVeraSans-Roman-73"/>
     </defs>
     <g transform="translate(258.71625 418.531875)scale(0.12 -0.12)">
      <use xlink:href="#BitstreamVeraSans-Roman-52"/>
      <use x="69.451171875" xlink:href="#BitstreamVeraSans-Roman-61"/>
      <use x="130.73046875" xlink:href="#BitstreamVeraSans-Roman-64"/>
      <use x="194.20703125" xlink:href="#BitstreamVeraSans-Roman-69"/>
      <use x="221.990234375" xlink:href="#BitstreamVeraSans-Roman-75"/>
      <use x="285.369140625" xlink:href="#BitstreamVeraSans-Roman-73"/>
      <use x="337.46875" xlink:href="#BitstreamVeraSans-Roman-20"/>
      <use x="369.255859375" xlink:href="#BitstreamVeraSans-Roman-28"/>
      <use x="408.26953125" xlink:href="#BitstreamVeraSans-Roman-6e"/>
      <use x="471.6484375" xlink:href="#BitstreamVeraSans-Roman-6d"/>
      <use x="569.060546875" xlink:href="#BitstreamVeraSans-Roman-29"/>
     </g>
    </g>
   </g>
   <g id="matplotlib.axis_2">
    <g id="ytick_1">
     <g id="line2d_22">
      <defs>
       <path d="M 0 0 
L 4 0 
" id="ma152558232" style="stroke:#000000;stroke-width:0.5;"/>
      </defs>
      <g>
       <use style="stroke:#000000;stroke-width:0.5;" x="72.0" xlink:href="#ma152558232" y="345.6"/>
      </g>
     </g>
     <g id="line2d_23">
      <defs>
       <path d="M 0 0 
L -4 0 
" id="m339a3915e3" style="stroke:#000000;stroke-width:0.5;"/>
      </defs>
      <g>
       <use style="stroke:#000000;stroke-width:0.5;" x="518.4" xlink:href="#m339a3915e3" y="345.6"/>
      </g>
     </g>
     <g id="text_10">
      <!-- −0.5 -->
      <defs>
       <path d="M 10.59375 35.5 
L 73.1875 35.5 
L 73.1875 27.203125 
L 10.59375 27.203125 
z
" id="BitstreamVeraSans-Roman-2212"/>
       <path d="M 10.6875 12.40625 
L 21 12.40625 
L 21 0 
L 10.6875 0 
z
" id="BitstreamVeraSans-Roman-2e"/>
      </defs>
      <g transform="translate(38.860625 348.91125)scale(0.12 -0.12)">
       <use xlink:href="#BitstreamVeraSans-Roman-2212"/>
       <use x="83.7890625" xlink:href="#BitstreamVeraSans-Roman-30"/>
       <use x="147.412109375" xlink:href="#BitstreamVeraSans-Roman-2e"/>
       <use x="179.19921875" xlink:href="#BitstreamVeraSans-Roman-35"/>
      </g>
     </g>
    </g>
    <g id="ytick_2">
     <g id="line2d_24">
      <g>
       <use style="stroke:#000000;stroke-width:0.5;" x="72.0" xlink:href="#ma152558232" y="273.6"/>
      </g>
     </g>
     <g id="line2d_25">
      <g>
       <use style="stroke:#000000;stroke-width:0.5;" x="518.4" xlink:href="#m339a3915e3" y="273.6"/>
      </g>
     </g>
     <g id="text_11">
      <!-- 0.0 -->
      <g transform="translate(48.91625 276.91125)scale(0.12 -0.12)">
       <use xlink:href="#BitstreamVeraSans-Roman-30"/>
       <use x="63.623046875" xlink:href="#BitstreamVeraSans-Roman-2e"/>
       <use x="95.41015625" xlink:href="#BitstreamVeraSans-Roman-30"/>
      </g>
     </g>
    </g>
    <g id="ytick_3">
     <g id="line2d_26">
      <g>
       <use style="stroke:#000000;stroke-width:0.5;" x="72.0" xlink:href="#ma152558232" y="201.6"/>
      </g>
     </g>
     <g id="line2d_27">
      <g>
       <use style="stroke:#000000;stroke-width:0.5;" x="518.4" xlink:href="#m339a3915e3" y="201.6"/>
      </g>
     </g>
     <g id="text_12">
      <!-- 0.5 -->
      <g transform="translate(48.91625 204.91125)scale(0.12 -0.12)">
       <use xlink:href="#BitstreamVeraSans-Roman-30"/>
       <use x="63.623046875" xlink:href="#BitstreamVeraSans-Roman-2e"/>
       <use x="95.41015625" xlink:href="#BitstreamVeraSans-Roman-35"/>
      </g>
     </g>
    </g>
    <g id="ytick_4">
     <g id="line2d_28">
      <g>
       <use style="stroke:#000000;stroke-width:0.5;" x="72.0" xlink:href="#ma152558232" y="129.6"/>
      </g>
     </g>
     <g id="line2d_29">
      <g>
       <use style="stroke:#000000;stroke-width:0.5;" x="518.4" xlink:href="#m339a3915e3" y="129.6"/>
      </g>
     </g>
     <g id="text_13">
      <!-- 1.0 -->
      <g transform="translate(48.91625 132.91125)scale(0.12 -0.12)">
       <use xlink:href="#BitstreamVeraSans-Roman-31"/>
       <use x="63.623046875" xlink:href="#BitstreamVeraSans-Roman-2e"/>
       <use x="95.41015625" xlink:href="#BitstreamVeraSans-Roman-30"/>
      </g>
     </g>
    </g>
    <g id="ytick_5">
     <g id="line2d_30">
      <g>
       <use style="stroke:#000000;stroke-width:0.5;" x="72.0" xlink:href="#ma152558232" y="57.6"/>
      </g>
     </g>
     <g id="line2d_31">
      <g>
       <use style="stroke:#000000;stroke-width:0.5;" x="518.4" xlink:href="#m339a3915e3" y="57.6"/>
      </g>
     </g>
     <g id="text_14">
      <!-- 1.5 -->
      <g transform="translate(48.91625 60.91125)scale(0.12 -0.12)">
       <use xlink:href="#BitstreamVeraSans-Roman-31"/>
       <use x="63.623046875" xlink:href="#BitstreamVeraSans-Roman-2e"/>
       <use x="95.41015625" xlink:href="#BitstreamVeraSans-Roman-35"/>
      </g>
     </g>
    </g>
    <g id="text_15">
     <!-- NRLD -->
     <defs>
      <path d="M 9.8125 72.90625 
L 23.09375 72.90625 
L 55.421875 11.921875 
L 55.421875 72.90625 
L 64.984375 72.90625 
L 64.984375 0 
L 51.703125 0 
L 19.390625 60.984375 
L 19.390625 0 
L 9.8125 0 
z
" id="BitstreamVeraSans-Roman-4e"/>
      <path d="M 19.671875 64.796875 
L 19.671875 8.109375 
L 31.59375 8.109375 
Q 46.6875 8.109375 53.6875 14.9375 
Q 60.6875 21.78125 60.6875 36.53125 
Q 60.6875 51.171875 53.6875 57.984375 
Q 46.6875 64.796875 31.59375 64.796875 
z
M 9.8125 72.90625 
L 30.078125 72.90625 
Q 51.265625 72.90625 61.171875 64.09375 
Q 71.09375 55.28125 71.09375 36.53125 
Q 71.09375 17.671875 61.125 8.828125 
Q 51.171875 0 30.078125 0 
L 9.8125 0 
z
" id="BitstreamVeraSans-Roman-44"/>
      <path d="M 9.8125 72.90625 
L 19.671875 72.90625 
L 19.671875 8.296875 
L 55.171875 8.296875 
L 55.171875 0 
L 9.8125 0 
z
" id="BitstreamVeraSans-Roman-4c"/>
     </defs>
     <g transform="translate(31.365 232.6209375)rotate(-90.0)scale(0.12 -0.12)">
      <use xlink:href="#BitstreamVeraSans-Roman-4e"/>
      <use x="74.8046875" xlink:href="#BitstreamVeraSans-Roman-52"/>
      <use x="144.287109375" xlink:href="#BitstreamVeraSans-Roman-4c"/>
      <use x="200.0" xlink:href="#BitstreamVeraSans-Roman-44"/>
     </g>
    </g>
   </g>
   <g id="text_16">
    <!-- Argon Model 1.1 5.1 -->
    <defs>
     <path d="M 9.8125 72.90625 
L 24.515625 72.90625 
L 43.109375 23.296875 
L 61.8125 72.90625 
L 76.515625 72.90625 
L 76.515625 0 
L 66.890625 0 
L 66.890625 64.015625 
L 48.09375 14.015625 
L 38.1875 14.015625 
L 19.390625 64.015625 
L 19.390625 0 
L 9.8125 0 
z
" id="BitstreamVeraSans-Roman-4d"/>
     <path d="M 30.609375 48.390625 
Q 23.390625 48.390625 19.1875 42.75 
Q 14.984375 37.109375 14.984375 27.296875 
Q 14.984375 17.484375 19.15625 11.84375 
Q 23.34375 6.203125 30.609375 6.203125 
Q 37.796875 6.203125 41.984375 11.859375 
Q 46.1875 17.53125 46.1875 27.296875 
Q 46.1875 37.015625 41.984375 42.703125 
Q 37.796875 48.390625 30.609375 48.390625 
M 30.609375 56 
Q 42.328125 56 49.015625 48.375 
Q 55.71875 40.765625 55.71875 27.296875 
Q 55.71875 13.875 49.015625 6.21875 
Q 42.328125 -1.421875 30.609375 -1.421875 
Q 18.84375 -1.421875 12.171875 6.21875 
Q 5.515625 13.875 5.515625 27.296875 
Q 5.515625 40.765625 12.171875 48.375 
Q 18.84375 56 30.609375 56 
" id="BitstreamVeraSans-Roman-6f"/>
     <path d="M 9.421875 75.984375 
L 18.40625 75.984375 
L 18.40625 0 
L 9.421875 0 
z
" id="BitstreamVeraSans-Roman-6c"/>
     <path d="M 34.1875 63.1875 
L 20.796875 26.90625 
L 47.609375 26.90625 
z
M 28.609375 72.90625 
L 39.796875 72.90625 
L 67.578125 0 
L 57.328125 0 
L 50.6875 18.703125 
L 17.828125 18.703125 
L 11.1875 0 
L 0.78125 0 
z
" id="BitstreamVeraSans-Roman-41"/>
     <path d="M 56.203125 29.59375 
L 56.203125 25.203125 
L 14.890625 25.203125 
Q 15.484375 15.921875 20.484375 11.0625 
Q 25.484375 6.203125 34.421875 6.203125 
Q 39.59375 6.203125 44.453125 7.46875 
Q 49.3125 8.734375 54.109375 11.28125 
L 54.109375 2.78125 
Q 49.265625 0.734375 44.1875 -0.34375 
Q 39.109375 -1.421875 33.890625 -1.421875 
Q 20.796875 -1.421875 13.15625 6.1875 
Q 5.515625 13.8125 5.515625 26.8125 
Q 5.515625 40.234375 12.765625 48.109375 
Q 20.015625 56 32.328125 56 
Q 43.359375 56 49.78125 48.890625 
Q 56.203125 41.796875 56.203125 29.59375 
M 47.21875 32.234375 
Q 47.125 39.59375 43.09375 43.984375 
Q 39.0625 48.390625 32.421875 48.390625 
Q 24.90625 48.390625 20.390625 44.140625 
Q 15.875 39.890625 15.1875 32.171875 
z
" id="BitstreamVeraSans-Roman-65"/>
     <path d="M 45.40625 27.984375 
Q 45.40625 37.75 41.375 43.109375 
Q 37.359375 48.484375 30.078125 48.484375 
Q 22.859375 48.484375 18.828125 43.109375 
Q 14.796875 37.75 14.796875 27.984375 
Q 14.796875 18.265625 18.828125 12.890625 
Q 22.859375 7.515625 30.078125 7.515625 
Q 37.359375 7.515625 41.375 12.890625 
Q 45.40625 18.265625 45.40625 27.984375 
M 54.390625 6.78125 
Q 54.390625 -7.171875 48.1875 -13.984375 
Q 42 -20.796875 29.203125 -20.796875 
Q 24.46875 -20.796875 20.265625 -20.09375 
Q 16.0625 -19.390625 12.109375 -17.921875 
L 12.109375 -9.1875 
Q 16.0625 -11.328125 19.921875 -12.34375 
Q 23.78125 -13.375 27.78125 -13.375 
Q 36.625 -13.375 41.015625 -8.765625 
Q 45.40625 -4.15625 45.40625 5.171875 
L 45.40625 9.625 
Q 42.625 4.78125 38.28125 2.390625 
Q 33.9375 0 27.875 0 
Q 17.828125 0 11.671875 7.65625 
Q 5.515625 15.328125 5.515625 27.984375 
Q 5.515625 40.671875 11.671875 48.328125 
Q 17.828125 56 27.875 56 
Q 33.9375 56 38.28125 53.609375 
Q 42.625 51.21875 45.40625 46.390625 
L 45.40625 54.6875 
L 54.390625 54.6875 
z
" id="BitstreamVeraSans-Roman-67"/>
     <path d="M 41.109375 46.296875 
Q 39.59375 47.171875 37.8125 47.578125 
Q 36.03125 48 33.890625 48 
Q 26.265625 48 22.1875 43.046875 
Q 18.109375 38.09375 18.109375 28.8125 
L 18.109375 0 
L 9.078125 0 
L 9.078125 54.6875 
L 18.109375 54.6875 
L 18.109375 46.1875 
Q 20.953125 51.171875 25.484375 53.578125 
Q 30.03125 56 36.53125 56 
Q 37.453125 56 38.578125 55.875 
Q 39.703125 55.765625 41.0625 55.515625 
z
" id="BitstreamVeraSans-Roman-72"/>
    </defs>
    <g transform="translate(222.39225 38.2)scale(0.144 -0.144)">
     <use xlink:href="#BitstreamVeraSans-Roman-41"/>
     <use x="68.408203125" xlink:href="#BitstreamVeraSans-Roman-72"/>
     <use x="109.505859375" xlink:href="#BitstreamVeraSans-Roman-67"/>
     <use x="172.982421875" xlink:href="#BitstreamVeraSans-Roman-6f"/>
     <use x="234.1640625" xlink:href="#BitstreamVeraSans-Roman-6e"/>
     <use x="297.54296875" xlink:href="#BitstreamVeraSans-Roman-20"/>
     <use x="329.330078125" xlink:href="#BitstreamVeraSans-Roman-4d"/>
     <use x="415.609375" xlink:href="#BitstreamVeraSans-Roman-6f"/>
     <use x="476.791015625" xlink:href="#BitstreamVeraSans-Roman-64"/>
     <use x="540.267578125" xlink:href="#BitstreamVeraSans-Roman-65"/>
     <use x="601.791015625" xlink:href="#BitstreamVeraSans-Roman-6c"/>
     <use x="629.57421875" xlink:href="#BitstreamVeraSans-Roman-20"/>
     <use x="661.361328125" xlink:href="#BitstreamVeraSans-Roman-31"/>
     <use x="724.984375" xlink:href="#BitstreamVeraSans-Roman-2e"/>
     <use x="756.771484375" xlink:href="#BitstreamVeraSans-Roman-31"/>
     <use x="820.39453125" xlink:href="#BitstreamVeraSans-Roman-20"/>
     <use x="852.181640625" xlink:href="#BitstreamVeraSans-Roman-35"/>
     <use x="915.8046875" xlink:href="#BitstreamVeraSans-Roman-2e"/>
     <use x="947.591796875" xlink:href="#BitstreamVeraSans-Roman-31"/>
    </g>
   </g>
  </g>
 </g>
 <defs>
  <clipPath id="p0f659a448c">
   <rect height="345.6" width="446.4" x="72.0" y="43.2"/>
  </clipPath>
 </defs>
</svg>
