<?xml version="1.0" encoding="utf-8" standalone="no"?>
<!DOCTYPE svg PUBLIC "-//W3C//DTD SVG 1.1//EN"
  "http://www.w3.org/Graphics/SVG/1.1/DTD/svg11.dtd">
<!-- Created with matplotlib (http://matplotlib.org/) -->
<svg height="432pt" version="1.1" viewBox="0 0 576 432" width="576pt" xmlns="http://www.w3.org/2000/svg" xmlns:xlink="http://www.w3.org/1999/xlink">
 <defs>
  <style type="text/css">
*{stroke-linecap:butt;stroke-linejoin:round;stroke-miterlimit:100000;}
  </style>
 </defs>
 <g id="figure_1">
  <g id="patch_1">
   <path d="M 0 432 
L 576 432 
L 576 0 
L 0 0 
z
" style="fill:#ffffff;"/>
  </g>
  <g id="axes_1">
   <g id="patch_2">
    <path d="M 72 388.8 
L 518.4 388.8 
L 518.4 43.2 
L 72 43.2 
z
" style="fill:#ffffff;"/>
   </g>
   <g id="line2d_1">
    <path clip-path="url(#pcd001c1a16)" d="M 75.215366 388.8 
L 78.430732 388.8 
L 81.646098 388.8 
L 84.861465 388.8 
L 88.076831 388.8 
L 91.292197 388.8 
L 94.507563 388.8 
L 97.722929 388.8 
L 100.938295 388.726324 
L 104.153661 388.592348 
L 107.369028 388.389551 
L 110.584394 388.154852 
L 113.79976 386.856449 
L 117.015126 385.612829 
L 120.230492 383.281975 
L 123.445858 375.860068 
L 126.661224 369.815229 
L 129.876591 354.62997 
L 133.091957 334.792192 
L 136.307323 314.400303 
L 139.522689 295.178152 
L 142.738055 269.640991 
L 145.953421 249.088088 
L 149.168788 215.56694 
L 152.384154 191.351232 
L 155.59952 176.632946 
L 158.814886 172.593831 
L 162.030252 178.672683 
L 165.245618 191.223185 
L 168.460984 207.845185 
L 171.676351 223.813958 
L 174.891717 237.12306 
L 178.107083 247.869367 
L 181.322449 257.314832 
L 184.537815 263.942069 
L 187.753181 267.466108 
L 190.968547 269.174081 
L 194.183914 270.443302 
L 197.39928 269.93476 
L 200.614646 268.431473 
L 203.830012 265.881797 
L 207.045378 263.094326 
L 210.260744 258.764481 
L 213.47611 255.200535 
L 216.691477 251.035628 
L 219.906843 245.967749 
L 223.122209 242.000599 
L 226.337575 239.103595 
L 229.552941 237.652351 
L 232.768307 237.274844 
L 235.983673 237.600477 
L 239.19904 238.492439 
L 242.414406 239.859799 
L 245.629772 242.498888 
L 248.845138 244.930191 
L 252.060504 247.60729 
L 255.27587 249.864633 
L 258.491236 251.617346 
L 261.706603 253.105384 
L 264.921969 253.916355 
L 268.137335 254.317127 
L 271.352701 254.142619 
L 274.568067 253.862236 
L 277.783433 253.396102 
L 280.9988 252.334574 
L 284.214166 251.21339 
L 287.429532 249.957284 
L 290.644898 248.476115 
L 293.860264 247.587944 
L 297.07563 246.597877 
L 300.290996 246.418037 
L 303.506363 245.900036 
L 306.721729 245.890554 
L 309.937095 245.927506 
L 313.152461 246.321501 
L 316.367827 246.766852 
L 319.583193 247.474222 
L 322.798559 248.344899 
L 326.013926 249.042146 
L 329.229292 249.509547 
L 332.444658 250.003282 
L 335.660024 250.347811 
L 338.87539 250.383847 
L 342.090756 250.297035 
L 345.306122 250.373509 
L 348.521489 250.040785 
L 351.736855 249.749096 
L 354.952221 249.426261 
L 358.167587 249.259844 
L 361.382953 249.210126 
L 364.598319 248.58575 
L 367.813685 248.103429 
L 371.029052 248.017539 
L 374.244418 248.071089 
L 377.459784 248.095959 
L 380.67515 248.155002 
L 383.890516 248.31197 
L 387.105882 248.545314 
L 390.321248 248.841796 
L 393.536615 249.191057 
L 396.751981 249.223354 
L 399.967347 249.049812 
L 403.182713 249.070415 
L 406.398079 249.232594 
L 409.613445 249.490745 
L 412.828812 249.36745 
L 416.044178 249.313298 
L 419.259544 249.165424 
L 422.47491 249.122419 
L 425.690276 249.096015 
L 428.905642 249.163471 
L 432.121008 249.031747 
L 435.336375 248.975311 
L 438.551741 248.991658 
L 441.767107 249.076031 
L 444.982473 249.050231 
L 448.197839 249.020442 
L 451.413205 248.903038 
L 454.628571 248.815706 
" style="fill:none;stroke:#0000ff;stroke-linecap:square;"/>
   </g>
   <g id="line2d_2">
    <path clip-path="url(#pcd001c1a16)" d="M 75.215366 388.8 
L 78.430732 388.8 
L 81.646098 388.8 
L 84.861465 388.8 
L 88.076831 388.8 
L 91.292197 388.8 
L 94.507563 388.8 
L 97.722929 388.8 
L 100.938295 388.8 
L 104.153661 388.8 
L 107.369028 388.8 
L 110.584394 388.8 
L 113.79976 388.8 
L 117.015126 388.8 
L 120.230492 388.8 
L 123.445858 388.8 
L 126.661224 388.8 
L 129.876591 388.8 
L 133.091957 388.799978 
L 136.307323 388.792654 
L 139.522689 388.35983 
L 142.738055 381.928028 
L 145.953421 349.802372 
L 149.168788 281.771629 
L 152.384154 208.552457 
L 155.59952 163.400605 
L 158.814886 147.281833 
L 162.030252 167.920967 
L 165.245618 190.840631 
L 168.460984 212.296092 
L 171.676351 229.651162 
L 174.891717 242.772712 
L 178.107083 252.522253 
L 181.322449 259.822438 
L 184.537815 265.271846 
L 187.753181 269.12213 
L 190.968547 271.41864 
L 194.183914 272.162255 
L 197.39928 271.4207 
L 200.614646 269.372591 
L 203.830012 266.298194 
L 207.045378 262.541021 
L 210.260744 258.46175 
L 213.47611 254.398231 
L 216.691477 250.637558 
L 219.906843 247.400661 
L 223.122209 244.837126 
L 226.337575 243.027161 
L 229.552941 241.988075 
L 232.768307 241.683387 
L 235.983673 242.033369 
L 239.19904 242.926293 
L 242.414406 244.229831 
L 245.629772 245.802115 
L 248.845138 247.501979 
L 252.060504 249.197918 
L 255.27587 250.775377 
L 258.491236 252.142095 
L 261.706603 253.231386 
L 264.921969 254.003366 
L 268.137335 254.444302 
L 271.352701 254.564323 
L 274.568067 254.393864 
L 277.783433 253.979207 
L 280.9988 253.377521 
L 284.214166 252.651783 
L 287.429532 251.865915 
L 290.644898 251.080431 
L 293.860264 250.348815 
L 297.07563 249.714772 
L 300.290996 249.210443 
L 303.506363 248.855577 
L 306.721729 248.657618 
L 309.937095 248.612585 
L 313.152461 248.706615 
L 316.367827 248.917986 
L 319.583193 249.219436 
L 322.798559 249.580589 
L 326.013926 249.970335 
L 329.229292 250.358992 
L 332.444658 250.72014 
L 335.660024 251.032045 
L 338.87539 251.278622 
L 342.090756 251.44991 
L 345.306122 251.5421 
L 348.521489 251.557144 
L 351.736855 251.502021 
L 354.952221 251.387747 
L 358.167587 251.228212 
L 361.382953 251.038953 
L 364.598319 250.835935 
L 367.813685 250.634431 
L 371.029052 250.448064 
L 374.244418 250.288055 
L 377.459784 250.162705 
L 380.67515 250.077129 
L 383.890516 250.033228 
L 387.105882 250.029882 
L 390.321248 250.063325 
L 393.536615 250.127656 
L 396.751981 250.215454 
L 399.967347 250.318427 
L 403.182713 250.428055 
L 406.398079 250.536195 
L 409.613445 250.635589 
L 412.828812 250.720276 
L 416.044178 250.785868 
L 419.259544 250.829695 
L 422.47491 250.850828 
L 425.690276 250.849969 
L 428.905642 250.829255 
L 432.121008 250.791971 
L 435.336375 250.742227 
L 438.551741 250.684591 
L 441.767107 250.623748 
L 444.982473 250.564161 
L 448.197839 250.509794 
L 451.413205 250.463887 
L 454.628571 250.428806 
" style="fill:none;stroke:#000000;stroke-linecap:square;"/>
   </g>
   <g id="line2d_3">
    <path clip-path="url(#pcd001c1a16)" d="M 74.061132 388.8 
L 133.833965 388.8 
L 135.895097 388.376226 
L 137.95623 384.879799 
L 140.017362 368.552538 
L 142.078494 328.659183 
L 144.139626 270.829137 
L 146.200758 203.941003 
L 148.261891 155.662783 
L 150.323023 120.431529 
L 152.384155 111.526645 
L 154.445287 107.909043 
L 156.506419 108.569322 
L 158.567551 125.943335 
L 160.628684 145.484178 
L 162.689816 162.458489 
L 164.750948 181.19769 
L 166.81208 194.634841 
L 170.934345 218.533214 
L 175.056609 240.189958 
L 177.117741 244.976493 
L 179.178873 258.759982 
L 181.240005 262.771695 
L 183.301138 266.0395 
L 185.36227 271.001444 
L 187.423402 274.892697 
L 189.484534 275.559598 
L 191.545666 279.050302 
L 193.606798 278.360289 
L 195.667931 278.48793 
L 197.729063 277.212569 
L 199.790195 275.047056 
L 201.851327 274.320114 
L 203.912459 271.776305 
L 205.973592 272.237326 
L 208.034724 264.203319 
L 210.095856 262.931134 
L 212.156988 259.660806 
L 214.21812 257.279209 
L 216.279252 251.167327 
L 218.340385 245.622646 
L 220.401517 243.265063 
L 224.523781 235.333581 
L 226.584913 232.965535 
L 228.646045 231.721246 
L 230.707178 229.700809 
L 232.76831 230.971447 
L 234.829442 229.022402 
L 236.890574 231.055638 
L 238.951706 233.95112 
L 241.012839 235.905214 
L 243.073971 236.408777 
L 245.135103 239.224004 
L 247.196235 239.30855 
L 249.257367 244.581964 
L 251.318499 248.039681 
L 253.379632 246.044378 
L 255.440764 247.464253 
L 257.501896 250.551686 
L 259.563028 251.802993 
L 261.62416 251.307587 
L 263.685292 254.483946 
L 265.746425 253.428683 
L 267.807557 255.457815 
L 269.868689 254.850314 
L 271.929821 255.136999 
L 273.990953 255.003784 
L 276.052086 254.440196 
L 278.113218 254.42613 
L 280.17435 252.459959 
L 282.235482 251.714725 
L 284.296614 253.38753 
L 286.357746 251.17037 
L 288.418879 248.782158 
L 290.480011 250.256887 
L 292.541143 247.493724 
L 294.602275 247.529659 
L 296.663407 246.633206 
L 298.724539 245.609845 
L 300.785672 245.859792 
L 302.846804 246.768353 
L 304.907936 243.830967 
L 306.969068 244.357606 
L 309.0302 245.86013 
L 311.091333 244.535181 
L 313.152465 245.409713 
L 315.213597 244.654282 
L 317.274729 246.639454 
L 319.335861 245.342595 
L 321.396993 246.277456 
L 323.458126 245.926812 
L 325.519258 248.113609 
L 327.58039 247.781765 
L 329.641522 247.564143 
L 331.702654 249.108155 
L 333.763787 249.589625 
L 335.824919 249.284859 
L 337.886051 248.83493 
L 339.947183 250.305229 
L 342.008315 250.387674 
L 344.069447 248.690505 
L 346.13058 250.062638 
L 348.191712 251.247569 
L 350.252844 249.744056 
L 352.313976 250.14585 
L 354.375108 251.288498 
L 356.43624 249.058396 
L 358.497373 249.875449 
L 360.558505 247.667738 
L 362.619637 249.653737 
L 364.680769 250.391955 
L 366.741901 247.669336 
L 368.803034 248.270352 
L 370.864166 249.117309 
L 372.925298 247.694454 
L 374.98643 248.161958 
L 377.047562 248.507576 
L 379.108694 248.631252 
L 381.169827 248.306444 
L 383.230959 248.469441 
L 385.292091 247.305735 
L 387.353223 248.264527 
L 389.414355 247.449092 
L 391.475487 247.620428 
L 393.53662 247.067473 
L 395.597752 247.923129 
L 397.658884 247.640594 
L 399.720016 248.184031 
L 401.781148 248.44997 
L 403.842281 248.058063 
L 407.964545 248.55647 
L 410.025677 249.539075 
L 412.086809 249.202568 
L 414.147941 249.635862 
L 416.209074 248.22266 
L 418.270206 248.862631 
L 420.331338 249.187724 
L 424.453602 249.00234 
L 426.514734 248.556338 
L 428.575867 248.5926 
L 430.636999 248.241448 
L 432.698131 248.8706 
L 434.759263 248.630612 
L 436.820395 249.23876 
L 440.94266 248.857438 
L 443.003792 249.330665 
L 445.064924 249.311876 
L 447.126056 249.136821 
L 449.187188 250.224716 
L 451.248321 249.327994 
L 453.309453 249.771005 
L 455.370585 250.844875 
L 455.370585 250.844875 
" style="fill:none;stroke:#008000;stroke-linecap:square;"/>
   </g>
   <g id="line2d_4">
    <path clip-path="url(#pcd001c1a16)" d="M 75.215366 250.56 
L 78.430732 250.56 
L 81.646098 250.56 
L 84.861465 250.56 
L 88.076831 250.56 
L 91.292197 250.56 
L 94.507563 250.56 
L 97.722929 250.56 
L 100.938295 250.56 
L 104.153661 250.56 
L 107.369028 250.56 
L 110.584394 250.56 
L 113.79976 250.56 
L 117.015126 250.56 
L 120.230492 250.56 
L 123.445858 250.56 
L 126.661224 250.56 
L 129.876591 250.56 
L 133.091957 250.56 
L 136.307323 250.56 
L 139.522689 250.56 
L 142.738055 250.56 
L 145.953421 250.56 
L 149.168788 250.56 
L 152.384154 250.56 
L 155.59952 250.56 
L 158.814886 250.56 
L 162.030252 250.56 
L 165.245618 250.56 
L 168.460984 250.56 
L 171.676351 250.56 
L 174.891717 250.56 
L 178.107083 250.56 
L 181.322449 250.56 
L 184.537815 250.56 
L 187.753181 250.56 
L 190.968547 250.56 
L 194.183914 250.56 
L 197.39928 250.56 
L 200.614646 250.56 
L 203.830012 250.56 
L 207.045378 250.56 
L 210.260744 250.56 
L 213.47611 250.56 
L 216.691477 250.56 
L 219.906843 250.56 
L 223.122209 250.56 
L 226.337575 250.56 
L 229.552941 250.56 
L 232.768307 250.56 
L 235.983673 250.56 
L 239.19904 250.56 
L 242.414406 250.56 
L 245.629772 250.56 
L 248.845138 250.56 
L 252.060504 250.56 
L 255.27587 250.56 
L 258.491236 250.56 
L 261.706603 250.56 
L 264.921969 250.56 
L 268.137335 250.56 
L 271.352701 250.56 
L 274.568067 250.56 
L 277.783433 250.56 
L 280.9988 250.56 
L 284.214166 250.56 
L 287.429532 250.56 
L 290.644898 250.56 
L 293.860264 250.56 
L 297.07563 250.56 
L 300.290996 250.56 
L 303.506363 250.56 
L 306.721729 250.56 
L 309.937095 250.56 
L 313.152461 250.56 
L 316.367827 250.56 
L 319.583193 250.56 
L 322.798559 250.56 
L 326.013926 250.56 
L 329.229292 250.56 
L 332.444658 250.56 
L 335.660024 250.56 
L 338.87539 250.56 
L 342.090756 250.56 
L 345.306122 250.56 
L 348.521489 250.56 
L 351.736855 250.56 
L 354.952221 250.56 
L 358.167587 250.56 
L 361.382953 250.56 
L 364.598319 250.56 
L 367.813685 250.56 
L 371.029052 250.56 
L 374.244418 250.56 
L 377.459784 250.56 
L 380.67515 250.56 
L 383.890516 250.56 
L 387.105882 250.56 
L 390.321248 250.56 
L 393.536615 250.56 
L 396.751981 250.56 
L 399.967347 250.56 
L 403.182713 250.56 
L 406.398079 250.56 
L 409.613445 250.56 
L 412.828812 250.56 
L 416.044178 250.56 
L 419.259544 250.56 
L 422.47491 250.56 
L 425.690276 250.56 
L 428.905642 250.56 
L 432.121008 250.56 
L 435.336375 250.56 
L 438.551741 250.56 
L 441.767107 250.56 
L 444.982473 250.56 
L 448.197839 250.56 
L 451.413205 250.56 
L 454.628571 250.56 
" style="fill:none;stroke:#000000;stroke-dasharray:6.000000,6.000000;stroke-dashoffset:0.0;"/>
   </g>
   <g id="patch_3">
    <path d="M 72 43.2 
L 518.4 43.2 
" style="fill:none;stroke:#000000;stroke-linecap:square;stroke-linejoin:miter;"/>
   </g>
   <g id="patch_4">
    <path d="M 518.4 388.8 
L 518.4 43.2 
" style="fill:none;stroke:#000000;stroke-linecap:square;stroke-linejoin:miter;"/>
   </g>
   <g id="patch_5">
    <path d="M 72 388.8 
L 518.4 388.8 
" style="fill:none;stroke:#000000;stroke-linecap:square;stroke-linejoin:miter;"/>
   </g>
   <g id="patch_6">
    <path d="M 72 388.8 
L 72 43.2 
" style="fill:none;stroke:#000000;stroke-linecap:square;stroke-linejoin:miter;"/>
   </g>
   <g id="matplotlib.axis_1">
    <g id="xtick_1">
     <g id="line2d_5">
      <defs>
       <path d="M 0 0 
L 0 -4 
" id="m8485d6bd73" style="stroke:#000000;stroke-width:0.5;"/>
      </defs>
      <g>
       <use style="stroke:#000000;stroke-width:0.5;" x="72.0" xlink:href="#m8485d6bd73" y="388.8"/>
      </g>
     </g>
     <g id="line2d_6">
      <defs>
       <path d="M 0 0 
L 0 4 
" id="m4aea4e7b24" style="stroke:#000000;stroke-width:0.5;"/>
      </defs>
      <g>
       <use style="stroke:#000000;stroke-width:0.5;" x="72.0" xlink:href="#m4aea4e7b24" y="43.2"/>
      </g>
     </g>
     <g id="text_1">
      <!-- 0 -->
      <defs>
       <path d="M 31.78125 66.40625 
Q 24.171875 66.40625 20.328125 58.90625 
Q 16.5 51.421875 16.5 36.375 
Q 16.5 21.390625 20.328125 13.890625 
Q 24.171875 6.390625 31.78125 6.390625 
Q 39.453125 6.390625 43.28125 13.890625 
Q 47.125 21.390625 47.125 36.375 
Q 47.125 51.421875 43.28125 58.90625 
Q 39.453125 66.40625 31.78125 66.40625 
M 31.78125 74.21875 
Q 44.046875 74.21875 50.515625 64.515625 
Q 56.984375 54.828125 56.984375 36.375 
Q 56.984375 17.96875 50.515625 8.265625 
Q 44.046875 -1.421875 31.78125 -1.421875 
Q 19.53125 -1.421875 13.0625 8.265625 
Q 6.59375 17.96875 6.59375 36.375 
Q 6.59375 54.828125 13.0625 64.515625 
Q 19.53125 74.21875 31.78125 74.21875 
" id="BitstreamVeraSans-Roman-30"/>
      </defs>
      <g transform="translate(68.1825 401.918125)scale(0.12 -0.12)">
       <use xlink:href="#BitstreamVeraSans-Roman-30"/>
      </g>
     </g>
    </g>
    <g id="xtick_2">
     <g id="line2d_7">
      <g>
       <use style="stroke:#000000;stroke-width:0.5;" x="135.771428571" xlink:href="#m8485d6bd73" y="388.8"/>
      </g>
     </g>
     <g id="line2d_8">
      <g>
       <use style="stroke:#000000;stroke-width:0.5;" x="135.771428571" xlink:href="#m4aea4e7b24" y="43.2"/>
      </g>
     </g>
     <g id="text_2">
      <!-- 10 -->
      <defs>
       <path d="M 12.40625 8.296875 
L 28.515625 8.296875 
L 28.515625 63.921875 
L 10.984375 60.40625 
L 10.984375 69.390625 
L 28.421875 72.90625 
L 38.28125 72.90625 
L 38.28125 8.296875 
L 54.390625 8.296875 
L 54.390625 0 
L 12.40625 0 
z
" id="BitstreamVeraSans-Roman-31"/>
      </defs>
      <g transform="translate(128.136428571 401.918125)scale(0.12 -0.12)">
       <use xlink:href="#BitstreamVeraSans-Roman-31"/>
       <use x="63.623046875" xlink:href="#BitstreamVeraSans-Roman-30"/>
      </g>
     </g>
    </g>
    <g id="xtick_3">
     <g id="line2d_9">
      <g>
       <use style="stroke:#000000;stroke-width:0.5;" x="199.542857143" xlink:href="#m8485d6bd73" y="388.8"/>
      </g>
     </g>
     <g id="line2d_10">
      <g>
       <use style="stroke:#000000;stroke-width:0.5;" x="199.542857143" xlink:href="#m4aea4e7b24" y="43.2"/>
      </g>
     </g>
     <g id="text_3">
      <!-- 20 -->
      <defs>
       <path d="M 19.1875 8.296875 
L 53.609375 8.296875 
L 53.609375 0 
L 7.328125 0 
L 7.328125 8.296875 
Q 12.9375 14.109375 22.625 23.890625 
Q 32.328125 33.6875 34.8125 36.53125 
Q 39.546875 41.84375 41.421875 45.53125 
Q 43.3125 49.21875 43.3125 52.78125 
Q 43.3125 58.59375 39.234375 62.25 
Q 35.15625 65.921875 28.609375 65.921875 
Q 23.96875 65.921875 18.8125 64.3125 
Q 13.671875 62.703125 7.8125 59.421875 
L 7.8125 69.390625 
Q 13.765625 71.78125 18.9375 73 
Q 24.125 74.21875 28.421875 74.21875 
Q 39.75 74.21875 46.484375 68.546875 
Q 53.21875 62.890625 53.21875 53.421875 
Q 53.21875 48.921875 51.53125 44.890625 
Q 49.859375 40.875 45.40625 35.40625 
Q 44.1875 33.984375 37.640625 27.21875 
Q 31.109375 20.453125 19.1875 8.296875 
" id="BitstreamVeraSans-Roman-32"/>
      </defs>
      <g transform="translate(191.907857143 401.918125)scale(0.12 -0.12)">
       <use xlink:href="#BitstreamVeraSans-Roman-32"/>
       <use x="63.623046875" xlink:href="#BitstreamVeraSans-Roman-30"/>
      </g>
     </g>
    </g>
    <g id="xtick_4">
     <g id="line2d_11">
      <g>
       <use style="stroke:#000000;stroke-width:0.5;" x="263.314285714" xlink:href="#m8485d6bd73" y="388.8"/>
      </g>
     </g>
     <g id="line2d_12">
      <g>
       <use style="stroke:#000000;stroke-width:0.5;" x="263.314285714" xlink:href="#m4aea4e7b24" y="43.2"/>
      </g>
     </g>
     <g id="text_4">
      <!-- 30 -->
      <defs>
       <path d="M 40.578125 39.3125 
Q 47.65625 37.796875 51.625 33 
Q 55.609375 28.21875 55.609375 21.1875 
Q 55.609375 10.40625 48.1875 4.484375 
Q 40.765625 -1.421875 27.09375 -1.421875 
Q 22.515625 -1.421875 17.65625 -0.515625 
Q 12.796875 0.390625 7.625 2.203125 
L 7.625 11.71875 
Q 11.71875 9.328125 16.59375 8.109375 
Q 21.484375 6.890625 26.8125 6.890625 
Q 36.078125 6.890625 40.9375 10.546875 
Q 45.796875 14.203125 45.796875 21.1875 
Q 45.796875 27.640625 41.28125 31.265625 
Q 36.765625 34.90625 28.71875 34.90625 
L 20.21875 34.90625 
L 20.21875 43.015625 
L 29.109375 43.015625 
Q 36.375 43.015625 40.234375 45.921875 
Q 44.09375 48.828125 44.09375 54.296875 
Q 44.09375 59.90625 40.109375 62.90625 
Q 36.140625 65.921875 28.71875 65.921875 
Q 24.65625 65.921875 20.015625 65.03125 
Q 15.375 64.15625 9.8125 62.3125 
L 9.8125 71.09375 
Q 15.4375 72.65625 20.34375 73.4375 
Q 25.25 74.21875 29.59375 74.21875 
Q 40.828125 74.21875 47.359375 69.109375 
Q 53.90625 64.015625 53.90625 55.328125 
Q 53.90625 49.265625 50.4375 45.09375 
Q 46.96875 40.921875 40.578125 39.3125 
" id="BitstreamVeraSans-Roman-33"/>
      </defs>
      <g transform="translate(255.679285714 401.918125)scale(0.12 -0.12)">
       <use xlink:href="#BitstreamVeraSans-Roman-33"/>
       <use x="63.623046875" xlink:href="#BitstreamVeraSans-Roman-30"/>
      </g>
     </g>
    </g>
    <g id="xtick_5">
     <g id="line2d_13">
      <g>
       <use style="stroke:#000000;stroke-width:0.5;" x="327.085714286" xlink:href="#m8485d6bd73" y="388.8"/>
      </g>
     </g>
     <g id="line2d_14">
      <g>
       <use style="stroke:#000000;stroke-width:0.5;" x="327.085714286" xlink:href="#m4aea4e7b24" y="43.2"/>
      </g>
     </g>
     <g id="text_5">
      <!-- 40 -->
      <defs>
       <path d="M 37.796875 64.3125 
L 12.890625 25.390625 
L 37.796875 25.390625 
z
M 35.203125 72.90625 
L 47.609375 72.90625 
L 47.609375 25.390625 
L 58.015625 25.390625 
L 58.015625 17.1875 
L 47.609375 17.1875 
L 47.609375 0 
L 37.796875 0 
L 37.796875 17.1875 
L 4.890625 17.1875 
L 4.890625 26.703125 
z
" id="BitstreamVeraSans-Roman-34"/>
      </defs>
      <g transform="translate(319.450714286 401.918125)scale(0.12 -0.12)">
       <use xlink:href="#BitstreamVeraSans-Roman-34"/>
       <use x="63.623046875" xlink:href="#BitstreamVeraSans-Roman-30"/>
      </g>
     </g>
    </g>
    <g id="xtick_6">
     <g id="line2d_15">
      <g>
       <use style="stroke:#000000;stroke-width:0.5;" x="390.857142857" xlink:href="#m8485d6bd73" y="388.8"/>
      </g>
     </g>
     <g id="line2d_16">
      <g>
       <use style="stroke:#000000;stroke-width:0.5;" x="390.857142857" xlink:href="#m4aea4e7b24" y="43.2"/>
      </g>
     </g>
     <g id="text_6">
      <!-- 50 -->
      <defs>
       <path d="M 10.796875 72.90625 
L 49.515625 72.90625 
L 49.515625 64.59375 
L 19.828125 64.59375 
L 19.828125 46.734375 
Q 21.96875 47.46875 24.109375 47.828125 
Q 26.265625 48.1875 28.421875 48.1875 
Q 40.625 48.1875 47.75 41.5 
Q 54.890625 34.8125 54.890625 23.390625 
Q 54.890625 11.625 47.5625 5.09375 
Q 40.234375 -1.421875 26.90625 -1.421875 
Q 22.3125 -1.421875 17.546875 -0.640625 
Q 12.796875 0.140625 7.71875 1.703125 
L 7.71875 11.625 
Q 12.109375 9.234375 16.796875 8.0625 
Q 21.484375 6.890625 26.703125 6.890625 
Q 35.15625 6.890625 40.078125 11.328125 
Q 45.015625 15.765625 45.015625 23.390625 
Q 45.015625 31 40.078125 35.4375 
Q 35.15625 39.890625 26.703125 39.890625 
Q 22.75 39.890625 18.8125 39.015625 
Q 14.890625 38.140625 10.796875 36.28125 
z
" id="BitstreamVeraSans-Roman-35"/>
      </defs>
      <g transform="translate(383.222142857 401.918125)scale(0.12 -0.12)">
       <use xlink:href="#BitstreamVeraSans-Roman-35"/>
       <use x="63.623046875" xlink:href="#BitstreamVeraSans-Roman-30"/>
      </g>
     </g>
    </g>
    <g id="xtick_7">
     <g id="line2d_17">
      <g>
       <use style="stroke:#000000;stroke-width:0.5;" x="454.628571429" xlink:href="#m8485d6bd73" y="388.8"/>
      </g>
     </g>
     <g id="line2d_18">
      <g>
       <use style="stroke:#000000;stroke-width:0.5;" x="454.628571429" xlink:href="#m4aea4e7b24" y="43.2"/>
      </g>
     </g>
     <g id="text_7">
      <!-- 60 -->
      <defs>
       <path d="M 33.015625 40.375 
Q 26.375 40.375 22.484375 35.828125 
Q 18.609375 31.296875 18.609375 23.390625 
Q 18.609375 15.53125 22.484375 10.953125 
Q 26.375 6.390625 33.015625 6.390625 
Q 39.65625 6.390625 43.53125 10.953125 
Q 47.40625 15.53125 47.40625 23.390625 
Q 47.40625 31.296875 43.53125 35.828125 
Q 39.65625 40.375 33.015625 40.375 
M 52.59375 71.296875 
L 52.59375 62.3125 
Q 48.875 64.0625 45.09375 64.984375 
Q 41.3125 65.921875 37.59375 65.921875 
Q 27.828125 65.921875 22.671875 59.328125 
Q 17.53125 52.734375 16.796875 39.40625 
Q 19.671875 43.65625 24.015625 45.921875 
Q 28.375 48.1875 33.59375 48.1875 
Q 44.578125 48.1875 50.953125 41.515625 
Q 57.328125 34.859375 57.328125 23.390625 
Q 57.328125 12.15625 50.6875 5.359375 
Q 44.046875 -1.421875 33.015625 -1.421875 
Q 20.359375 -1.421875 13.671875 8.265625 
Q 6.984375 17.96875 6.984375 36.375 
Q 6.984375 53.65625 15.1875 63.9375 
Q 23.390625 74.21875 37.203125 74.21875 
Q 40.921875 74.21875 44.703125 73.484375 
Q 48.484375 72.75 52.59375 71.296875 
" id="BitstreamVeraSans-Roman-36"/>
      </defs>
      <g transform="translate(446.993571429 401.918125)scale(0.12 -0.12)">
       <use xlink:href="#BitstreamVeraSans-Roman-36"/>
       <use x="63.623046875" xlink:href="#BitstreamVeraSans-Roman-30"/>
      </g>
     </g>
    </g>
    <g id="xtick_8">
     <g id="line2d_19">
      <g>
       <use style="stroke:#000000;stroke-width:0.5;" x="518.4" xlink:href="#m8485d6bd73" y="388.8"/>
      </g>
     </g>
     <g id="line2d_20">
      <g>
       <use style="stroke:#000000;stroke-width:0.5;" x="518.4" xlink:href="#m4aea4e7b24" y="43.2"/>
      </g>
     </g>
     <g id="text_8">
      <!-- 70 -->
      <defs>
       <path d="M 8.203125 72.90625 
L 55.078125 72.90625 
L 55.078125 68.703125 
L 28.609375 0 
L 18.3125 0 
L 43.21875 64.59375 
L 8.203125 64.59375 
z
" id="BitstreamVeraSans-Roman-37"/>
      </defs>
      <g transform="translate(510.765 401.918125)scale(0.12 -0.12)">
       <use xlink:href="#BitstreamVeraSans-Roman-37"/>
       <use x="63.623046875" xlink:href="#BitstreamVeraSans-Roman-30"/>
      </g>
     </g>
    </g>
    <g id="text_9">
     <!-- Radius (nm) -->
     <defs>
      <path id="BitstreamVeraSans-Roman-20"/>
      <path d="M 54.890625 33.015625 
L 54.890625 0 
L 45.90625 0 
L 45.90625 32.71875 
Q 45.90625 40.484375 42.875 44.328125 
Q 39.84375 48.1875 33.796875 48.1875 
Q 26.515625 48.1875 22.3125 43.546875 
Q 18.109375 38.921875 18.109375 30.90625 
L 18.109375 0 
L 9.078125 0 
L 9.078125 54.6875 
L 18.109375 54.6875 
L 18.109375 46.1875 
Q 21.34375 51.125 25.703125 53.5625 
Q 30.078125 56 35.796875 56 
Q 45.21875 56 50.046875 50.171875 
Q 54.890625 44.34375 54.890625 33.015625 
" id="BitstreamVeraSans-Roman-6e"/>
      <path d="M 31 75.875 
Q 24.46875 64.65625 21.28125 53.65625 
Q 18.109375 42.671875 18.109375 31.390625 
Q 18.109375 20.125 21.3125 9.0625 
Q 24.515625 -2 31 -13.1875 
L 23.1875 -13.1875 
Q 15.875 -1.703125 12.234375 9.375 
Q 8.59375 20.453125 8.59375 31.390625 
Q 8.59375 42.28125 12.203125 53.3125 
Q 15.828125 64.359375 23.1875 75.875 
z
" id="BitstreamVeraSans-Roman-28"/>
      <path d="M 8.015625 75.875 
L 15.828125 75.875 
Q 23.140625 64.359375 26.78125 53.3125 
Q 30.421875 42.28125 30.421875 31.390625 
Q 30.421875 20.453125 26.78125 9.375 
Q 23.140625 -1.703125 15.828125 -13.1875 
L 8.015625 -13.1875 
Q 14.5 -2 17.703125 9.0625 
Q 20.90625 20.125 20.90625 31.390625 
Q 20.90625 42.671875 17.703125 53.65625 
Q 14.5 64.65625 8.015625 75.875 
" id="BitstreamVeraSans-Roman-29"/>
      <path d="M 44.390625 34.1875 
Q 47.5625 33.109375 50.5625 29.59375 
Q 53.5625 26.078125 56.59375 19.921875 
L 66.609375 0 
L 56 0 
L 46.6875 18.703125 
Q 43.0625 26.03125 39.671875 28.421875 
Q 36.28125 30.8125 30.421875 30.8125 
L 19.671875 30.8125 
L 19.671875 0 
L 9.8125 0 
L 9.8125 72.90625 
L 32.078125 72.90625 
Q 44.578125 72.90625 50.734375 67.671875 
Q 56.890625 62.453125 56.890625 51.90625 
Q 56.890625 45.015625 53.6875 40.46875 
Q 50.484375 35.9375 44.390625 34.1875 
M 19.671875 64.796875 
L 19.671875 38.921875 
L 32.078125 38.921875 
Q 39.203125 38.921875 42.84375 42.21875 
Q 46.484375 45.515625 46.484375 51.90625 
Q 46.484375 58.296875 42.84375 61.546875 
Q 39.203125 64.796875 32.078125 64.796875 
z
" id="BitstreamVeraSans-Roman-52"/>
      <path d="M 9.421875 54.6875 
L 18.40625 54.6875 
L 18.40625 0 
L 9.421875 0 
z
M 9.421875 75.984375 
L 18.40625 75.984375 
L 18.40625 64.59375 
L 9.421875 64.59375 
z
" id="BitstreamVeraSans-Roman-69"/>
      <path d="M 52 44.1875 
Q 55.375 50.25 60.0625 53.125 
Q 64.75 56 71.09375 56 
Q 79.640625 56 84.28125 50.015625 
Q 88.921875 44.046875 88.921875 33.015625 
L 88.921875 0 
L 79.890625 0 
L 79.890625 32.71875 
Q 79.890625 40.578125 77.09375 44.375 
Q 74.3125 48.1875 68.609375 48.1875 
Q 61.625 48.1875 57.5625 43.546875 
Q 53.515625 38.921875 53.515625 30.90625 
L 53.515625 0 
L 44.484375 0 
L 44.484375 32.71875 
Q 44.484375 40.625 41.703125 44.40625 
Q 38.921875 48.1875 33.109375 48.1875 
Q 26.21875 48.1875 22.15625 43.53125 
Q 18.109375 38.875 18.109375 30.90625 
L 18.109375 0 
L 9.078125 0 
L 9.078125 54.6875 
L 18.109375 54.6875 
L 18.109375 46.1875 
Q 21.1875 51.21875 25.484375 53.609375 
Q 29.78125 56 35.6875 56 
Q 41.65625 56 45.828125 52.96875 
Q 50 49.953125 52 44.1875 
" id="BitstreamVeraSans-Roman-6d"/>
      <path d="M 45.40625 46.390625 
L 45.40625 75.984375 
L 54.390625 75.984375 
L 54.390625 0 
L 45.40625 0 
L 45.40625 8.203125 
Q 42.578125 3.328125 38.25 0.953125 
Q 33.9375 -1.421875 27.875 -1.421875 
Q 17.96875 -1.421875 11.734375 6.484375 
Q 5.515625 14.40625 5.515625 27.296875 
Q 5.515625 40.1875 11.734375 48.09375 
Q 17.96875 56 27.875 56 
Q 33.9375 56 38.25 53.625 
Q 42.578125 51.265625 45.40625 46.390625 
M 14.796875 27.296875 
Q 14.796875 17.390625 18.875 11.75 
Q 22.953125 6.109375 30.078125 6.109375 
Q 37.203125 6.109375 41.296875 11.75 
Q 45.40625 17.390625 45.40625 27.296875 
Q 45.40625 37.203125 41.296875 42.84375 
Q 37.203125 48.484375 30.078125 48.484375 
Q 22.953125 48.484375 18.875 42.84375 
Q 14.796875 37.203125 14.796875 27.296875 
" id="BitstreamVeraSans-Roman-64"/>
      <path d="M 8.5 21.578125 
L 8.5 54.6875 
L 17.484375 54.6875 
L 17.484375 21.921875 
Q 17.484375 14.15625 20.5 10.265625 
Q 23.53125 6.390625 29.59375 6.390625 
Q 36.859375 6.390625 41.078125 11.03125 
Q 45.3125 15.671875 45.3125 23.6875 
L 45.3125 54.6875 
L 54.296875 54.6875 
L 54.296875 0 
L 45.3125 0 
L 45.3125 8.40625 
Q 42.046875 3.421875 37.71875 1 
Q 33.40625 -1.421875 27.6875 -1.421875 
Q 18.265625 -1.421875 13.375 4.4375 
Q 8.5 10.296875 8.5 21.578125 
" id="BitstreamVeraSans-Roman-75"/>
      <path d="M 34.28125 27.484375 
Q 23.390625 27.484375 19.1875 25 
Q 14.984375 22.515625 14.984375 16.5 
Q 14.984375 11.71875 18.140625 8.90625 
Q 21.296875 6.109375 26.703125 6.109375 
Q 34.1875 6.109375 38.703125 11.40625 
Q 43.21875 16.703125 43.21875 25.484375 
L 43.21875 27.484375 
z
M 52.203125 31.203125 
L 52.203125 0 
L 43.21875 0 
L 43.21875 8.296875 
Q 40.140625 3.328125 35.546875 0.953125 
Q 30.953125 -1.421875 24.3125 -1.421875 
Q 15.921875 -1.421875 10.953125 3.296875 
Q 6 8.015625 6 15.921875 
Q 6 25.140625 12.171875 29.828125 
Q 18.359375 34.515625 30.609375 34.515625 
L 43.21875 34.515625 
L 43.21875 35.40625 
Q 43.21875 41.609375 39.140625 45 
Q 35.0625 48.390625 27.6875 48.390625 
Q 23 48.390625 18.546875 47.265625 
Q 14.109375 46.140625 10.015625 43.890625 
L 10.015625 52.203125 
Q 14.9375 54.109375 19.578125 55.046875 
Q 24.21875 56 28.609375 56 
Q 40.484375 56 46.34375 49.84375 
Q 52.203125 43.703125 52.203125 31.203125 
" id="BitstreamVeraSans-Roman-61"/>
      <path d="M 44.28125 53.078125 
L 44.28125 44.578125 
Q 40.484375 46.53125 36.375 47.5 
Q 32.28125 48.484375 27.875 48.484375 
Q 21.1875 48.484375 17.84375 46.4375 
Q 14.5 44.390625 14.5 40.28125 
Q 14.5 37.15625 16.890625 35.375 
Q 19.28125 33.59375 26.515625 31.984375 
L 29.59375 31.296875 
Q 39.15625 29.25 43.1875 25.515625 
Q 47.21875 21.78125 47.21875 15.09375 
Q 47.21875 7.46875 41.1875 3.015625 
Q 35.15625 -1.421875 24.609375 -1.421875 
Q 20.21875 -1.421875 15.453125 -0.5625 
Q 10.6875 0.296875 5.421875 2 
L 5.421875 11.28125 
Q 10.40625 8.6875 15.234375 7.390625 
Q 20.0625 6.109375 24.8125 6.109375 
Q 31.15625 6.109375 34.5625 8.28125 
Q 37.984375 10.453125 37.984375 14.40625 
Q 37.984375 18.0625 35.515625 20.015625 
Q 33.0625 21.96875 24.703125 23.78125 
L 21.578125 24.515625 
Q 13.234375 26.265625 9.515625 29.90625 
Q 5.8125 33.546875 5.8125 39.890625 
Q 5.8125 47.609375 11.28125 51.796875 
Q 16.75 56 26.8125 56 
Q 31.78125 56 36.171875 55.265625 
Q 40.578125 54.546875 44.28125 53.078125 
" id="BitstreamVeraSans-Roman-73"/>
     </defs>
     <g transform="translate(258.71625 418.531875)scale(0.12 -0.12)">
      <use xlink:href="#BitstreamVeraSans-Roman-52"/>
      <use x="69.451171875" xlink:href="#BitstreamVeraSans-Roman-61"/>
      <use x="130.73046875" xlink:href="#BitstreamVeraSans-Roman-64"/>
      <use x="194.20703125" xlink:href="#BitstreamVeraSans-Roman-69"/>
      <use x="221.990234375" xlink:href="#BitstreamVeraSans-Roman-75"/>
      <use x="285.369140625" xlink:href="#BitstreamVeraSans-Roman-73"/>
      <use x="337.46875" xlink:href="#BitstreamVeraSans-Roman-20"/>
      <use x="369.255859375" xlink:href="#BitstreamVeraSans-Roman-28"/>
      <use x="408.26953125" xlink:href="#BitstreamVeraSans-Roman-6e"/>
      <use x="471.6484375" xlink:href="#BitstreamVeraSans-Roman-6d"/>
      <use x="569.060546875" xlink:href="#BitstreamVeraSans-Roman-29"/>
     </g>
    </g>
   </g>
   <g id="matplotlib.axis_2">
    <g id="ytick_1">
     <g id="line2d_21">
      <defs>
       <path d="M 0 0 
L 4 0 
" id="mcae1c3136c" style="stroke:#000000;stroke-width:0.5;"/>
      </defs>
      <g>
       <use style="stroke:#000000;stroke-width:0.5;" x="72.0" xlink:href="#mcae1c3136c" y="388.8"/>
      </g>
     </g>
     <g id="line2d_22">
      <defs>
       <path d="M 0 0 
L -4 0 
" id="m75a1c4f427" style="stroke:#000000;stroke-width:0.5;"/>
      </defs>
      <g>
       <use style="stroke:#000000;stroke-width:0.5;" x="518.4" xlink:href="#m75a1c4f427" y="388.8"/>
      </g>
     </g>
     <g id="text_10">
      <!-- 0.0 -->
      <defs>
       <path d="M 10.6875 12.40625 
L 21 12.40625 
L 21 0 
L 10.6875 0 
z
" id="BitstreamVeraSans-Roman-2e"/>
      </defs>
      <g transform="translate(48.91625 392.11125)scale(0.12 -0.12)">
       <use xlink:href="#BitstreamVeraSans-Roman-30"/>
       <use x="63.623046875" xlink:href="#BitstreamVeraSans-Roman-2e"/>
       <use x="95.41015625" xlink:href="#BitstreamVeraSans-Roman-30"/>
      </g>
     </g>
    </g>
    <g id="ytick_2">
     <g id="line2d_23">
      <g>
       <use style="stroke:#000000;stroke-width:0.5;" x="72.0" xlink:href="#mcae1c3136c" y="319.68"/>
      </g>
     </g>
     <g id="line2d_24">
      <g>
       <use style="stroke:#000000;stroke-width:0.5;" x="518.4" xlink:href="#m75a1c4f427" y="319.68"/>
      </g>
     </g>
     <g id="text_11">
      <!-- 0.5 -->
      <g transform="translate(48.91625 322.99125)scale(0.12 -0.12)">
       <use xlink:href="#BitstreamVeraSans-Roman-30"/>
       <use x="63.623046875" xlink:href="#BitstreamVeraSans-Roman-2e"/>
       <use x="95.41015625" xlink:href="#BitstreamVeraSans-Roman-35"/>
      </g>
     </g>
    </g>
    <g id="ytick_3">
     <g id="line2d_25">
      <g>
       <use style="stroke:#000000;stroke-width:0.5;" x="72.0" xlink:href="#mcae1c3136c" y="250.56"/>
      </g>
     </g>
     <g id="line2d_26">
      <g>
       <use style="stroke:#000000;stroke-width:0.5;" x="518.4" xlink:href="#m75a1c4f427" y="250.56"/>
      </g>
     </g>
     <g id="text_12">
      <!-- 1.0 -->
      <g transform="translate(48.91625 253.87125)scale(0.12 -0.12)">
       <use xlink:href="#BitstreamVeraSans-Roman-31"/>
       <use x="63.623046875" xlink:href="#BitstreamVeraSans-Roman-2e"/>
       <use x="95.41015625" xlink:href="#BitstreamVeraSans-Roman-30"/>
      </g>
     </g>
    </g>
    <g id="ytick_4">
     <g id="line2d_27">
      <g>
       <use style="stroke:#000000;stroke-width:0.5;" x="72.0" xlink:href="#mcae1c3136c" y="181.44"/>
      </g>
     </g>
     <g id="line2d_28">
      <g>
       <use style="stroke:#000000;stroke-width:0.5;" x="518.4" xlink:href="#m75a1c4f427" y="181.44"/>
      </g>
     </g>
     <g id="text_13">
      <!-- 1.5 -->
      <g transform="translate(48.91625 184.75125)scale(0.12 -0.12)">
       <use xlink:href="#BitstreamVeraSans-Roman-31"/>
       <use x="63.623046875" xlink:href="#BitstreamVeraSans-Roman-2e"/>
       <use x="95.41015625" xlink:href="#BitstreamVeraSans-Roman-35"/>
      </g>
     </g>
    </g>
    <g id="ytick_5">
     <g id="line2d_29">
      <g>
       <use style="stroke:#000000;stroke-width:0.5;" x="72.0" xlink:href="#mcae1c3136c" y="112.32"/>
      </g>
     </g>
     <g id="line2d_30">
      <g>
       <use style="stroke:#000000;stroke-width:0.5;" x="518.4" xlink:href="#m75a1c4f427" y="112.32"/>
      </g>
     </g>
     <g id="text_14">
      <!-- 2.0 -->
      <g transform="translate(48.91625 115.63125)scale(0.12 -0.12)">
       <use xlink:href="#BitstreamVeraSans-Roman-32"/>
       <use x="63.623046875" xlink:href="#BitstreamVeraSans-Roman-2e"/>
       <use x="95.41015625" xlink:href="#BitstreamVeraSans-Roman-30"/>
      </g>
     </g>
    </g>
    <g id="ytick_6">
     <g id="line2d_31">
      <g>
       <use style="stroke:#000000;stroke-width:0.5;" x="72.0" xlink:href="#mcae1c3136c" y="43.2"/>
      </g>
     </g>
     <g id="line2d_32">
      <g>
       <use style="stroke:#000000;stroke-width:0.5;" x="518.4" xlink:href="#m75a1c4f427" y="43.2"/>
      </g>
     </g>
     <g id="text_15">
      <!-- 2.5 -->
      <g transform="translate(48.91625 46.51125)scale(0.12 -0.12)">
       <use xlink:href="#BitstreamVeraSans-Roman-32"/>
       <use x="63.623046875" xlink:href="#BitstreamVeraSans-Roman-2e"/>
       <use x="95.41015625" xlink:href="#BitstreamVeraSans-Roman-35"/>
      </g>
     </g>
    </g>
    <g id="text_16">
     <!-- RLD -->
     <defs>
      <path d="M 19.671875 64.796875 
L 19.671875 8.109375 
L 31.59375 8.109375 
Q 46.6875 8.109375 53.6875 14.9375 
Q 60.6875 21.78125 60.6875 36.53125 
Q 60.6875 51.171875 53.6875 57.984375 
Q 46.6875 64.796875 31.59375 64.796875 
z
M 9.8125 72.90625 
L 30.078125 72.90625 
Q 51.265625 72.90625 61.171875 64.09375 
Q 71.09375 55.28125 71.09375 36.53125 
Q 71.09375 17.671875 61.125 8.828125 
Q 51.171875 0 30.078125 0 
L 9.8125 0 
z
" id="BitstreamVeraSans-Roman-44"/>
      <path d="M 9.8125 72.90625 
L 19.671875 72.90625 
L 19.671875 8.296875 
L 55.171875 8.296875 
L 55.171875 0 
L 9.8125 0 
z
" id="BitstreamVeraSans-Roman-4c"/>
     </defs>
     <g transform="translate(41.420625 228.1321875)rotate(-90.0)scale(0.12 -0.12)">
      <use xlink:href="#BitstreamVeraSans-Roman-52"/>
      <use x="69.482421875" xlink:href="#BitstreamVeraSans-Roman-4c"/>
      <use x="125.1953125" xlink:href="#BitstreamVeraSans-Roman-44"/>
     </g>
    </g>
   </g>
   <g id="text_17">
    <!-- Morsali model - Global fitting -->
    <defs>
     <path d="M 9.8125 72.90625 
L 24.515625 72.90625 
L 43.109375 23.296875 
L 61.8125 72.90625 
L 76.515625 72.90625 
L 76.515625 0 
L 66.890625 0 
L 66.890625 64.015625 
L 48.09375 14.015625 
L 38.1875 14.015625 
L 19.390625 64.015625 
L 19.390625 0 
L 9.8125 0 
z
" id="BitstreamVeraSans-Roman-4d"/>
     <path d="M 30.609375 48.390625 
Q 23.390625 48.390625 19.1875 42.75 
Q 14.984375 37.109375 14.984375 27.296875 
Q 14.984375 17.484375 19.15625 11.84375 
Q 23.34375 6.203125 30.609375 6.203125 
Q 37.796875 6.203125 41.984375 11.859375 
Q 46.1875 17.53125 46.1875 27.296875 
Q 46.1875 37.015625 41.984375 42.703125 
Q 37.796875 48.390625 30.609375 48.390625 
M 30.609375 56 
Q 42.328125 56 49.015625 48.375 
Q 55.71875 40.765625 55.71875 27.296875 
Q 55.71875 13.875 49.015625 6.21875 
Q 42.328125 -1.421875 30.609375 -1.421875 
Q 18.84375 -1.421875 12.171875 6.21875 
Q 5.515625 13.875 5.515625 27.296875 
Q 5.515625 40.765625 12.171875 48.375 
Q 18.84375 56 30.609375 56 
" id="BitstreamVeraSans-Roman-6f"/>
     <path d="M 9.421875 75.984375 
L 18.40625 75.984375 
L 18.40625 0 
L 9.421875 0 
z
" id="BitstreamVeraSans-Roman-6c"/>
     <path d="M 59.515625 10.40625 
L 59.515625 29.984375 
L 43.40625 29.984375 
L 43.40625 38.09375 
L 69.28125 38.09375 
L 69.28125 6.78125 
Q 63.578125 2.734375 56.6875 0.65625 
Q 49.8125 -1.421875 42 -1.421875 
Q 24.90625 -1.421875 15.25 8.5625 
Q 5.609375 18.5625 5.609375 36.375 
Q 5.609375 54.25 15.25 64.234375 
Q 24.90625 74.21875 42 74.21875 
Q 49.125 74.21875 55.546875 72.453125 
Q 61.96875 70.703125 67.390625 67.28125 
L 67.390625 56.78125 
Q 61.921875 61.421875 55.765625 63.765625 
Q 49.609375 66.109375 42.828125 66.109375 
Q 29.4375 66.109375 22.71875 58.640625 
Q 16.015625 51.171875 16.015625 36.375 
Q 16.015625 21.625 22.71875 14.15625 
Q 29.4375 6.6875 42.828125 6.6875 
Q 48.046875 6.6875 52.140625 7.59375 
Q 56.25 8.5 59.515625 10.40625 
" id="BitstreamVeraSans-Roman-47"/>
     <path d="M 4.890625 31.390625 
L 31.203125 31.390625 
L 31.203125 23.390625 
L 4.890625 23.390625 
z
" id="BitstreamVeraSans-Roman-2d"/>
     <path d="M 56.203125 29.59375 
L 56.203125 25.203125 
L 14.890625 25.203125 
Q 15.484375 15.921875 20.484375 11.0625 
Q 25.484375 6.203125 34.421875 6.203125 
Q 39.59375 6.203125 44.453125 7.46875 
Q 49.3125 8.734375 54.109375 11.28125 
L 54.109375 2.78125 
Q 49.265625 0.734375 44.1875 -0.34375 
Q 39.109375 -1.421875 33.890625 -1.421875 
Q 20.796875 -1.421875 13.15625 6.1875 
Q 5.515625 13.8125 5.515625 26.8125 
Q 5.515625 40.234375 12.765625 48.109375 
Q 20.015625 56 32.328125 56 
Q 43.359375 56 49.78125 48.890625 
Q 56.203125 41.796875 56.203125 29.59375 
M 47.21875 32.234375 
Q 47.125 39.59375 43.09375 43.984375 
Q 39.0625 48.390625 32.421875 48.390625 
Q 24.90625 48.390625 20.390625 44.140625 
Q 15.875 39.890625 15.1875 32.171875 
z
" id="BitstreamVeraSans-Roman-65"/>
     <path d="M 18.3125 70.21875 
L 18.3125 54.6875 
L 36.8125 54.6875 
L 36.8125 47.703125 
L 18.3125 47.703125 
L 18.3125 18.015625 
Q 18.3125 11.328125 20.140625 9.421875 
Q 21.96875 7.515625 27.59375 7.515625 
L 36.8125 7.515625 
L 36.8125 0 
L 27.59375 0 
Q 17.1875 0 13.234375 3.875 
Q 9.28125 7.765625 9.28125 18.015625 
L 9.28125 47.703125 
L 2.6875 47.703125 
L 2.6875 54.6875 
L 9.28125 54.6875 
L 9.28125 70.21875 
z
" id="BitstreamVeraSans-Roman-74"/>
     <path d="M 37.109375 75.984375 
L 37.109375 68.5 
L 28.515625 68.5 
Q 23.6875 68.5 21.796875 66.546875 
Q 19.921875 64.59375 19.921875 59.515625 
L 19.921875 54.6875 
L 34.71875 54.6875 
L 34.71875 47.703125 
L 19.921875 47.703125 
L 19.921875 0 
L 10.890625 0 
L 10.890625 47.703125 
L 2.296875 47.703125 
L 2.296875 54.6875 
L 10.890625 54.6875 
L 10.890625 58.5 
Q 10.890625 67.625 15.140625 71.796875 
Q 19.390625 75.984375 28.609375 75.984375 
z
" id="BitstreamVeraSans-Roman-66"/>
     <path d="M 41.109375 46.296875 
Q 39.59375 47.171875 37.8125 47.578125 
Q 36.03125 48 33.890625 48 
Q 26.265625 48 22.1875 43.046875 
Q 18.109375 38.09375 18.109375 28.8125 
L 18.109375 0 
L 9.078125 0 
L 9.078125 54.6875 
L 18.109375 54.6875 
L 18.109375 46.1875 
Q 20.953125 51.171875 25.484375 53.578125 
Q 30.03125 56 36.53125 56 
Q 37.453125 56 38.578125 55.875 
Q 39.703125 55.765625 41.0625 55.515625 
z
" id="BitstreamVeraSans-Roman-72"/>
     <path d="M 45.40625 27.984375 
Q 45.40625 37.75 41.375 43.109375 
Q 37.359375 48.484375 30.078125 48.484375 
Q 22.859375 48.484375 18.828125 43.109375 
Q 14.796875 37.75 14.796875 27.984375 
Q 14.796875 18.265625 18.828125 12.890625 
Q 22.859375 7.515625 30.078125 7.515625 
Q 37.359375 7.515625 41.375 12.890625 
Q 45.40625 18.265625 45.40625 27.984375 
M 54.390625 6.78125 
Q 54.390625 -7.171875 48.1875 -13.984375 
Q 42 -20.796875 29.203125 -20.796875 
Q 24.46875 -20.796875 20.265625 -20.09375 
Q 16.0625 -19.390625 12.109375 -17.921875 
L 12.109375 -9.1875 
Q 16.0625 -11.328125 19.921875 -12.34375 
Q 23.78125 -13.375 27.78125 -13.375 
Q 36.625 -13.375 41.015625 -8.765625 
Q 45.40625 -4.15625 45.40625 5.171875 
L 45.40625 9.625 
Q 42.625 4.78125 38.28125 2.390625 
Q 33.9375 0 27.875 0 
Q 17.828125 0 11.671875 7.65625 
Q 5.515625 15.328125 5.515625 27.984375 
Q 5.515625 40.671875 11.671875 48.328125 
Q 17.828125 56 27.875 56 
Q 33.9375 56 38.28125 53.609375 
Q 42.625 51.21875 45.40625 46.390625 
L 45.40625 54.6875 
L 54.390625 54.6875 
z
" id="BitstreamVeraSans-Roman-67"/>
     <path d="M 48.6875 27.296875 
Q 48.6875 37.203125 44.609375 42.84375 
Q 40.53125 48.484375 33.40625 48.484375 
Q 26.265625 48.484375 22.1875 42.84375 
Q 18.109375 37.203125 18.109375 27.296875 
Q 18.109375 17.390625 22.1875 11.75 
Q 26.265625 6.109375 33.40625 6.109375 
Q 40.53125 6.109375 44.609375 11.75 
Q 48.6875 17.390625 48.6875 27.296875 
M 18.109375 46.390625 
Q 20.953125 51.265625 25.265625 53.625 
Q 29.59375 56 35.59375 56 
Q 45.5625 56 51.78125 48.09375 
Q 58.015625 40.1875 58.015625 27.296875 
Q 58.015625 14.40625 51.78125 6.484375 
Q 45.5625 -1.421875 35.59375 -1.421875 
Q 29.59375 -1.421875 25.265625 0.953125 
Q 20.953125 3.328125 18.109375 8.203125 
L 18.109375 0 
L 9.078125 0 
L 9.078125 75.984375 
L 18.109375 75.984375 
z
" id="BitstreamVeraSans-Roman-62"/>
    </defs>
    <g transform="translate(191.005875 38.2)scale(0.144 -0.144)">
     <use xlink:href="#BitstreamVeraSans-Roman-4d"/>
     <use x="86.279296875" xlink:href="#BitstreamVeraSans-Roman-6f"/>
     <use x="147.4609375" xlink:href="#BitstreamVeraSans-Roman-72"/>
     <use x="188.57421875" xlink:href="#BitstreamVeraSans-Roman-73"/>
     <use x="240.673828125" xlink:href="#BitstreamVeraSans-Roman-61"/>
     <use x="301.953125" xlink:href="#BitstreamVeraSans-Roman-6c"/>
     <use x="329.736328125" xlink:href="#BitstreamVeraSans-Roman-69"/>
     <use x="357.51953125" xlink:href="#BitstreamVeraSans-Roman-20"/>
     <use x="389.306640625" xlink:href="#BitstreamVeraSans-Roman-6d"/>
     <use x="486.71875" xlink:href="#BitstreamVeraSans-Roman-6f"/>
     <use x="547.900390625" xlink:href="#BitstreamVeraSans-Roman-64"/>
     <use x="611.376953125" xlink:href="#BitstreamVeraSans-Roman-65"/>
     <use x="672.900390625" xlink:href="#BitstreamVeraSans-Roman-6c"/>
     <use x="700.68359375" xlink:href="#BitstreamVeraSans-Roman-20"/>
     <use x="732.470703125" xlink:href="#BitstreamVeraSans-Roman-2d"/>
     <use x="768.5546875" xlink:href="#BitstreamVeraSans-Roman-20"/>
     <use x="800.341796875" xlink:href="#BitstreamVeraSans-Roman-47"/>
     <use x="877.83203125" xlink:href="#BitstreamVeraSans-Roman-6c"/>
     <use x="905.615234375" xlink:href="#BitstreamVeraSans-Roman-6f"/>
     <use x="966.796875" xlink:href="#BitstreamVeraSans-Roman-62"/>
     <use x="1030.2734375" xlink:href="#BitstreamVeraSans-Roman-61"/>
     <use x="1091.55273438" xlink:href="#BitstreamVeraSans-Roman-6c"/>
     <use x="1119.3359375" xlink:href="#BitstreamVeraSans-Roman-20"/>
     <use x="1151.12304688" xlink:href="#BitstreamVeraSans-Roman-66"/>
     <use x="1186.328125" xlink:href="#BitstreamVeraSans-Roman-69"/>
     <use x="1214.11132812" xlink:href="#BitstreamVeraSans-Roman-74"/>
     <use x="1253.3203125" xlink:href="#BitstreamVeraSans-Roman-74"/>
     <use x="1292.52929688" xlink:href="#BitstreamVeraSans-Roman-69"/>
     <use x="1320.3125" xlink:href="#BitstreamVeraSans-Roman-6e"/>
     <use x="1383.69140625" xlink:href="#BitstreamVeraSans-Roman-67"/>
    </g>
   </g>
  </g>
 </g>
 <defs>
  <clipPath id="pcd001c1a16">
   <rect height="345.6" width="446.4" x="72.0" y="43.2"/>
  </clipPath>
 </defs>
</svg>
